<svg class="main-svg" xmlns="http://www.w3.org/2000/svg" xmlns:xlink="http://www.w3.org/1999/xlink" width="2890" height="1440" style="" viewBox="0 0 2890 1440"><rect x="0" y="0" width="2890" height="1440" style="fill: rgb(255, 255, 255); fill-opacity: 1;"/><defs id="defs-e03ec3"><g class="clips"><clipPath id="clipe03ec3xyplot" class="plotclip"><rect width="2730" height="1260"/></clipPath><clipPath class="axesclip" id="clipe03ec3x"><rect x="80" y="0" width="2730" height="1440"/></clipPath><clipPath class="axesclip" id="clipe03ec3y"><rect x="0" y="100" width="2890" height="1260"/></clipPath><clipPath class="axesclip" id="clipe03ec3xy"><rect x="80" y="100" width="2730" height="1260"/></clipPath></g><g class="gradients"/><g class="patterns"/></defs><g class="bglayer"><rect class="bg" x="80" y="100" width="2730" height="1260" style="fill: rgb(229, 236, 246); fill-opacity: 1; stroke-width: 0;"/></g><g class="layer-below"><g class="imagelayer"/><g class="shapelayer"/></g><g class="cartesianlayer"><g class="subplot xy"><g class="layer-subplot"><g class="shapelayer"/><g class="imagelayer"/></g><g class="minor-gridlayer"><g class="x"/><g class="y"/></g><g class="gridlayer"><g class="x"><path class="xgrid crisp" transform="translate(457.36,0)" d="M0,100v1260" style="stroke: rgb(255, 255, 255); stroke-opacity: 1; stroke-width: 1px;"/><path class="xgrid crisp" transform="translate(839.34,0)" d="M0,100v1260" style="stroke: rgb(255, 255, 255); stroke-opacity: 1; stroke-width: 1px;"/><path class="xgrid crisp" transform="translate(1221.32,0)" d="M0,100v1260" style="stroke: rgb(255, 255, 255); stroke-opacity: 1; stroke-width: 1px;"/><path class="xgrid crisp" transform="translate(1603.3,0)" d="M0,100v1260" style="stroke: rgb(255, 255, 255); stroke-opacity: 1; stroke-width: 1px;"/><path class="xgrid crisp" transform="translate(1985.29,0)" d="M0,100v1260" style="stroke: rgb(255, 255, 255); stroke-opacity: 1; stroke-width: 1px;"/><path class="xgrid crisp" transform="translate(2367.27,0)" d="M0,100v1260" style="stroke: rgb(255, 255, 255); stroke-opacity: 1; stroke-width: 1px;"/><path class="xgrid crisp" transform="translate(2749.25,0)" d="M0,100v1260" style="stroke: rgb(255, 255, 255); stroke-opacity: 1; stroke-width: 1px;"/></g><g class="y"><path class="ygrid crisp" transform="translate(0,1288)" d="M80,0h2730" style="stroke: rgb(255, 255, 255); stroke-opacity: 1; stroke-width: 1px;"/><path class="ygrid crisp" transform="translate(0,1108)" d="M80,0h2730" style="stroke: rgb(255, 255, 255); stroke-opacity: 1; stroke-width: 1px;"/><path class="ygrid crisp" transform="translate(0,928)" d="M80,0h2730" style="stroke: rgb(255, 255, 255); stroke-opacity: 1; stroke-width: 1px;"/><path class="ygrid crisp" transform="translate(0,748)" d="M80,0h2730" style="stroke: rgb(255, 255, 255); stroke-opacity: 1; stroke-width: 1px;"/><path class="ygrid crisp" transform="translate(0,568)" d="M80,0h2730" style="stroke: rgb(255, 255, 255); stroke-opacity: 1; stroke-width: 1px;"/><path class="ygrid crisp" transform="translate(0,388)" d="M80,0h2730" style="stroke: rgb(255, 255, 255); stroke-opacity: 1; stroke-width: 1px;"/><path class="ygrid crisp" transform="translate(0,208)" d="M80,0h2730" style="stroke: rgb(255, 255, 255); stroke-opacity: 1; stroke-width: 1px;"/></g></g><g class="zerolinelayer"/><path class="xlines-below"/><path class="ylines-below"/><g class="overlines-below"/><g class="xaxislayer-below"/><g class="yaxislayer-below"/><g class="overaxes-below"/><g class="plot" transform="translate(80,100)" clip-path="url(#clipe03ec3xyplot)"><g class="scatterlayer mlayer"><g class="trace scatter tracef712ca" style="stroke-miterlimit: 2;"><g class="fills"><g><path class="js-fill" d="M2730,1728L0.5,1728L0.5,1063.15Q3.71,1072.87 5.39,1073.02C6.72,1073.14 8.24,1069.53 9.49,1067.47C10.88,1065.18 12.14,1062.41 13.24,1059.84C14.31,1057.33 15.2,1055 16.03,1052.24C16.98,1049.07 17.52,1044.88 18.48,1041.84C19.26,1039.37 20.4,1037.68 21.1,1035.29C21.9,1032.56 22.08,1029.12 22.84,1026.29C23.55,1023.66 24.58,1021.21 25.44,1018.84C26.23,1016.67 26.7,1014.52 27.78,1012.61C28.85,1010.71 30.37,1009.1 31.88,1007.42C33.47,1005.64 35.36,1002.96 37.12,1002.24C38.39,1001.72 39.44,1002.3 40.95,1002.24C43.14,1002.15 46.55,1001.03 48.97,1001.56C51.23,1002.05 53.48,1005.41 55.08,1005.01C56.6,1004.63 57.45,1001.7 58.46,999.65C59.67,997.2 60.41,993.39 61.57,991.15C62.42,989.51 63.48,988.8 64.32,987.19C65.42,985.08 66.15,981.78 67.23,979.38C68.21,977.2 68.85,974.92 70.46,973.33C72.18,971.63 75.64,971.19 77.46,969.7C78.98,968.45 80.14,967.07 80.94,965.38C81.8,963.54 81.85,961.27 82.24,958.97C82.69,956.31 82.31,951.76 83.39,950.33C83.99,949.54 85.03,949.92 85.82,949.28C86.99,948.32 88.2,946.39 89.17,944.42C90.43,941.89 91.33,938.27 92.23,935.1C93.15,931.88 93.59,927.98 94.61,925.24C95.4,923.12 96.43,921.82 97.39,919.87C98.51,917.6 98.77,914.36 100.91,912.42C103.74,909.86 110.13,907.59 114.46,907.6C118.46,907.61 122.78,913.02 125.98,911.74C130.13,910.08 131.58,899.15 135.2,893.38C138.81,887.62 143.68,881.52 147.68,877.14C150.77,873.75 153.5,871.91 156.65,868.82C160.36,865.17 164.41,859.69 168.45,856.55C171.83,853.92 175.73,852.63 178.82,850.64C181.48,848.93 183.75,848.17 185.99,845.46C189.6,841.09 193.39,831.1 195.7,824.69C197.57,819.5 197.58,813.35 199.51,810.14C200.74,808.1 202.8,808.25 203.99,806C206.34,801.58 205.21,789.18 207.55,782.64C209.46,777.31 213.42,768.75 215.56,769.14C218.73,769.71 218.1,801.46 221.63,802.91C223.22,803.56 225.67,801.41 227.32,798.91C231.07,793.21 232.13,774.85 234.7,763.63C237.07,753.31 239.47,743.39 242.08,734.04C244.47,725.48 247.74,717.33 249.64,709.63C251.3,702.89 252.08,697.46 253.18,690.41C254.52,681.85 255.62,671.32 256.87,661.86C258.1,652.52 259.32,643.18 260.61,634C261.87,625.02 263.35,616.6 264.52,607.36C265.78,597.4 266.98,585.38 267.81,576.22C268.46,569.01 268.69,563.35 269.28,556.85C269.88,550.25 270.5,543.06 271.37,536.94C272.12,531.65 273.29,527.59 274.01,522.22C274.88,515.8 275.27,507.9 275.94,500.94C276.59,494.24 277.19,487.81 277.97,481.21C278.75,474.55 280.04,467.58 280.62,461.16C281.16,455.27 279.87,444.68 281.47,444.17C282.65,443.8 285.56,447.62 287.14,451.44C290.81,460.28 290.77,483.62 293.22,500.44C295.84,518.4 300.04,536.46 302.51,555.98C305.24,577.53 305.9,603.29 308.43,624.31C310.62,642.47 312.93,659.65 316.25,674.86C319.05,687.68 323.17,698.47 326.18,709.81C329.01,720.46 331.53,730.51 333.87,740.95C336.21,751.39 337.57,761.71 340.23,772.45C343.08,783.94 346.98,797.82 350.64,807.73C353.42,815.27 355.88,820.74 359.3,827.14C362.91,833.9 367.35,842.62 371.89,847.19C375.16,850.48 379.15,850.75 382.25,853.78C385.9,857.35 387.71,865.62 391.73,867.96C395.09,869.91 399.95,867.3 403.59,868.82C407.6,870.49 411.25,873.93 414.45,878.33C418.86,884.41 420.69,898.41 425.25,903.6C428.25,907.02 431.54,908.77 435.49,909.65C440.08,910.67 447.67,905.17 451.43,908.1C457.43,912.79 453.12,937.53 457.49,948.6C461.03,957.57 467.43,963.84 472.76,970.74C477.82,977.28 483.62,983.46 488.58,989.06C492.86,993.89 496.85,1000.77 500.71,1002.42C503.12,1003.45 505.66,1000.69 507.72,1002.24C512.64,1005.94 515.64,1029.06 517.85,1040.83C519.67,1050.51 520.01,1067.18 520.94,1067.65C521.05,1067.71 521.06,1067.56 521.26,1067.47C522.62,1066.87 533.34,1059.91 538.32,1061.93C545.44,1064.82 549.5,1084.17 555.37,1094.29C560.78,1103.63 567.22,1113.92 572.08,1120.61C575.3,1125.04 578.74,1130.95 580.81,1131.16C581.78,1131.26 582.39,1130.42 583.17,1129.25C585.22,1126.17 587.08,1115.41 589.16,1108.98C591.08,1103.05 593.01,1092.12 595.11,1092.02C596.94,1091.93 598.88,1104.17 600.86,1104.48C602.15,1104.68 603.25,1100.35 604.82,1100.16C606.62,1099.95 609.34,1101.95 611.23,1104.48C614.74,1109.17 615.76,1122.26 619.24,1129.75C622.34,1136.43 627.21,1143.62 630.47,1147.57C632.37,1149.86 634.34,1152.84 635.68,1152.43C637.61,1151.83 638,1142.81 638.96,1137.89C639.94,1132.89 640.66,1127.65 641.47,1122.66C642.25,1117.85 643.05,1113.65 643.75,1108.48C644.59,1102.3 645.05,1094.15 645.99,1088.06C646.76,1083.08 647.94,1079.4 648.69,1074.56C649.55,1069.01 649.93,1062.2 650.65,1056.56C651.29,1051.55 652.12,1047.84 652.73,1042.38C653.56,1034.96 654.12,1024.24 654.8,1016.06C655.39,1008.92 656.01,1002.81 656.56,996.01C657.13,988.98 657.48,981.28 658.14,974.56C658.73,968.57 659.43,957.64 660.23,957.6C660.82,957.57 661.45,966.56 662.16,966.6C662.74,966.63 663.35,962.96 664.03,960.88C664.85,958.37 665.89,955.45 666.74,952.56C667.65,949.47 668.42,946.3 669.28,942.88C670.24,939.03 670.17,932.77 672.22,930.6C673.64,929.1 676.38,930.37 678.03,928.87C680.62,926.52 681.86,919.4 683.67,915.01C685.31,911.02 686.63,907.39 688.43,903.6C690.29,899.66 692.51,895.15 694.7,891.83C696.49,889.12 698.78,887.79 700.27,884.92C702.14,881.31 703.21,875.65 704.14,871.42C704.95,867.76 705.08,864.05 705.76,861.05C706.3,858.69 706.81,856.46 707.64,854.82C708.26,853.59 709.13,853.13 709.86,851.87C710.95,850 712.36,847.27 713.08,844.42C713.96,840.93 712.75,835.06 714.11,832.32C715.04,830.44 717.22,830.51 718.34,828.5C720.34,824.91 720.45,816.97 721.59,810.68C722.87,803.62 724.11,795 725.63,788.18C726.92,782.39 728.58,778.03 729.87,772.27C731.37,765.56 732.74,758.15 733.87,750.28C735.16,741.25 735.84,730.12 736.92,721.04C737.86,713.09 738.53,705.14 739.89,698.72C740.95,693.72 742.7,690.56 743.75,685.58C745.08,679.27 745.75,671.12 746.57,663.77C747.41,656.29 747.99,648.21 748.72,641.09C749.37,634.74 750.01,629.07 750.71,623.09C751.41,617.13 752.01,611.48 752.91,605.27C753.9,598.44 755.18,590.04 756.48,583.81C757.5,578.92 758.83,575.47 759.75,570.85C760.79,565.64 761.52,559.92 762.23,554.08C763,547.74 763.6,540.49 764.13,534.17C764.61,528.43 764.83,522.27 765.3,517.72C765.63,514.48 766.08,512.74 766.42,509.44C766.93,504.56 767.23,496.75 767.73,491.26C768.14,486.71 768.67,483.1 769.09,478.8C769.54,474.19 769.85,469.13 770.34,464.44C770.81,459.91 771.46,455.72 771.97,451.12C772.52,446.17 772.89,440.81 773.5,435.71C774.1,430.66 774.61,424.74 775.58,420.66C776.27,417.76 777.17,413.37 778.05,413.39C779.25,413.42 780.62,421.63 781.96,427.25C783.98,435.75 786.64,449.5 788.26,459.58C789.67,468.36 789.3,477.94 791.39,484.34C792.86,488.83 795.84,495.26 797.34,495.07C798.81,494.89 799.36,487.79 800.35,483.62C801.53,478.65 802.8,472.97 803.85,467.21C805.01,460.87 805.94,453.82 806.9,447.12C807.86,440.44 808.93,433.73 809.59,427.07C810.24,420.51 810.27,413.43 810.83,407.48C811.3,402.46 811.38,397.84 812.57,393.66C813.63,389.91 815.86,383.26 817.23,383.44C819.61,383.75 821.04,405.27 822.74,416.66C824.53,428.66 825.97,441.59 827.65,453.71C829.27,465.4 831.26,477.6 832.62,488.12C833.77,496.99 833.88,505.08 835.42,512.71C836.8,519.58 839.45,524.47 841.04,531.94C843.17,541.96 842.86,566.68 845.87,567.72C847.12,568.15 848.88,565.12 850.34,563.4C852.09,561.33 853.79,558.27 855.45,555.98C856.94,553.93 858.5,550.06 859.81,550.26C861.63,550.54 862.59,563.05 864.46,563.26C866.09,563.44 868.44,557.76 870.06,554.4C871.94,550.5 873.22,545.33 874.68,541.08C876.01,537.18 876.92,533.16 878.47,529.85C879.82,526.98 881.73,525.16 883.15,522.22C884.89,518.61 886.07,512.55 887.76,509.58C888.83,507.71 890.25,507.37 891.15,505.44C892.61,502.32 891.81,494.7 893.77,491.76C895.15,489.7 897.88,490.04 899.5,487.98C901.97,484.85 903.15,478.52 904.91,473.08C906.98,466.65 908.81,458.3 910.93,451.8C912.77,446.16 914.75,441.18 916.71,436.21C918.53,431.58 920.79,428.31 922.25,422.89C924.35,415.11 924.7,400.93 926.18,393.48C927.11,388.82 928.48,386.29 929.16,382.25C929.93,377.66 929.85,371.39 930.27,367.34C930.56,364.54 930.82,362.78 931.21,360.25C931.66,357.31 932.27,354.16 932.87,350.75C933.58,346.76 934.41,342.33 935.2,337.75C936.08,332.64 935.9,324.71 937.86,321.52C939.01,319.65 941.11,320.18 942.41,318.2C945.11,314.1 945.93,301.52 947.78,294.7C949.23,289.34 950.51,285.11 952.24,280.51C953.94,275.99 956.67,271.71 958.03,267.34C959.29,263.29 959.3,258.92 960.33,255.24C961.23,252.03 962.84,250.01 963.61,246.42C964.73,241.21 964.5,233.1 964.93,226.69C965.34,220.6 965.71,214.72 966.11,208.87C966.5,203.18 966.98,197.84 967.32,192.06C967.69,185.92 967.79,178.38 968.22,173.05C968.53,169.17 969.06,167.06 969.36,163.01C969.81,156.85 969.68,144.93 970.14,139.64C970.38,136.9 970.77,135.92 971.01,133.42C971.37,129.66 971.42,119.24 971.78,119.23C972.08,119.22 972.34,125.33 972.89,128.92C973.59,133.47 975.01,137.98 975.88,144.32C977.26,154.34 978.03,172.04 979.11,183.42C979.95,192.26 979.98,200.73 981.63,206.96C982.79,211.34 985.3,213.27 986.31,217.69C987.76,224.06 985.08,238.81 987.2,242.06C988.02,243.32 989.5,242.49 990.47,243.65C992.55,246.13 993.79,253.85 995.03,259.74C996.49,266.68 997.09,274.95 998.25,282.74C999.46,290.81 1000.9,299.02 1002.16,307.33C1003.45,315.86 1003.65,326.42 1005.89,333.29C1007.51,338.25 1010.54,340.7 1012.31,345.38C1014.49,351.15 1015.45,358.74 1017.18,365.62C1018.99,372.81 1020.76,379.78 1022.98,387.61C1025.55,396.68 1029.21,405.91 1031.82,416.84C1035.06,430.37 1037.21,448.49 1040,462.89C1042.48,475.69 1045.3,486.45 1047.59,499.03C1050.07,512.65 1050.87,533.24 1054.19,541.76C1055.79,545.86 1057.47,547.57 1059.77,550.08C1062.21,552.74 1066.26,553.71 1068.59,557.17C1071.8,561.94 1071.98,571.19 1074.77,577.76C1077.56,584.35 1081.99,590.76 1085.34,596.63C1088.29,601.8 1089.93,608.24 1093.78,611.17C1097.15,613.74 1102.79,611.6 1106.29,614.45C1111.04,618.31 1114.27,629.2 1116.86,635.72C1118.93,640.94 1120.06,644.07 1121.27,650.27C1123.3,660.69 1122.4,683.04 1125.17,693C1126.78,698.78 1129.35,702.74 1131.48,706C1132.94,708.23 1133.85,710.55 1135.89,711.18C1138.44,711.97 1143.1,707.11 1146.2,708.41C1150.79,710.33 1153.4,724 1157.75,728.82C1160.97,732.39 1165.19,733.05 1168.22,736.27C1171.59,739.85 1174.12,746.61 1176.62,749.77C1178.17,751.73 1179.63,754.36 1180.93,754.09C1182.85,753.69 1185.14,744.8 1185.79,741.64C1186.16,739.81 1185,738.03 1185.93,737.14C1187.35,735.78 1193.71,735.58 1196.38,737.32C1199.5,739.35 1199.78,745.95 1202.39,750.28C1205.39,755.24 1209.88,760.03 1213.78,765.18C1217.96,770.69 1222.47,776.23 1226.68,782.32C1231.2,788.86 1235.9,796.45 1239.92,803.23C1243.6,809.45 1246.53,815.75 1249.96,821.41C1253.11,826.6 1257.05,830.12 1259.61,835.96C1262.82,843.28 1261.99,857.6 1266.16,862.6C1268.9,865.88 1273.86,864.34 1276.94,867.42C1281.42,871.88 1283.74,882.11 1287.16,890.1C1290.94,898.92 1295.01,908.78 1298.55,918.14C1302.04,927.36 1304.57,937.12 1308.27,945.83C1311.75,954.02 1315.97,967.95 1319.91,969.01C1322.08,969.59 1324.2,966.37 1326.48,964.69C1329.17,962.71 1332.68,956.95 1334.95,957.74C1338.84,959.09 1340,989.08 1341.77,989.06C1343.01,989.05 1343.85,979.4 1344.75,973.69C1345.87,966.58 1346.88,957.39 1347.7,949.64C1348.46,942.42 1348.96,935.8 1349.55,928.69C1350.16,921.33 1350.75,913.6 1351.31,906.19C1351.86,898.96 1352.34,891.8 1352.89,884.74C1353.42,877.85 1354.05,871.23 1354.55,864.32C1355.07,857.22 1355.48,849.62 1355.93,842.69C1356.35,836.28 1356.63,830.21 1357.18,824.18C1357.7,818.4 1358.55,813.22 1359.11,807.23C1359.74,800.5 1360.18,792.48 1360.69,785.77C1361.14,779.84 1361.57,775.05 1361.99,769C1362.48,761.89 1362.95,753.34 1363.4,745.78C1363.83,738.58 1364.19,732 1364.63,724.68C1365.1,716.72 1365.5,707.6 1366.15,699.77C1366.73,692.76 1367.63,686.59 1368.25,679.86C1368.89,672.97 1369.31,665.74 1369.91,658.91C1370.48,652.37 1371.11,646.36 1371.75,639.72C1372.44,632.56 1373.31,624.8 1373.93,617.4C1374.55,610.09 1374.66,601.96 1375.48,595.58C1376.13,590.52 1377.46,586.83 1377.98,582.08C1378.55,576.85 1376.98,568.18 1378.56,565.49C1379.31,564.22 1380.91,564.9 1381.73,563.58C1383.7,560.4 1382.69,548.52 1383.49,542.12C1384.14,536.89 1384.46,531.43 1385.88,527.94C1386.83,525.59 1388.66,525.11 1389.58,522.58C1391.23,518.05 1390.89,508.66 1391.57,501.8C1392.24,495.06 1392.44,487.95 1393.61,481.75C1394.65,476.23 1396.11,467.41 1397.91,466.34C1398.58,465.94 1399.5,467.29 1400.09,466.85C1402.09,465.33 1400.81,448.66 1401.2,440.89C1401.52,434.54 1401.84,429.12 1402.19,423.61C1402.52,418.55 1402.71,414.13 1403.23,409.07C1403.81,403.5 1404.39,395.26 1405.61,391.57C1406.23,389.7 1407.11,389.44 1407.79,387.61C1409.09,384.14 1410.1,375.26 1411.23,371.7C1411.83,369.82 1412.46,367.44 1413,367.52C1414.29,367.71 1415,384.21 1415.96,393.66C1417.09,404.81 1417.62,417.26 1419.21,430.16C1421.02,444.85 1424.45,460.92 1426.63,477.07C1428.94,494.2 1430.03,520.45 1432.55,530.17C1433.55,534.04 1434.5,535.16 1435.82,537.98C1437.45,541.46 1440.22,545.18 1441.75,549.4C1443.46,554.12 1444.07,559.97 1445.18,565.13C1446.25,570.12 1446.88,575.19 1448.3,579.85C1449.65,584.29 1451.72,588.64 1453.39,592.49C1454.82,595.8 1456.31,598.5 1457.62,601.63C1458.97,604.84 1459.62,609.4 1461.36,611.53C1462.58,613.02 1464.44,614.75 1465.74,614.27C1468.3,613.32 1469.54,601.05 1471.62,595.26C1473.43,590.23 1475.42,585.01 1477.32,581.4C1478.64,578.9 1480.08,577.61 1481.27,575.35C1482.62,572.78 1483.5,569.65 1484.83,566.71C1486.26,563.54 1488.55,559.65 1489.63,556.99C1490.34,555.24 1490.23,554.22 1491.08,552.49C1492.45,549.7 1496.2,546.51 1498.02,542.3C1500.42,536.77 1500.97,528.31 1502.67,521.53C1504.32,514.94 1506.59,508.89 1508.03,502.16C1509.56,495.03 1510.55,487.06 1511.45,479.84C1512.29,473.08 1512.63,466.49 1513.33,460.12C1513.99,454.11 1514.33,448.4 1515.52,442.62C1516.73,436.75 1519.15,431.14 1520.59,425.16C1522.08,418.98 1523.35,412.98 1524.25,406.12C1525.29,398.2 1525.18,387.66 1526.12,380.34C1526.82,374.84 1527.78,370.58 1528.76,365.98C1529.68,361.67 1530.34,355.6 1531.78,353.52C1532.45,352.56 1533.44,351.68 1534.06,351.97C1535.81,352.8 1535.43,366.44 1535.98,373.75C1536.53,381.14 1536.77,388.77 1537.36,396.07C1537.93,403.12 1538.78,409.27 1539.43,416.84C1540.21,425.94 1540.2,438.26 1541.6,446.94C1542.69,453.72 1544.57,464.79 1546.11,464.8C1547.61,464.81 1549.06,453.46 1550.71,447.8C1552.37,442.09 1554.07,435.58 1556.04,430.7C1557.6,426.84 1559.78,424.28 1561.09,420.66C1562.49,416.77 1563.06,412.76 1563.99,408.02C1565.17,402.01 1566.57,393.75 1567.37,387.43C1568.05,382.08 1567.56,375.9 1568.71,372.56C1569.37,370.63 1570.49,369.84 1571.4,368.39C1572.38,366.84 1573.63,365.64 1574.39,363.56C1575.52,360.46 1575.54,355.6 1576.22,351.11C1577.03,345.81 1577.24,335.12 1578.95,333.79C1579.53,333.34 1580.4,334.47 1580.96,333.97C1583.37,331.85 1582.02,307.22 1582.37,297.11C1582.61,290.05 1581.87,283.27 1582.93,279.11C1583.54,276.7 1584.87,276.17 1585.65,273.74C1587.07,269.33 1587.68,254.2 1588.7,254.2C1589.74,254.2 1591.05,266.64 1591.82,274.79C1592.93,286.53 1592.32,305.37 1593.5,318.02C1594.43,328.01 1595.06,336.22 1597.45,344.7C1599.79,352.99 1604.64,359.6 1607.55,368.39C1610.98,378.74 1612.37,394.88 1615.93,403.16C1618.14,408.31 1620.79,410.72 1623.46,414.76C1626.42,419.23 1630.53,422.63 1632.93,428.8C1636.55,438.1 1637.1,453.97 1638.63,466.85C1640.2,480.03 1641.05,494.21 1642.17,506.99C1643.19,518.68 1643.89,530.03 1645.08,540.58C1646.14,550.04 1647.5,558.95 1648.79,567.4C1649.95,575.01 1651.14,582.22 1652.39,589.03C1653.51,595.17 1654.86,600.33 1655.88,606.49C1657.01,613.34 1657.54,621.4 1658.73,628.31C1659.83,634.66 1661.53,639.78 1662.64,646.45C1663.99,654.53 1664.56,665.47 1665.86,673.45C1666.91,679.89 1668.46,684.91 1669.44,690.77C1670.43,696.74 1670.88,702.54 1671.74,708.95C1672.71,716.17 1673.26,724.27 1674.99,731.95C1676.79,739.95 1680.34,747.53 1682.49,756C1684.82,765.21 1685.55,777.52 1688.23,785.23C1690.13,790.69 1693.22,793.45 1695.07,798.55C1697.32,804.73 1697.56,813.22 1699.94,820.01C1702.26,826.64 1706.77,832.11 1709.04,838.87C1711.46,846.06 1712.71,855.3 1713.72,862.06C1714.49,867.25 1713.42,871.75 1715.07,875.92C1716.74,880.13 1721.14,883.22 1723.76,887.15C1726.37,891.07 1728.39,896.81 1730.76,899.46C1732.25,901.12 1733.79,901.41 1735.26,902.74C1736.96,904.27 1738.36,906.49 1740.24,908.28C1742.31,910.25 1745.18,911.14 1747.25,913.97C1750.4,918.27 1750.93,928.1 1754.86,933.37C1758.65,938.45 1765.62,940.81 1770.14,945.29C1774.59,949.7 1777.42,956.76 1781.83,960.01C1785.49,962.71 1789.87,962.28 1793.88,964.69C1798.78,967.64 1803.15,974.66 1808.55,977.33C1813.57,979.81 1819.71,979.16 1824.93,980.78C1829.98,982.35 1834.62,987.2 1839.39,986.83C1844.44,986.44 1849.76,976.54 1854.35,977.65C1860.51,979.14 1865.68,995.29 1870.68,1004.65C1875.78,1014.2 1880.41,1025.61 1884.57,1034.42C1887.91,1041.47 1889.24,1049.76 1893.68,1053.43C1897.35,1056.46 1903.31,1057.54 1907.55,1057.07C1911.44,1056.64 1915.2,1054.49 1918.25,1051.56C1921.97,1047.99 1923.87,1040.12 1927.12,1035.97C1929.73,1032.64 1932.78,1031.87 1935.5,1028.02C1940.03,1021.61 1943.99,999.12 1948.52,998.78C1952.22,998.5 1956.18,1016.48 1960,1016.75C1963.15,1016.97 1966.3,1009.63 1969.45,1005.7C1972.87,1001.43 1975.67,994.93 1979.71,992.02C1983.12,989.57 1987.54,989.45 1991.29,988.2C1994.83,987.02 1998.6,986.63 2001.59,984.74C2004.61,982.84 2006.42,978.16 2009.3,976.79C2011.76,975.62 2015.5,975.02 2017.34,976.1C2019.09,977.12 2019.14,982.65 2020.33,982.69C2021.82,982.74 2024.39,976.89 2025.71,972.83C2027.53,967.21 2027.4,959.56 2028.44,951.52C2029.79,941.02 2030.63,926.5 2033.15,915.19C2035.45,904.89 2037.74,891.01 2042.41,886.28C2045.13,883.52 2049.51,885.42 2052.18,883.01C2055.75,879.78 2057.04,871.45 2059.73,866.23C2062.21,861.42 2065.09,857.41 2067.62,852.73C2070.26,847.85 2072.71,843.09 2075.19,837.5C2078.11,830.94 2081.36,822.66 2083.77,815.69C2085.93,809.45 2087.5,803.63 2089.18,797.69C2090.81,791.92 2092.62,787.08 2093.74,780.55C2095.18,772.15 2095.03,760.84 2096.1,751.32C2097.13,742.17 2098.8,732.48 2099.99,724.5C2100.95,718.06 2101.73,713.12 2102.67,707.04C2103.71,700.37 2104.53,692.53 2105.96,686.09C2107.22,680.43 2108.87,675.78 2110.51,670.36C2112.28,664.51 2114.73,658.36 2116.28,652.18C2117.84,645.95 2118.75,638.97 2119.84,633.13C2120.77,628.15 2121.27,624.59 2122.43,619.31C2124.01,612.13 2126.51,601.82 2128.85,594.04C2130.9,587.19 2133.4,580.09 2135.47,574.99C2136.91,571.45 2138.29,569.72 2139.58,566.17C2141.39,561.2 2143.29,554.49 2144.54,547.67C2146.04,539.49 2146.28,528.4 2147.33,520.31C2148.17,513.83 2148.59,508.61 2150.08,502.85C2151.61,496.91 2154.29,489.95 2156.5,485.21C2158.1,481.78 2160.06,480.42 2161.41,476.71C2163.53,470.86 2163.51,459.89 2165.61,452.66C2167.44,446.36 2170.69,440.81 2172.69,435.53C2174.38,431.07 2175.73,428.37 2177,423.07C2179.1,414.32 2180.75,398.5 2181.96,387.43C2183.01,377.82 2183.57,369.9 2184.11,360.43C2184.71,349.93 2184.21,333.27 2185.27,327.2C2185.68,324.83 2186.39,322.33 2186.81,322.38C2187.74,322.5 2186.7,340.4 2188.17,347.29C2189.27,352.47 2191.85,360.52 2193.19,360.43C2194.44,360.35 2195.37,352.91 2196.06,348.52C2196.89,343.24 2197,337.11 2197.42,330.84C2197.9,323.72 2198.28,315.53 2198.72,308.02C2199.14,300.71 2199.55,293.92 2200,286.38C2200.49,278.12 2200.29,266.24 2201.57,260.42C2202.25,257.31 2203.64,256.49 2204.26,253.51C2205.29,248.56 2203.63,233.47 2205.07,233.06C2205.87,232.83 2207.66,235.82 2208.55,238.28C2210.16,242.73 2209.97,252.81 2210.72,258.7C2211.29,263.22 2211.25,270.36 2212.49,270.65C2213.4,270.87 2215.4,265 2216.29,265.25C2217.83,265.68 2217.09,277.58 2217.55,284.83C2218.12,293.87 2217.86,305.35 2219.42,315.29C2220.97,325.12 2224.61,333.39 2226.81,344.16C2229.54,357.55 2232.34,374.61 2233.79,389.66C2235.21,404.32 2232.3,430.99 2235.55,433.3C2236.49,433.97 2238.07,433.37 2239.02,432.25C2241.49,429.33 2240.9,415.61 2242.15,407.84C2243.3,400.67 2244.78,394.01 2246.12,387.25C2247.42,380.69 2248.97,374.17 2250.05,367.88C2251.06,361.96 2251.9,356.45 2252.46,350.57C2253.03,344.52 2252.93,337.23 2253.39,332.06C2253.73,328.31 2254.24,322.38 2254.64,322.38C2255.09,322.39 2254.86,330.55 2255.93,334.66C2257.1,339.14 2260.14,343.22 2261.73,348.16C2263.54,353.77 2263.88,361.01 2265.84,366.66C2267.62,371.81 2270.65,374.48 2272.66,380.84C2276.27,392.25 2278.46,414.69 2280.94,430.85C2283.26,446.01 2284.02,463.57 2287.17,474.98C2289.28,482.64 2292.81,486.26 2294.95,493.49C2297.75,502.94 2299.73,518.02 2301.04,527.26C2301.95,533.64 2301.86,537.79 2302.73,543.53C2303.72,550.09 2305.54,557.6 2306.92,564.44C2308.25,571.02 2308.55,579.42 2310.84,583.81C2312.31,586.63 2314.67,587.73 2316.46,589.72C2318.19,591.65 2320.04,593 2321.42,595.58C2323.35,599.2 2324.22,605.72 2325.58,610.13C2326.72,613.85 2326.89,618.47 2328.95,620.35C2330.61,621.86 2333.86,620.29 2335.78,621.9C2338.71,624.36 2339.27,634.7 2342.09,636.95C2343.8,638.31 2346.58,638.95 2348,637.99C2350.09,636.57 2349.92,630.09 2350.67,625.18C2351.66,618.68 2352.04,610 2352.9,602.35C2353.77,594.6 2354.56,586.31 2355.85,578.99C2357.01,572.38 2358.77,565.36 2360.08,560.3C2360.98,556.8 2361.88,555.08 2362.64,551.48C2363.79,546.02 2364.62,537.55 2365.44,530.53C2366.26,523.47 2366.9,516.58 2367.57,509.26C2368.28,501.45 2368.89,493.05 2369.56,485.03C2370.22,477.12 2370.59,467.41 2371.58,461.48C2372.19,457.8 2373.19,456.31 2373.78,452.66C2374.71,446.88 2374.76,437.21 2375.5,429.98C2376.19,423.31 2377.13,416.94 2377.99,410.8C2378.79,405.1 2379.74,400.01 2380.47,394.34C2381.25,388.32 2381.94,381.89 2382.5,375.66C2383.06,369.44 2383.33,362.57 2383.83,356.98C2384.24,352.4 2384.68,348.53 2385.15,344.52C2385.59,340.76 2386.21,337.49 2386.55,333.61C2386.94,329.2 2386.79,322.1 2387.23,319.43C2387.41,318.35 2387.65,318.17 2387.86,317.2C2388.24,315.45 2388.6,312.63 2389.01,309.74C2389.57,305.73 2390.29,300.57 2390.82,295.38C2391.44,289.25 2391.62,281.05 2392.38,275.29C2392.96,270.88 2393.86,267.9 2394.56,263.7C2395.39,258.74 2396.26,253.02 2396.93,247.43C2397.64,241.51 2398.24,235.2 2398.65,229.1C2399.06,223.03 2398.9,215.6 2399.41,210.92C2399.73,207.94 2399.89,203.77 2400.69,203.65C2401.54,203.52 2403.42,211 2404.49,210.92C2405.53,210.85 2406.47,206.97 2407.05,203.65C2408.2,197.07 2405.97,179.21 2407.28,173.38C2407.85,170.85 2408.97,168.08 2409.68,168.19C2411.29,168.45 2411.3,190.83 2413.05,197.6C2414.03,201.37 2415.49,202.85 2416.56,206.1C2417.92,210.22 2418.95,216.1 2420.16,220.46C2421.19,224.16 2422.41,227.41 2423.28,230.65C2424.06,233.55 2424.2,238.27 2425.21,238.97C2425.62,239.26 2426.2,238.47 2426.63,238.79C2428.12,239.89 2428.72,249.48 2429.59,255.74C2430.66,263.42 2431.12,272.08 2432.28,281.52C2433.7,293.06 2436.11,306.9 2437.7,319.93C2439.34,333.37 2439.44,348.15 2441.95,360.97C2444.23,372.64 2448.96,383.11 2451.51,393.84C2453.91,403.9 2455.08,415.68 2457.03,423.43C2458.32,428.57 2459.7,432.63 2461.05,436.07C2462.02,438.55 2463.07,439.39 2463.99,442.3C2465.86,448.21 2467.4,459.74 2468.89,470.3C2470.81,483.9 2471.84,503.34 2473.91,517.21C2475.58,528.39 2477.67,537.03 2479.67,547.31C2481.77,558.12 2484.54,568.91 2486.25,580.54C2488.11,593.2 2488.78,606.76 2490.13,620.5C2491.57,635.14 2492.41,650.88 2494.62,665.86C2496.82,680.76 2500.92,698.21 2503.35,710.14C2505,718.25 2505.19,724.88 2507.65,730.55C2509.7,735.26 2513.54,736.99 2515.92,742.32C2519.81,751.02 2521.81,767.05 2524.59,779.69C2527.44,792.65 2530.74,806.24 2532.81,819.14C2534.77,831.37 2533.99,845.89 2536.87,855.14C2538.86,861.53 2541.75,864.95 2545.04,870.37C2549.08,877.01 2554.3,886.68 2559.75,891.83C2564.08,895.92 2571.12,897.63 2573.76,900.32C2575.22,901.8 2574.82,904.13 2576.29,904.64C2578.63,905.45 2584.16,898.91 2588.07,899.96C2593.9,901.53 2599.12,918.44 2605.47,922.1C2610.09,924.76 2615.92,920.98 2620.2,924.19C2627.08,929.35 2631.35,948.06 2635.99,959.15C2640.11,968.99 2641.79,979.93 2646.86,987.34C2651.15,993.61 2658.02,995.48 2662.85,1001.88C2669.16,1010.24 2673.92,1024.11 2679.22,1034.93C2684.32,1045.32 2689.02,1055.41 2694.08,1065.56C2699.14,1075.71 2704.25,1086.39 2709.59,1095.84C2714.5,1104.52 2721.13,1113.65 2724.75,1120.25Q2727.1,1124.53 2730,1131.16" style="fill: rgb(99, 110, 250); fill-opacity: 0.5; stroke-width: 0;"/></g></g><g class="errorbars"/><g class="lines"><path class="js-line" d="M0.5,1063.15Q3.71,1072.87 5.39,1073.02C6.72,1073.14 8.24,1069.53 9.49,1067.47C10.88,1065.18 12.14,1062.41 13.24,1059.84C14.31,1057.33 15.2,1055 16.03,1052.24C16.98,1049.07 17.52,1044.88 18.48,1041.84C19.26,1039.37 20.4,1037.68 21.1,1035.29C21.9,1032.56 22.08,1029.12 22.84,1026.29C23.55,1023.66 24.58,1021.21 25.44,1018.84C26.23,1016.67 26.7,1014.52 27.78,1012.61C28.85,1010.71 30.37,1009.1 31.88,1007.42C33.47,1005.64 35.36,1002.96 37.12,1002.24C38.39,1001.72 39.44,1002.3 40.95,1002.24C43.14,1002.15 46.55,1001.03 48.97,1001.56C51.23,1002.05 53.48,1005.41 55.08,1005.01C56.6,1004.63 57.45,1001.7 58.46,999.65C59.67,997.2 60.41,993.39 61.57,991.15C62.42,989.51 63.48,988.8 64.32,987.19C65.42,985.08 66.15,981.78 67.23,979.38C68.21,977.2 68.85,974.92 70.46,973.33C72.18,971.63 75.64,971.19 77.46,969.7C78.98,968.45 80.14,967.07 80.94,965.38C81.8,963.54 81.85,961.27 82.24,958.97C82.69,956.31 82.31,951.76 83.39,950.33C83.99,949.54 85.03,949.92 85.82,949.28C86.99,948.32 88.2,946.39 89.17,944.42C90.43,941.89 91.33,938.27 92.23,935.1C93.15,931.88 93.59,927.98 94.61,925.24C95.4,923.12 96.43,921.82 97.39,919.87C98.51,917.6 98.77,914.36 100.91,912.42C103.74,909.86 110.13,907.59 114.46,907.6C118.46,907.61 122.78,913.02 125.98,911.74C130.13,910.08 131.58,899.15 135.2,893.38C138.81,887.62 143.68,881.52 147.68,877.14C150.77,873.75 153.5,871.91 156.65,868.82C160.36,865.17 164.41,859.69 168.45,856.55C171.83,853.92 175.73,852.63 178.82,850.64C181.48,848.93 183.75,848.17 185.99,845.46C189.6,841.09 193.39,831.1 195.7,824.69C197.57,819.5 197.58,813.35 199.51,810.14C200.74,808.1 202.8,808.25 203.99,806C206.34,801.58 205.21,789.18 207.55,782.64C209.46,777.31 213.42,768.75 215.56,769.14C218.73,769.71 218.1,801.46 221.63,802.91C223.22,803.56 225.67,801.41 227.32,798.91C231.07,793.21 232.13,774.85 234.7,763.63C237.07,753.31 239.47,743.39 242.08,734.04C244.47,725.48 247.74,717.33 249.64,709.63C251.3,702.89 252.08,697.46 253.18,690.41C254.52,681.85 255.62,671.32 256.87,661.86C258.1,652.52 259.32,643.18 260.61,634C261.87,625.02 263.35,616.6 264.52,607.36C265.78,597.4 266.98,585.38 267.81,576.22C268.46,569.01 268.69,563.35 269.28,556.85C269.88,550.25 270.5,543.06 271.37,536.94C272.12,531.65 273.29,527.59 274.01,522.22C274.88,515.8 275.27,507.9 275.94,500.94C276.59,494.24 277.19,487.81 277.97,481.21C278.75,474.55 280.04,467.58 280.62,461.16C281.16,455.27 279.87,444.68 281.47,444.17C282.65,443.8 285.56,447.62 287.14,451.44C290.81,460.28 290.77,483.62 293.22,500.44C295.84,518.4 300.04,536.46 302.51,555.98C305.24,577.53 305.9,603.29 308.43,624.31C310.62,642.47 312.93,659.65 316.25,674.86C319.05,687.68 323.17,698.47 326.18,709.81C329.01,720.46 331.53,730.51 333.87,740.95C336.21,751.39 337.57,761.71 340.23,772.45C343.08,783.94 346.98,797.82 350.64,807.73C353.42,815.27 355.88,820.74 359.3,827.14C362.91,833.9 367.35,842.62 371.89,847.19C375.16,850.48 379.15,850.75 382.25,853.78C385.9,857.35 387.71,865.62 391.73,867.96C395.09,869.91 399.95,867.3 403.59,868.82C407.6,870.49 411.25,873.93 414.45,878.33C418.86,884.41 420.69,898.41 425.25,903.6C428.25,907.02 431.54,908.77 435.49,909.65C440.08,910.67 447.67,905.17 451.43,908.1C457.43,912.79 453.12,937.53 457.49,948.6C461.03,957.57 467.43,963.84 472.76,970.74C477.82,977.28 483.62,983.46 488.58,989.06C492.86,993.89 496.85,1000.77 500.71,1002.42C503.12,1003.45 505.66,1000.69 507.72,1002.24C512.64,1005.94 515.64,1029.06 517.85,1040.83C519.67,1050.51 520.01,1067.18 520.94,1067.65C521.05,1067.71 521.06,1067.56 521.26,1067.47C522.62,1066.87 533.34,1059.91 538.32,1061.93C545.44,1064.82 549.5,1084.17 555.37,1094.29C560.78,1103.63 567.22,1113.92 572.08,1120.61C575.3,1125.04 578.74,1130.95 580.81,1131.16C581.78,1131.26 582.39,1130.42 583.17,1129.25C585.22,1126.17 587.08,1115.41 589.16,1108.98C591.08,1103.05 593.01,1092.12 595.11,1092.02C596.94,1091.93 598.88,1104.17 600.86,1104.48C602.15,1104.68 603.25,1100.35 604.82,1100.16C606.62,1099.95 609.34,1101.95 611.23,1104.48C614.74,1109.17 615.76,1122.26 619.24,1129.75C622.34,1136.43 627.21,1143.62 630.47,1147.57C632.37,1149.86 634.34,1152.84 635.68,1152.43C637.61,1151.83 638,1142.81 638.96,1137.89C639.94,1132.89 640.66,1127.65 641.47,1122.66C642.25,1117.85 643.05,1113.65 643.75,1108.48C644.59,1102.3 645.05,1094.15 645.99,1088.06C646.76,1083.08 647.94,1079.4 648.69,1074.56C649.55,1069.01 649.93,1062.2 650.65,1056.56C651.29,1051.55 652.12,1047.84 652.73,1042.38C653.56,1034.96 654.12,1024.24 654.8,1016.06C655.39,1008.92 656.01,1002.81 656.56,996.01C657.13,988.98 657.48,981.28 658.14,974.56C658.73,968.57 659.43,957.64 660.23,957.6C660.82,957.57 661.45,966.56 662.16,966.6C662.74,966.63 663.35,962.96 664.03,960.88C664.85,958.37 665.89,955.45 666.74,952.56C667.65,949.47 668.42,946.3 669.28,942.88C670.24,939.03 670.17,932.77 672.22,930.6C673.64,929.1 676.38,930.37 678.03,928.87C680.62,926.52 681.86,919.4 683.67,915.01C685.31,911.02 686.63,907.39 688.43,903.6C690.29,899.66 692.51,895.15 694.7,891.83C696.49,889.12 698.78,887.79 700.27,884.92C702.14,881.31 703.21,875.65 704.14,871.42C704.95,867.76 705.08,864.05 705.76,861.05C706.3,858.69 706.81,856.46 707.64,854.82C708.26,853.59 709.13,853.13 709.86,851.87C710.95,850 712.36,847.27 713.08,844.42C713.96,840.93 712.75,835.06 714.11,832.32C715.04,830.44 717.22,830.51 718.34,828.5C720.34,824.91 720.45,816.97 721.59,810.68C722.87,803.62 724.11,795 725.63,788.18C726.92,782.39 728.58,778.03 729.87,772.27C731.37,765.56 732.74,758.15 733.87,750.28C735.16,741.25 735.84,730.12 736.92,721.04C737.86,713.09 738.53,705.14 739.89,698.72C740.95,693.72 742.7,690.56 743.75,685.58C745.08,679.27 745.75,671.12 746.57,663.77C747.41,656.29 747.99,648.21 748.72,641.09C749.37,634.74 750.01,629.07 750.71,623.09C751.41,617.13 752.01,611.48 752.91,605.27C753.9,598.44 755.18,590.04 756.48,583.81C757.5,578.92 758.83,575.47 759.75,570.85C760.79,565.64 761.52,559.92 762.23,554.08C763,547.74 763.6,540.49 764.13,534.17C764.61,528.43 764.83,522.27 765.3,517.72C765.63,514.48 766.08,512.74 766.42,509.44C766.93,504.56 767.23,496.75 767.73,491.26C768.14,486.71 768.67,483.1 769.09,478.8C769.54,474.19 769.85,469.13 770.34,464.44C770.81,459.91 771.46,455.72 771.97,451.12C772.52,446.17 772.89,440.81 773.5,435.71C774.1,430.66 774.61,424.74 775.58,420.66C776.27,417.76 777.17,413.37 778.05,413.39C779.25,413.42 780.62,421.63 781.96,427.25C783.98,435.75 786.64,449.5 788.26,459.58C789.67,468.36 789.3,477.94 791.39,484.34C792.86,488.83 795.84,495.26 797.34,495.07C798.81,494.89 799.36,487.79 800.35,483.62C801.53,478.65 802.8,472.97 803.85,467.21C805.01,460.87 805.94,453.82 806.9,447.12C807.86,440.44 808.93,433.73 809.59,427.07C810.24,420.51 810.27,413.43 810.83,407.48C811.3,402.46 811.38,397.84 812.57,393.66C813.63,389.91 815.86,383.26 817.23,383.44C819.61,383.75 821.04,405.27 822.74,416.66C824.53,428.66 825.97,441.59 827.65,453.71C829.27,465.4 831.26,477.6 832.62,488.12C833.77,496.99 833.88,505.08 835.42,512.71C836.8,519.58 839.45,524.47 841.04,531.94C843.17,541.96 842.86,566.68 845.87,567.72C847.12,568.15 848.88,565.12 850.34,563.4C852.09,561.33 853.79,558.27 855.45,555.98C856.94,553.93 858.5,550.06 859.81,550.26C861.63,550.54 862.59,563.05 864.46,563.26C866.09,563.44 868.44,557.76 870.06,554.4C871.94,550.5 873.22,545.33 874.68,541.08C876.01,537.18 876.92,533.16 878.47,529.85C879.82,526.98 881.73,525.16 883.15,522.22C884.89,518.61 886.07,512.55 887.76,509.58C888.83,507.71 890.25,507.37 891.15,505.44C892.61,502.32 891.81,494.7 893.77,491.76C895.15,489.7 897.88,490.04 899.5,487.98C901.97,484.85 903.15,478.52 904.91,473.08C906.98,466.65 908.81,458.3 910.93,451.8C912.77,446.16 914.75,441.18 916.71,436.21C918.53,431.58 920.79,428.31 922.25,422.89C924.35,415.11 924.7,400.93 926.18,393.48C927.11,388.82 928.48,386.29 929.16,382.25C929.93,377.66 929.85,371.39 930.27,367.34C930.56,364.54 930.82,362.78 931.21,360.25C931.66,357.31 932.27,354.16 932.87,350.75C933.58,346.76 934.41,342.33 935.2,337.75C936.08,332.64 935.9,324.71 937.86,321.52C939.01,319.65 941.11,320.18 942.41,318.2C945.11,314.1 945.93,301.52 947.78,294.7C949.23,289.34 950.51,285.11 952.24,280.51C953.94,275.99 956.67,271.71 958.03,267.34C959.29,263.29 959.3,258.92 960.33,255.24C961.23,252.03 962.84,250.01 963.61,246.42C964.73,241.21 964.5,233.1 964.93,226.69C965.34,220.6 965.71,214.72 966.11,208.87C966.5,203.18 966.98,197.84 967.32,192.06C967.69,185.92 967.79,178.38 968.22,173.05C968.53,169.17 969.06,167.06 969.36,163.01C969.81,156.85 969.68,144.93 970.14,139.64C970.38,136.9 970.77,135.92 971.01,133.42C971.37,129.66 971.42,119.24 971.78,119.23C972.08,119.22 972.34,125.33 972.89,128.92C973.59,133.47 975.01,137.98 975.88,144.32C977.26,154.34 978.03,172.04 979.11,183.42C979.95,192.26 979.98,200.73 981.63,206.96C982.79,211.34 985.3,213.27 986.31,217.69C987.76,224.06 985.08,238.81 987.2,242.06C988.02,243.32 989.5,242.49 990.47,243.65C992.55,246.13 993.79,253.85 995.03,259.74C996.49,266.68 997.09,274.95 998.25,282.74C999.46,290.81 1000.9,299.02 1002.16,307.33C1003.45,315.86 1003.65,326.42 1005.89,333.29C1007.51,338.25 1010.54,340.7 1012.31,345.38C1014.49,351.15 1015.45,358.74 1017.18,365.62C1018.99,372.81 1020.76,379.78 1022.98,387.61C1025.55,396.68 1029.21,405.91 1031.82,416.84C1035.06,430.37 1037.21,448.49 1040,462.89C1042.48,475.69 1045.3,486.45 1047.59,499.03C1050.07,512.65 1050.87,533.24 1054.19,541.76C1055.79,545.86 1057.47,547.57 1059.77,550.08C1062.21,552.74 1066.26,553.71 1068.59,557.17C1071.8,561.94 1071.98,571.19 1074.77,577.76C1077.56,584.35 1081.99,590.76 1085.34,596.63C1088.29,601.8 1089.93,608.24 1093.78,611.17C1097.15,613.74 1102.79,611.6 1106.29,614.45C1111.04,618.31 1114.27,629.2 1116.86,635.72C1118.93,640.94 1120.06,644.07 1121.27,650.27C1123.3,660.69 1122.4,683.04 1125.17,693C1126.78,698.78 1129.35,702.74 1131.48,706C1132.94,708.23 1133.85,710.55 1135.89,711.18C1138.44,711.97 1143.1,707.11 1146.2,708.41C1150.79,710.33 1153.4,724 1157.75,728.82C1160.97,732.39 1165.19,733.05 1168.22,736.27C1171.59,739.85 1174.12,746.61 1176.62,749.77C1178.17,751.73 1179.63,754.36 1180.93,754.09C1182.85,753.69 1185.14,744.8 1185.79,741.64C1186.16,739.81 1185,738.03 1185.93,737.14C1187.35,735.78 1193.71,735.58 1196.38,737.32C1199.5,739.35 1199.78,745.95 1202.39,750.28C1205.39,755.24 1209.88,760.03 1213.78,765.18C1217.96,770.69 1222.47,776.23 1226.68,782.32C1231.2,788.86 1235.9,796.45 1239.92,803.23C1243.6,809.45 1246.53,815.75 1249.96,821.41C1253.11,826.6 1257.05,830.12 1259.61,835.96C1262.82,843.28 1261.99,857.6 1266.16,862.6C1268.9,865.88 1273.86,864.34 1276.94,867.42C1281.42,871.88 1283.74,882.11 1287.16,890.1C1290.94,898.92 1295.01,908.78 1298.55,918.14C1302.04,927.36 1304.57,937.12 1308.27,945.83C1311.75,954.02 1315.97,967.95 1319.91,969.01C1322.08,969.59 1324.2,966.37 1326.48,964.69C1329.17,962.71 1332.68,956.95 1334.95,957.74C1338.84,959.09 1340,989.08 1341.77,989.06C1343.01,989.05 1343.85,979.4 1344.75,973.69C1345.87,966.58 1346.88,957.39 1347.7,949.64C1348.46,942.42 1348.96,935.8 1349.55,928.69C1350.16,921.33 1350.75,913.6 1351.31,906.19C1351.86,898.96 1352.34,891.8 1352.89,884.74C1353.42,877.85 1354.05,871.23 1354.55,864.32C1355.07,857.22 1355.48,849.62 1355.93,842.69C1356.35,836.28 1356.63,830.21 1357.18,824.18C1357.7,818.4 1358.55,813.22 1359.11,807.23C1359.74,800.5 1360.18,792.48 1360.69,785.77C1361.14,779.84 1361.57,775.05 1361.99,769C1362.48,761.89 1362.95,753.34 1363.4,745.78C1363.83,738.58 1364.19,732 1364.63,724.68C1365.1,716.72 1365.5,707.6 1366.15,699.77C1366.73,692.76 1367.63,686.59 1368.25,679.86C1368.89,672.97 1369.31,665.74 1369.91,658.91C1370.48,652.37 1371.11,646.36 1371.75,639.72C1372.44,632.56 1373.31,624.8 1373.93,617.4C1374.55,610.09 1374.66,601.96 1375.48,595.58C1376.13,590.52 1377.46,586.83 1377.98,582.08C1378.55,576.85 1376.98,568.18 1378.56,565.49C1379.31,564.22 1380.91,564.9 1381.73,563.58C1383.7,560.4 1382.69,548.52 1383.49,542.12C1384.14,536.89 1384.46,531.43 1385.88,527.94C1386.83,525.59 1388.66,525.11 1389.58,522.58C1391.23,518.05 1390.89,508.66 1391.57,501.8C1392.24,495.06 1392.44,487.95 1393.61,481.75C1394.65,476.23 1396.11,467.41 1397.91,466.34C1398.58,465.94 1399.5,467.29 1400.09,466.85C1402.09,465.33 1400.81,448.66 1401.2,440.89C1401.52,434.54 1401.84,429.12 1402.19,423.61C1402.52,418.55 1402.71,414.13 1403.23,409.07C1403.81,403.5 1404.39,395.26 1405.61,391.57C1406.23,389.7 1407.11,389.44 1407.79,387.61C1409.09,384.14 1410.1,375.26 1411.23,371.7C1411.83,369.82 1412.46,367.44 1413,367.52C1414.29,367.71 1415,384.21 1415.96,393.66C1417.09,404.81 1417.62,417.26 1419.21,430.16C1421.02,444.85 1424.45,460.92 1426.63,477.07C1428.94,494.2 1430.03,520.45 1432.55,530.17C1433.55,534.04 1434.5,535.16 1435.82,537.98C1437.45,541.46 1440.22,545.18 1441.75,549.4C1443.46,554.12 1444.07,559.97 1445.18,565.13C1446.25,570.12 1446.88,575.19 1448.3,579.85C1449.65,584.29 1451.72,588.64 1453.39,592.49C1454.82,595.8 1456.31,598.5 1457.62,601.63C1458.97,604.84 1459.62,609.4 1461.36,611.53C1462.58,613.02 1464.44,614.75 1465.74,614.27C1468.3,613.32 1469.54,601.05 1471.62,595.26C1473.43,590.23 1475.42,585.01 1477.32,581.4C1478.64,578.9 1480.08,577.61 1481.27,575.35C1482.62,572.78 1483.5,569.65 1484.83,566.71C1486.26,563.54 1488.55,559.65 1489.63,556.99C1490.34,555.24 1490.23,554.22 1491.08,552.49C1492.45,549.7 1496.2,546.51 1498.02,542.3C1500.42,536.77 1500.97,528.31 1502.67,521.53C1504.32,514.94 1506.59,508.89 1508.03,502.16C1509.56,495.03 1510.55,487.06 1511.45,479.84C1512.29,473.08 1512.63,466.49 1513.33,460.12C1513.99,454.11 1514.33,448.4 1515.52,442.62C1516.73,436.75 1519.15,431.14 1520.59,425.16C1522.08,418.98 1523.35,412.98 1524.25,406.12C1525.29,398.2 1525.18,387.66 1526.12,380.34C1526.82,374.84 1527.78,370.58 1528.76,365.98C1529.68,361.67 1530.34,355.6 1531.78,353.52C1532.45,352.56 1533.44,351.68 1534.06,351.97C1535.81,352.8 1535.43,366.44 1535.98,373.75C1536.53,381.14 1536.77,388.77 1537.36,396.07C1537.93,403.12 1538.78,409.27 1539.43,416.84C1540.21,425.94 1540.2,438.26 1541.6,446.94C1542.69,453.72 1544.57,464.79 1546.11,464.8C1547.61,464.81 1549.06,453.46 1550.71,447.8C1552.37,442.09 1554.07,435.58 1556.04,430.7C1557.6,426.84 1559.78,424.28 1561.09,420.66C1562.49,416.77 1563.06,412.76 1563.99,408.02C1565.17,402.01 1566.57,393.75 1567.37,387.43C1568.05,382.08 1567.56,375.9 1568.71,372.56C1569.37,370.63 1570.49,369.84 1571.4,368.39C1572.38,366.84 1573.63,365.64 1574.39,363.56C1575.52,360.46 1575.54,355.6 1576.22,351.11C1577.03,345.81 1577.24,335.12 1578.95,333.79C1579.53,333.34 1580.4,334.47 1580.96,333.97C1583.37,331.85 1582.02,307.22 1582.37,297.11C1582.61,290.05 1581.87,283.27 1582.93,279.11C1583.54,276.7 1584.87,276.17 1585.65,273.74C1587.07,269.33 1587.68,254.2 1588.7,254.2C1589.74,254.2 1591.05,266.64 1591.82,274.79C1592.93,286.53 1592.32,305.37 1593.5,318.02C1594.43,328.01 1595.06,336.22 1597.45,344.7C1599.79,352.99 1604.64,359.6 1607.55,368.39C1610.98,378.74 1612.37,394.88 1615.93,403.16C1618.14,408.31 1620.79,410.72 1623.46,414.76C1626.42,419.23 1630.53,422.63 1632.93,428.8C1636.55,438.1 1637.1,453.97 1638.63,466.85C1640.2,480.03 1641.05,494.21 1642.17,506.99C1643.19,518.68 1643.89,530.03 1645.08,540.58C1646.14,550.04 1647.5,558.95 1648.79,567.4C1649.95,575.01 1651.14,582.22 1652.39,589.03C1653.51,595.17 1654.86,600.33 1655.88,606.49C1657.01,613.34 1657.54,621.4 1658.73,628.31C1659.83,634.66 1661.53,639.78 1662.64,646.45C1663.99,654.53 1664.56,665.47 1665.86,673.45C1666.91,679.89 1668.46,684.91 1669.44,690.77C1670.43,696.74 1670.88,702.54 1671.74,708.95C1672.71,716.17 1673.26,724.27 1674.99,731.95C1676.79,739.95 1680.34,747.53 1682.49,756C1684.82,765.21 1685.55,777.52 1688.23,785.23C1690.13,790.69 1693.22,793.45 1695.07,798.55C1697.32,804.73 1697.56,813.22 1699.94,820.01C1702.26,826.64 1706.77,832.11 1709.04,838.87C1711.46,846.06 1712.71,855.3 1713.72,862.06C1714.49,867.25 1713.42,871.75 1715.07,875.92C1716.74,880.13 1721.14,883.22 1723.76,887.15C1726.37,891.07 1728.39,896.81 1730.76,899.46C1732.25,901.12 1733.79,901.41 1735.26,902.74C1736.96,904.27 1738.36,906.49 1740.24,908.28C1742.31,910.25 1745.18,911.14 1747.25,913.97C1750.4,918.27 1750.93,928.1 1754.86,933.37C1758.65,938.45 1765.62,940.81 1770.14,945.29C1774.59,949.7 1777.42,956.76 1781.83,960.01C1785.49,962.71 1789.87,962.28 1793.88,964.69C1798.78,967.64 1803.15,974.66 1808.55,977.33C1813.57,979.81 1819.71,979.16 1824.93,980.78C1829.98,982.35 1834.62,987.2 1839.39,986.83C1844.44,986.44 1849.76,976.54 1854.35,977.65C1860.51,979.14 1865.68,995.29 1870.68,1004.65C1875.78,1014.2 1880.41,1025.61 1884.57,1034.42C1887.91,1041.47 1889.24,1049.76 1893.68,1053.43C1897.35,1056.46 1903.31,1057.54 1907.55,1057.07C1911.44,1056.64 1915.2,1054.49 1918.25,1051.56C1921.97,1047.99 1923.87,1040.12 1927.12,1035.97C1929.73,1032.64 1932.78,1031.87 1935.5,1028.02C1940.03,1021.61 1943.99,999.12 1948.52,998.78C1952.22,998.5 1956.18,1016.48 1960,1016.75C1963.15,1016.97 1966.3,1009.63 1969.45,1005.7C1972.87,1001.43 1975.67,994.93 1979.71,992.02C1983.12,989.57 1987.54,989.45 1991.29,988.2C1994.83,987.02 1998.6,986.63 2001.59,984.74C2004.61,982.84 2006.42,978.16 2009.3,976.79C2011.76,975.62 2015.5,975.02 2017.34,976.1C2019.09,977.12 2019.14,982.65 2020.33,982.69C2021.82,982.74 2024.39,976.89 2025.71,972.83C2027.53,967.21 2027.4,959.56 2028.44,951.52C2029.79,941.02 2030.63,926.5 2033.15,915.19C2035.45,904.89 2037.74,891.01 2042.41,886.28C2045.13,883.52 2049.51,885.42 2052.18,883.01C2055.75,879.78 2057.04,871.45 2059.73,866.23C2062.21,861.42 2065.09,857.41 2067.62,852.73C2070.26,847.85 2072.71,843.09 2075.19,837.5C2078.11,830.94 2081.36,822.66 2083.77,815.69C2085.93,809.45 2087.5,803.63 2089.18,797.69C2090.81,791.92 2092.62,787.08 2093.74,780.55C2095.18,772.15 2095.03,760.84 2096.1,751.32C2097.13,742.17 2098.8,732.48 2099.99,724.5C2100.95,718.06 2101.73,713.12 2102.67,707.04C2103.71,700.37 2104.53,692.53 2105.96,686.09C2107.22,680.43 2108.87,675.78 2110.51,670.36C2112.28,664.51 2114.73,658.36 2116.28,652.18C2117.84,645.95 2118.75,638.97 2119.84,633.13C2120.77,628.15 2121.27,624.59 2122.43,619.31C2124.01,612.13 2126.51,601.82 2128.85,594.04C2130.9,587.19 2133.4,580.09 2135.47,574.99C2136.91,571.45 2138.29,569.72 2139.58,566.17C2141.39,561.2 2143.29,554.49 2144.54,547.67C2146.04,539.49 2146.28,528.4 2147.33,520.31C2148.17,513.83 2148.59,508.61 2150.08,502.85C2151.61,496.91 2154.29,489.95 2156.5,485.21C2158.1,481.78 2160.06,480.42 2161.41,476.71C2163.53,470.86 2163.51,459.89 2165.61,452.66C2167.44,446.36 2170.69,440.81 2172.69,435.53C2174.38,431.07 2175.73,428.37 2177,423.07C2179.1,414.32 2180.75,398.5 2181.96,387.43C2183.01,377.82 2183.57,369.9 2184.11,360.43C2184.71,349.93 2184.21,333.27 2185.27,327.2C2185.68,324.83 2186.39,322.33 2186.81,322.38C2187.74,322.5 2186.7,340.4 2188.17,347.29C2189.27,352.47 2191.85,360.52 2193.19,360.43C2194.44,360.35 2195.37,352.91 2196.06,348.52C2196.89,343.24 2197,337.11 2197.42,330.84C2197.9,323.72 2198.28,315.53 2198.72,308.02C2199.14,300.71 2199.55,293.92 2200,286.38C2200.49,278.12 2200.29,266.24 2201.57,260.42C2202.25,257.31 2203.64,256.49 2204.26,253.51C2205.29,248.56 2203.63,233.47 2205.07,233.06C2205.87,232.83 2207.66,235.82 2208.55,238.28C2210.16,242.73 2209.97,252.81 2210.72,258.7C2211.29,263.22 2211.25,270.36 2212.49,270.65C2213.4,270.87 2215.4,265 2216.29,265.25C2217.83,265.68 2217.09,277.58 2217.55,284.83C2218.12,293.87 2217.86,305.35 2219.42,315.29C2220.97,325.12 2224.61,333.39 2226.81,344.16C2229.54,357.55 2232.34,374.61 2233.79,389.66C2235.21,404.32 2232.3,430.99 2235.55,433.3C2236.49,433.97 2238.07,433.37 2239.02,432.25C2241.49,429.33 2240.9,415.61 2242.15,407.84C2243.3,400.67 2244.78,394.01 2246.12,387.25C2247.42,380.69 2248.97,374.17 2250.05,367.88C2251.06,361.96 2251.9,356.45 2252.46,350.57C2253.03,344.52 2252.93,337.23 2253.39,332.06C2253.73,328.31 2254.24,322.38 2254.64,322.38C2255.09,322.39 2254.86,330.55 2255.93,334.66C2257.1,339.14 2260.14,343.22 2261.73,348.16C2263.54,353.77 2263.88,361.01 2265.84,366.66C2267.62,371.81 2270.65,374.48 2272.66,380.84C2276.27,392.25 2278.46,414.69 2280.94,430.85C2283.26,446.01 2284.02,463.57 2287.17,474.98C2289.28,482.64 2292.81,486.26 2294.95,493.49C2297.75,502.94 2299.73,518.02 2301.04,527.26C2301.95,533.64 2301.86,537.79 2302.73,543.53C2303.72,550.09 2305.54,557.6 2306.92,564.44C2308.25,571.02 2308.55,579.42 2310.84,583.81C2312.31,586.63 2314.67,587.73 2316.46,589.72C2318.19,591.65 2320.04,593 2321.42,595.58C2323.35,599.2 2324.22,605.72 2325.58,610.13C2326.72,613.85 2326.89,618.47 2328.95,620.35C2330.61,621.86 2333.86,620.29 2335.78,621.9C2338.71,624.36 2339.27,634.7 2342.09,636.95C2343.8,638.31 2346.58,638.95 2348,637.99C2350.09,636.57 2349.92,630.09 2350.67,625.18C2351.66,618.68 2352.04,610 2352.9,602.35C2353.77,594.6 2354.56,586.31 2355.85,578.99C2357.01,572.38 2358.77,565.36 2360.08,560.3C2360.98,556.8 2361.88,555.08 2362.64,551.48C2363.79,546.02 2364.62,537.55 2365.44,530.53C2366.26,523.47 2366.9,516.58 2367.57,509.26C2368.28,501.45 2368.89,493.05 2369.56,485.03C2370.22,477.12 2370.59,467.41 2371.58,461.48C2372.19,457.8 2373.19,456.31 2373.78,452.66C2374.71,446.88 2374.76,437.21 2375.5,429.98C2376.19,423.31 2377.13,416.94 2377.99,410.8C2378.79,405.1 2379.74,400.01 2380.47,394.34C2381.25,388.32 2381.94,381.89 2382.5,375.66C2383.06,369.44 2383.33,362.57 2383.83,356.98C2384.24,352.4 2384.68,348.53 2385.15,344.52C2385.59,340.76 2386.21,337.49 2386.55,333.61C2386.94,329.2 2386.79,322.1 2387.23,319.43C2387.41,318.35 2387.65,318.17 2387.86,317.2C2388.24,315.45 2388.6,312.63 2389.01,309.74C2389.57,305.73 2390.29,300.57 2390.82,295.38C2391.44,289.25 2391.62,281.05 2392.38,275.29C2392.96,270.88 2393.86,267.9 2394.56,263.7C2395.39,258.74 2396.26,253.02 2396.93,247.43C2397.64,241.51 2398.24,235.2 2398.65,229.1C2399.06,223.03 2398.9,215.6 2399.41,210.92C2399.73,207.94 2399.89,203.77 2400.69,203.65C2401.54,203.52 2403.42,211 2404.49,210.92C2405.53,210.85 2406.47,206.97 2407.05,203.65C2408.2,197.07 2405.97,179.21 2407.28,173.38C2407.85,170.85 2408.97,168.08 2409.68,168.19C2411.29,168.45 2411.3,190.83 2413.05,197.6C2414.03,201.37 2415.49,202.85 2416.56,206.1C2417.92,210.22 2418.95,216.1 2420.16,220.46C2421.19,224.16 2422.41,227.41 2423.28,230.65C2424.06,233.55 2424.2,238.27 2425.21,238.97C2425.62,239.26 2426.2,238.47 2426.63,238.79C2428.12,239.89 2428.72,249.48 2429.59,255.74C2430.66,263.42 2431.12,272.08 2432.28,281.52C2433.7,293.06 2436.11,306.9 2437.7,319.93C2439.34,333.37 2439.44,348.15 2441.95,360.97C2444.23,372.64 2448.96,383.11 2451.51,393.84C2453.91,403.9 2455.08,415.68 2457.03,423.43C2458.32,428.57 2459.7,432.63 2461.05,436.07C2462.02,438.55 2463.07,439.39 2463.99,442.3C2465.86,448.21 2467.4,459.74 2468.89,470.3C2470.81,483.9 2471.84,503.34 2473.91,517.21C2475.58,528.39 2477.67,537.03 2479.67,547.31C2481.77,558.12 2484.54,568.91 2486.25,580.54C2488.11,593.2 2488.78,606.76 2490.13,620.5C2491.57,635.14 2492.41,650.88 2494.62,665.86C2496.82,680.76 2500.92,698.21 2503.35,710.14C2505,718.25 2505.19,724.88 2507.65,730.55C2509.7,735.26 2513.54,736.99 2515.92,742.32C2519.81,751.02 2521.81,767.05 2524.59,779.69C2527.44,792.65 2530.74,806.24 2532.81,819.14C2534.77,831.37 2533.99,845.89 2536.87,855.14C2538.86,861.53 2541.75,864.95 2545.04,870.37C2549.08,877.01 2554.3,886.68 2559.75,891.83C2564.08,895.92 2571.12,897.63 2573.76,900.32C2575.22,901.8 2574.82,904.13 2576.29,904.64C2578.63,905.45 2584.16,898.91 2588.07,899.96C2593.9,901.53 2599.12,918.44 2605.47,922.1C2610.09,924.76 2615.92,920.98 2620.2,924.19C2627.08,929.35 2631.35,948.06 2635.99,959.15C2640.11,968.99 2641.79,979.93 2646.86,987.34C2651.15,993.61 2658.02,995.48 2662.85,1001.88C2669.16,1010.24 2673.92,1024.11 2679.22,1034.93C2684.32,1045.32 2689.02,1055.41 2694.08,1065.56C2699.14,1075.71 2704.25,1086.39 2709.59,1095.84C2714.5,1104.52 2721.13,1113.65 2724.75,1120.25Q2727.1,1124.53 2730,1131.16" style="vector-effect: non-scaling-stroke; fill: none; stroke: rgb(99, 110, 250); stroke-opacity: 1; stroke-width: 2px; opacity: 1;"/></g><g class="points"/><g class="text"/></g></g></g><g class="overplot"/><path class="xlines-above crisp" d="M0,0" style="fill: none;"/><path class="ylines-above crisp" d="M0,0" style="fill: none;"/><g class="overlines-above"/><g class="xaxislayer-above"><g class="xtick"><text text-anchor="middle" x="0" y="1373" transform="translate(457.36,0)" style="font-family: 'Open Sans', verdana, arial, sans-serif; font-size: 12px; fill: rgb(42, 63, 95); fill-opacity: 1; white-space: pre; opacity: 1;">20k</text></g><g class="xtick"><text text-anchor="middle" x="0" y="1373" style="font-family: 'Open Sans', verdana, arial, sans-serif; font-size: 12px; fill: rgb(42, 63, 95); fill-opacity: 1; white-space: pre; opacity: 1;" transform="translate(839.34,0)">40k</text></g><g class="xtick"><text text-anchor="middle" x="0" y="1373" style="font-family: 'Open Sans', verdana, arial, sans-serif; font-size: 12px; fill: rgb(42, 63, 95); fill-opacity: 1; white-space: pre; opacity: 1;" transform="translate(1221.32,0)">60k</text></g><g class="xtick"><text text-anchor="middle" x="0" y="1373" style="font-family: 'Open Sans', verdana, arial, sans-serif; font-size: 12px; fill: rgb(42, 63, 95); fill-opacity: 1; white-space: pre; opacity: 1;" transform="translate(1603.3,0)">80k</text></g><g class="xtick"><text text-anchor="middle" x="0" y="1373" style="font-family: 'Open Sans', verdana, arial, sans-serif; font-size: 12px; fill: rgb(42, 63, 95); fill-opacity: 1; white-space: pre; opacity: 1;" transform="translate(1985.29,0)">100k</text></g><g class="xtick"><text text-anchor="middle" x="0" y="1373" style="font-family: 'Open Sans', verdana, arial, sans-serif; font-size: 12px; fill: rgb(42, 63, 95); fill-opacity: 1; white-space: pre; opacity: 1;" transform="translate(2367.27,0)">120k</text></g><g class="xtick"><text text-anchor="middle" x="0" y="1373" style="font-family: 'Open Sans', verdana, arial, sans-serif; font-size: 12px; fill: rgb(42, 63, 95); fill-opacity: 1; white-space: pre; opacity: 1;" transform="translate(2749.25,0)">140k</text></g></g><g class="yaxislayer-above"><g class="ytick"><text text-anchor="end" x="79" y="4.199999999999999" transform="translate(0,1288)" style="font-family: 'Open Sans', verdana, arial, sans-serif; font-size: 12px; fill: rgb(42, 63, 95); fill-opacity: 1; white-space: pre; opacity: 1;">1500</text></g><g class="ytick"><text text-anchor="end" x="79" y="4.199999999999999" style="font-family: 'Open Sans', verdana, arial, sans-serif; font-size: 12px; fill: rgb(42, 63, 95); fill-opacity: 1; white-space: pre; opacity: 1;" transform="translate(0,1108)">2000</text></g><g class="ytick"><text text-anchor="end" x="79" y="4.199999999999999" style="font-family: 'Open Sans', verdana, arial, sans-serif; font-size: 12px; fill: rgb(42, 63, 95); fill-opacity: 1; white-space: pre; opacity: 1;" transform="translate(0,928)">2500</text></g><g class="ytick"><text text-anchor="end" x="79" y="4.199999999999999" style="font-family: 'Open Sans', verdana, arial, sans-serif; font-size: 12px; fill: rgb(42, 63, 95); fill-opacity: 1; white-space: pre; opacity: 1;" transform="translate(0,748)">3000</text></g><g class="ytick"><text text-anchor="end" x="79" y="4.199999999999999" style="font-family: 'Open Sans', verdana, arial, sans-serif; font-size: 12px; fill: rgb(42, 63, 95); fill-opacity: 1; white-space: pre; opacity: 1;" transform="translate(0,568)">3500</text></g><g class="ytick"><text text-anchor="end" x="79" y="4.199999999999999" style="font-family: 'Open Sans', verdana, arial, sans-serif; font-size: 12px; fill: rgb(42, 63, 95); fill-opacity: 1; white-space: pre; opacity: 1;" transform="translate(0,388)">4000</text></g><g class="ytick"><text text-anchor="end" x="79" y="4.199999999999999" style="font-family: 'Open Sans', verdana, arial, sans-serif; font-size: 12px; fill: rgb(42, 63, 95); fill-opacity: 1; white-space: pre; opacity: 1;" transform="translate(0,208)">4500</text></g></g><g class="overaxes-above"/></g></g><g class="polarlayer"/><g class="smithlayer"/><g class="ternarylayer"/><g class="geolayer"/><g class="funnelarealayer"/><g class="pielayer"/><g class="iciclelayer"/><g class="treemaplayer"/><g class="sunburstlayer"/><g class="glimages"/><defs id="topdefs-e03ec3"><g class="clips"/></defs><g class="layer-above"><g class="imagelayer"/><g class="shapelayer"><path data-index="0" fill-rule="evenodd" d="M2252.69,1360L2252.69,1297" clip-path="url(#clipe03ec3x)" style="opacity: 1; stroke: rgb(128, 128, 128); stroke-opacity: 1; fill: rgb(0, 0, 0); fill-opacity: 0; stroke-width: 1px;"/><path data-index="1" fill-rule="evenodd" d="M2266.81,1360L2266.81,1297" clip-path="url(#clipe03ec3x)" style="opacity: 1; stroke: rgb(128, 128, 128); stroke-opacity: 1; fill: rgb(0, 0, 0); fill-opacity: 0; stroke-width: 1px;"/><path data-index="2" fill-rule="evenodd" d="M2285.07,1360L2285.07,1297" clip-path="url(#clipe03ec3x)" style="opacity: 1; stroke: rgb(128, 128, 128); stroke-opacity: 1; fill: rgb(0, 0, 0); fill-opacity: 0; stroke-width: 1px;"/><path data-index="3" fill-rule="evenodd" d="M2334.64,1360L2334.64,1297" clip-path="url(#clipe03ec3x)" style="opacity: 1; stroke: rgb(128, 128, 128); stroke-opacity: 1; fill: rgb(0, 0, 0); fill-opacity: 0; stroke-width: 1px;"/><path data-index="4" fill-rule="evenodd" d="M2428,1360L2428,1297" clip-path="url(#clipe03ec3x)" style="opacity: 1; stroke: rgb(128, 128, 128); stroke-opacity: 1; fill: rgb(0, 0, 0); fill-opacity: 0; stroke-width: 1px;"/><path data-index="5" fill-rule="evenodd" d="M2668.07,1360L2668.07,1297" clip-path="url(#clipe03ec3x)" style="opacity: 1; stroke: rgb(128, 128, 128); stroke-opacity: 1; fill: rgb(0, 0, 0); fill-opacity: 0; stroke-width: 1px;"/><path data-index="6" fill-rule="evenodd" d="M295.56,1360L295.56,1297" clip-path="url(#clipe03ec3x)" style="opacity: 1; stroke: rgb(128, 128, 128); stroke-opacity: 1; fill: rgb(0, 0, 0); fill-opacity: 0; stroke-width: 1px;"/><path data-index="7" fill-rule="evenodd" d="M351.37,1360L351.37,1297" clip-path="url(#clipe03ec3x)" style="opacity: 1; stroke: rgb(128, 128, 128); stroke-opacity: 1; fill: rgb(0, 0, 0); fill-opacity: 0; stroke-width: 1px;"/><path data-index="8" fill-rule="evenodd" d="M361.47,1360L361.47,1297" clip-path="url(#clipe03ec3x)" style="opacity: 1; stroke: rgb(128, 128, 128); stroke-opacity: 1; fill: rgb(0, 0, 0); fill-opacity: 0; stroke-width: 1px;"/><path data-index="9" fill-rule="evenodd" d="M80.5,1360L80.5,1297" clip-path="url(#clipe03ec3x)" style="opacity: 1; stroke: rgb(128, 128, 128); stroke-opacity: 1; fill: rgb(0, 0, 0); fill-opacity: 0; stroke-width: 1px;"/><path data-index="10" fill-rule="evenodd" d="M798.34,1360L798.34,1297" clip-path="url(#clipe03ec3x)" style="opacity: 1; stroke: rgb(128, 128, 128); stroke-opacity: 1; fill: rgb(0, 0, 0); fill-opacity: 0; stroke-width: 1px;"/><path data-index="11" fill-rule="evenodd" d="M858.05,1360L858.05,1297" clip-path="url(#clipe03ec3x)" style="opacity: 1; stroke: rgb(128, 128, 128); stroke-opacity: 1; fill: rgb(0, 0, 0); fill-opacity: 0; stroke-width: 1px;"/><path data-index="12" fill-rule="evenodd" d="M979.5,1360L979.5,1297" clip-path="url(#clipe03ec3x)" style="opacity: 1; stroke: rgb(128, 128, 128); stroke-opacity: 1; fill: rgb(0, 0, 0); fill-opacity: 0; stroke-width: 1px;"/><path data-index="13" fill-rule="evenodd" d="M1043.6100000000001,1360L1043.6100000000001,1297" clip-path="url(#clipe03ec3x)" style="opacity: 1; stroke: rgb(128, 128, 128); stroke-opacity: 1; fill: rgb(0, 0, 0); fill-opacity: 0; stroke-width: 1px;"/><path data-index="14" fill-rule="evenodd" d="M1066.31,1360L1066.31,1297" clip-path="url(#clipe03ec3x)" style="opacity: 1; stroke: rgb(128, 128, 128); stroke-opacity: 1; fill: rgb(0, 0, 0); fill-opacity: 0; stroke-width: 1px;"/><path data-index="15" fill-rule="evenodd" d="M1276.38,1360L1276.38,1297" clip-path="url(#clipe03ec3x)" style="opacity: 1; stroke: rgb(128, 128, 128); stroke-opacity: 1; fill: rgb(0, 0, 0); fill-opacity: 0; stroke-width: 1px;"/><path data-index="16" fill-rule="evenodd" d="M1461.73,1360L1461.73,1297" clip-path="url(#clipe03ec3x)" style="opacity: 1; stroke: rgb(128, 128, 128); stroke-opacity: 1; fill: rgb(0, 0, 0); fill-opacity: 0; stroke-width: 1px;"/><path data-index="17" fill-rule="evenodd" d="M1485.61,1360L1485.61,1297" clip-path="url(#clipe03ec3x)" style="opacity: 1; stroke: rgb(128, 128, 128); stroke-opacity: 1; fill: rgb(0, 0, 0); fill-opacity: 0; stroke-width: 1px;"/><path data-index="18" fill-rule="evenodd" d="M1578.02,1360L1578.02,1297" clip-path="url(#clipe03ec3x)" style="opacity: 1; stroke: rgb(128, 128, 128); stroke-opacity: 1; fill: rgb(0, 0, 0); fill-opacity: 0; stroke-width: 1px;"/><path data-index="19" fill-rule="evenodd" d="M1614.06,1360L1614.06,1297" clip-path="url(#clipe03ec3x)" style="opacity: 1; stroke: rgb(128, 128, 128); stroke-opacity: 1; fill: rgb(0, 0, 0); fill-opacity: 0; stroke-width: 1px;"/><path data-index="20" fill-rule="evenodd" d="M1803.76,1360L1803.76,1297" clip-path="url(#clipe03ec3x)" style="opacity: 1; stroke: rgb(128, 128, 128); stroke-opacity: 1; fill: rgb(0, 0, 0); fill-opacity: 0; stroke-width: 1px;"/><path data-index="21" fill-rule="evenodd" d="M2105.71,1360L2105.71,1297" clip-path="url(#clipe03ec3x)" style="opacity: 1; stroke: rgb(128, 128, 128); stroke-opacity: 1; fill: rgb(0, 0, 0); fill-opacity: 0; stroke-width: 1px;"/><path data-index="22" fill-rule="evenodd" d="M1061.63,1360L1061.63,1297" clip-path="url(#clipe03ec3x)" style="opacity: 1; stroke: rgb(128, 128, 128); stroke-opacity: 1; fill: rgb(0, 0, 0); fill-opacity: 0; stroke-width: 1px;"/><path data-index="23" fill-rule="evenodd" d="M1414.95,1360L1414.95,1297" clip-path="url(#clipe03ec3x)" style="opacity: 1; stroke: rgb(128, 128, 128); stroke-opacity: 1; fill: rgb(0, 0, 0); fill-opacity: 0; stroke-width: 1px;"/><path data-index="24" fill-rule="evenodd" d="M1671.82,1360L1671.82,1297" clip-path="url(#clipe03ec3x)" style="opacity: 1; stroke: rgb(128, 128, 128); stroke-opacity: 1; fill: rgb(0, 0, 0); fill-opacity: 0; stroke-width: 1px;"/><path data-index="25" fill-rule="evenodd" d="M2484.49,1360L2484.49,1297" clip-path="url(#clipe03ec3x)" style="opacity: 1; stroke: rgb(128, 128, 128); stroke-opacity: 1; fill: rgb(0, 0, 0); fill-opacity: 0; stroke-width: 1px;"/><path data-index="26" fill-rule="evenodd" d="M2489.68,1360L2489.68,1297" clip-path="url(#clipe03ec3x)" style="opacity: 1; stroke: rgb(128, 128, 128); stroke-opacity: 1; fill: rgb(0, 0, 0); fill-opacity: 0; stroke-width: 1px;"/><path data-index="27" fill-rule="evenodd" d="M2517.7,1360L2517.7,1297" clip-path="url(#clipe03ec3x)" style="opacity: 1; stroke: rgb(128, 128, 128); stroke-opacity: 1; fill: rgb(0, 0, 0); fill-opacity: 0; stroke-width: 1px;"/></g></g><g class="infolayer"><g class="g-gtitle"/><g class="g-xtitle"/><g class="g-ytitle"/><g class="annotation" data-index="0" style="opacity: 1;"><g class="annotation-text-g" transform="rotate(0,2266.69,109.5)"><g class="cursor-pointer" transform="translate(2253,100)"><rect class="bg" x="0.5" y="0.5" width="27" height="18" style="stroke-width: 1px; stroke: rgb(0, 0, 0); stroke-opacity: 0; fill: rgb(0, 0, 0); fill-opacity: 0;"/><text class="annotation-text" text-anchor="middle" x="14.140625" y="14" style="font-family: 'Open Sans', verdana, arial, sans-serif; font-size: 12px; fill: rgb(42, 63, 95); fill-opacity: 1; white-space: pre;">16</text></g></g></g><g class="annotation" data-index="1" style="opacity: 1;"><g class="annotation-text-g" transform="rotate(0,2300.31,109.5)"><g class="cursor-pointer" transform="translate(2267,100)"><rect class="bg" x="0.5" y="0.5" width="66" height="18" style="stroke-width: 1px; stroke: rgb(0, 0, 0); stroke-opacity: 0; fill: rgb(0, 0, 0); fill-opacity: 0;"/><text class="annotation-text" text-anchor="middle" x="33.296875" y="14" style="font-family: 'Open Sans', verdana, arial, sans-serif; font-size: 12px; fill: rgb(42, 63, 95); fill-opacity: 1; white-space: pre;"></text></g></g></g><g class="annotation" data-index="2" style="opacity: 1;"><g class="annotation-text-g" transform="rotate(0,2364.57,109.5)"><g class="cursor-pointer" transform="translate(2285,100)"><rect class="bg" x="0.5" y="0.5" width="158" height="18" style="stroke-width: 1px; stroke: rgb(0, 0, 0); stroke-opacity: 0; fill: rgb(0, 0, 0); fill-opacity: 0;"/><text class="annotation-text" text-anchor="middle" x="79.09375" y="14" style="font-family: 'Open Sans', verdana, arial, sans-serif; font-size: 12px; fill: rgb(42, 63, 95); fill-opacity: 1; white-space: pre;"> + </text></g></g></g><g class="annotation" data-index="3" style="opacity: 1;"><g class="annotation-text-g" transform="rotate(0,2357.64,109.5)"><g class="cursor-pointer" transform="translate(2335,100)"><rect class="bg" x="0.5" y="0.5" width="45" height="18" style="stroke-width: 1px; stroke: rgb(0, 0, 0); stroke-opacity: 0; fill: rgb(0, 0, 0); fill-opacity: 0;"/><text class="annotation-text" text-anchor="middle" x="22.796875" y="14" style="font-family: 'Open Sans', verdana, arial, sans-serif; font-size: 12px; fill: rgb(42, 63, 95); fill-opacity: 1; white-space: pre;"></text></g></g></g><g class="annotation" data-index="4" style="opacity: 1;"><g class="annotation-text-g" transform="rotate(0,2442,109.5)"><g class="cursor-pointer" transform="translate(2428,100)"><rect class="bg" x="0.5" y="0.5" width="27" height="18" style="stroke-width: 1px; stroke: rgb(0, 0, 0); stroke-opacity: 0; fill: rgb(0, 0, 0); fill-opacity: 0;"/><text class="annotation-text" text-anchor="middle" x="14.140625" y="14" style="font-family: 'Open Sans', verdana, arial, sans-serif; font-size: 12px; fill: rgb(42, 63, 95); fill-opacity: 1; white-space: pre;">17</text></g></g></g><g class="annotation" data-index="5" style="opacity: 1;"><g class="annotation-text-g" transform="rotate(0,2682.07,109.5)"><g class="cursor-pointer" transform="translate(2668,100)"><rect class="bg" x="0.5" y="0.5" width="27" height="18" style="stroke-width: 1px; stroke: rgb(0, 0, 0); stroke-opacity: 0; fill: rgb(0, 0, 0); fill-opacity: 0;"/><text class="annotation-text" text-anchor="middle" x="14.140625" y="14" style="font-family: 'Open Sans', verdana, arial, sans-serif; font-size: 12px; fill: rgb(42, 63, 95); fill-opacity: 1; white-space: pre;">19</text></g></g></g><g class="annotation" data-index="6" style="opacity: 1;"><g class="annotation-text-g" transform="rotate(0,306.06,109.5)"><g class="cursor-pointer" transform="translate(296,100)"><rect class="bg" x="0.5" y="0.5" width="20" height="18" style="stroke-width: 1px; stroke: rgb(0, 0, 0); stroke-opacity: 0; fill: rgb(0, 0, 0); fill-opacity: 0;"/><text class="annotation-text" text-anchor="middle" x="10.328125" y="14" style="font-family: 'Open Sans', verdana, arial, sans-serif; font-size: 12px; fill: rgb(42, 63, 95); fill-opacity: 1; white-space: pre;">2</text></g></g></g><g class="annotation" data-index="7" style="opacity: 1;"><g class="annotation-text-g" transform="rotate(0,386.37,109.5)"><g class="cursor-pointer" transform="translate(351,100)"><rect class="bg" x="0.5" y="0.5" width="69" height="18" style="stroke-width: 1px; stroke: rgb(0, 0, 0); stroke-opacity: 0; fill: rgb(0, 0, 0); fill-opacity: 0;"/><text class="annotation-text" text-anchor="middle" x="34.453125" y="14" style="font-family: 'Open Sans', verdana, arial, sans-serif; font-size: 12px; fill: rgb(42, 63, 95); fill-opacity: 1; white-space: pre;"> </text></g></g></g><g class="annotation" data-index="8" style="opacity: 1;"><g class="annotation-text-g" transform="rotate(0,399.47,109.5)"><g class="cursor-pointer" transform="translate(361,100)"><rect class="bg" x="0.5" y="0.5" width="75" height="18" style="stroke-width: 1px; stroke: rgb(0, 0, 0); stroke-opacity: 0; fill: rgb(0, 0, 0); fill-opacity: 0;"/><text class="annotation-text" text-anchor="middle" x="37.890625" y="14" style="font-family: 'Open Sans', verdana, arial, sans-serif; font-size: 12px; fill: rgb(42, 63, 95); fill-opacity: 1; white-space: pre;">-</text></g></g></g><g class="annotation" data-index="9" style="opacity: 1;"><g class="annotation-text-g" transform="rotate(0,104,109.5)"><g class="cursor-pointer" transform="translate(81,100)"><rect class="bg" x="0.5" y="0.5" width="46" height="18" style="stroke-width: 1px; stroke: rgb(0, 0, 0); stroke-opacity: 0; fill: rgb(0, 0, 0); fill-opacity: 0;"/><text class="annotation-text" text-anchor="middle" x="23.5625" y="14" style="font-family: 'Open Sans', verdana, arial, sans-serif; font-size: 12px; fill: rgb(42, 63, 95); fill-opacity: 1; white-space: pre;">1+3</text></g></g></g><g class="annotation" data-index="10" style="opacity: 1;"><g class="annotation-text-g" transform="rotate(0,808.84,109.5)"><g class="cursor-pointer" transform="translate(798,100)"><rect class="bg" x="0.5" y="0.5" width="20" height="18" style="stroke-width: 1px; stroke: rgb(0, 0, 0); stroke-opacity: 0; fill: rgb(0, 0, 0); fill-opacity: 0;"/><text class="annotation-text" text-anchor="middle" x="10.328125" y="14" style="font-family: 'Open Sans', verdana, arial, sans-serif; font-size: 12px; fill: rgb(42, 63, 95); fill-opacity: 1; white-space: pre;">4</text></g></g></g><g class="annotation" data-index="11" style="opacity: 1;"><g class="annotation-text-g" transform="rotate(0,914.05,109.5)"><g class="cursor-pointer" transform="translate(858,100)"><rect class="bg" x="0.5" y="0.5" width="111" height="18" style="stroke-width: 1px; stroke: rgb(0, 0, 0); stroke-opacity: 0; fill: rgb(0, 0, 0); fill-opacity: 0;"/><text class="annotation-text" text-anchor="middle" x="56.0625" y="14" style="font-family: 'Open Sans', verdana, arial, sans-serif; font-size: 12px; fill: rgb(42, 63, 95); fill-opacity: 1; white-space: pre;">. + 5</text></g></g></g><g class="annotation" data-index="12" style="opacity: 1;"><g class="annotation-text-g" transform="rotate(0,990,109.5)"><g class="cursor-pointer" transform="translate(980,100)"><rect class="bg" x="0.5" y="0.5" width="20" height="18" style="stroke-width: 1px; stroke: rgb(0, 0, 0); stroke-opacity: 0; fill: rgb(0, 0, 0); fill-opacity: 0;"/><text class="annotation-text" text-anchor="middle" x="10.328125" y="14" style="font-family: 'Open Sans', verdana, arial, sans-serif; font-size: 12px; fill: rgb(42, 63, 95); fill-opacity: 1; white-space: pre;">6</text></g></g></g><g class="annotation" data-index="13" style="opacity: 1;"><g class="annotation-text-g" transform="rotate(0,1091.6100000000001,109.5)"><g class="cursor-pointer" transform="translate(1044,100)"><rect class="bg" x="0.5" y="0.5" width="95" height="18" style="stroke-width: 1px; stroke: rgb(0, 0, 0); stroke-opacity: 0; fill: rgb(0, 0, 0); fill-opacity: 0;"/><text class="annotation-text" text-anchor="middle" x="47.828125" y="14" style="font-family: 'Open Sans', verdana, arial, sans-serif; font-size: 12px; fill: rgb(42, 63, 95); fill-opacity: 1; white-space: pre;"> + 7</text></g></g></g><g class="annotation" data-index="14" style="opacity: 1;"><g class="annotation-text-g" transform="rotate(0,1076.81,109.5)"><g class="cursor-pointer" transform="translate(1066,100)"><rect class="bg" x="0.5" y="0.5" width="20" height="18" style="stroke-width: 1px; stroke: rgb(0, 0, 0); stroke-opacity: 0; fill: rgb(0, 0, 0); fill-opacity: 0;"/><text class="annotation-text" text-anchor="middle" x="10.328125" y="14" style="font-family: 'Open Sans', verdana, arial, sans-serif; font-size: 12px; fill: rgb(42, 63, 95); fill-opacity: 1; white-space: pre;">8</text></g></g></g><g class="annotation" data-index="15" style="opacity: 1;"><g class="annotation-text-g" transform="rotate(0,1286.88,109.5)"><g class="cursor-pointer" transform="translate(1276,100)"><rect class="bg" x="0.5" y="0.5" width="20" height="18" style="stroke-width: 1px; stroke: rgb(0, 0, 0); stroke-opacity: 0; fill: rgb(0, 0, 0); fill-opacity: 0;"/><text class="annotation-text" text-anchor="middle" x="10.328125" y="14" style="font-family: 'Open Sans', verdana, arial, sans-serif; font-size: 12px; fill: rgb(42, 63, 95); fill-opacity: 1; white-space: pre;">9</text></g></g></g><g class="annotation" data-index="16" style="opacity: 1;"><g class="annotation-text-g" transform="rotate(0,1475.73,109.5)"><g class="cursor-pointer" transform="translate(1462,100)"><rect class="bg" x="0.5" y="0.5" width="27" height="18" style="stroke-width: 1px; stroke: rgb(0, 0, 0); stroke-opacity: 0; fill: rgb(0, 0, 0); fill-opacity: 0;"/><text class="annotation-text" text-anchor="middle" x="14.140625" y="14" style="font-family: 'Open Sans', verdana, arial, sans-serif; font-size: 12px; fill: rgb(42, 63, 95); fill-opacity: 1; white-space: pre;">11</text></g></g></g><g class="annotation" data-index="17" style="opacity: 1;"><g class="annotation-text-g" transform="rotate(0,1526.61,109.5)"><g class="cursor-pointer" transform="translate(1486,100)"><rect class="bg" x="0.5" y="0.5" width="81" height="18" style="stroke-width: 1px; stroke: rgb(0, 0, 0); stroke-opacity: 0; fill: rgb(0, 0, 0); fill-opacity: 0;"/><text class="annotation-text" text-anchor="middle" x="41.203125" y="14" style="font-family: 'Open Sans', verdana, arial, sans-serif; font-size: 12px; fill: rgb(42, 63, 95); fill-opacity: 1; white-space: pre;"></text></g></g></g><g class="annotation" data-index="18" style="opacity: 1;"><g class="annotation-text-g" transform="rotate(0,1592.02,109.5)"><g class="cursor-pointer" transform="translate(1578,100)"><rect class="bg" x="0.5" y="0.5" width="27" height="18" style="stroke-width: 1px; stroke: rgb(0, 0, 0); stroke-opacity: 0; fill: rgb(0, 0, 0); fill-opacity: 0;"/><text class="annotation-text" text-anchor="middle" x="14.140625" y="14" style="font-family: 'Open Sans', verdana, arial, sans-serif; font-size: 12px; fill: rgb(42, 63, 95); fill-opacity: 1; white-space: pre;">12</text></g></g></g><g class="annotation" data-index="19" style="opacity: 1;"><g class="annotation-text-g" transform="rotate(0,1647.06,109.5)"><g class="cursor-pointer" transform="translate(1614,100)"><rect class="bg" x="0.5" y="0.5" width="65" height="18" style="stroke-width: 1px; stroke: rgb(0, 0, 0); stroke-opacity: 0; fill: rgb(0, 0, 0); fill-opacity: 0;"/><text class="annotation-text" text-anchor="middle" x="32.515625" y="14" style="font-family: 'Open Sans', verdana, arial, sans-serif; font-size: 12px; fill: rgb(42, 63, 95); fill-opacity: 1; white-space: pre;"></text></g></g></g><g class="annotation" data-index="20" style="opacity: 1;"><g class="annotation-text-g" transform="rotate(0,1818.26,109.5)"><g class="cursor-pointer" transform="translate(1804,100)"><rect class="bg" x="0.5" y="0.5" width="28" height="18" style="stroke-width: 1px; stroke: rgb(0, 0, 0); stroke-opacity: 0; fill: rgb(0, 0, 0); fill-opacity: 0;"/><text class="annotation-text" text-anchor="middle" x="14.140625" y="14" style="font-family: 'Open Sans', verdana, arial, sans-serif; font-size: 12px; fill: rgb(42, 63, 95); fill-opacity: 1; white-space: pre;">14</text></g></g></g><g class="annotation" data-index="21" style="opacity: 1;"><g class="annotation-text-g" transform="rotate(0,2119.71,109.5)"><g class="cursor-pointer" transform="translate(2106,100)"><rect class="bg" x="0.5" y="0.5" width="27" height="18" style="stroke-width: 1px; stroke: rgb(0, 0, 0); stroke-opacity: 0; fill: rgb(0, 0, 0); fill-opacity: 0;"/><text class="annotation-text" text-anchor="middle" x="14.140625" y="14" style="font-family: 'Open Sans', verdana, arial, sans-serif; font-size: 12px; fill: rgb(42, 63, 95); fill-opacity: 1; white-space: pre;">15</text></g></g></g><g class="annotation" data-index="22" style="opacity: 1;"><g class="annotation-text-g" transform="rotate(0,1080.63,109.5)"><g class="cursor-pointer" transform="translate(1062,100)"><rect class="bg" x="0.5" y="0.5" width="37" height="18" style="stroke-width: 1px; stroke: rgb(0, 0, 0); stroke-opacity: 0; fill: rgb(0, 0, 0); fill-opacity: 0;"/><text class="annotation-text" text-anchor="middle" x="18.5625" y="14" style="font-family: 'Open Sans', verdana, arial, sans-serif; font-size: 12px; fill: rgb(42, 63, 95); fill-opacity: 1; white-space: pre;"></text></g></g></g><g class="annotation" data-index="23" style="opacity: 1;"><g class="annotation-text-g" transform="rotate(0,1428.95,109.5)"><g class="cursor-pointer" transform="translate(1415,100)"><rect class="bg" x="0.5" y="0.5" width="27" height="18" style="stroke-width: 1px; stroke: rgb(0, 0, 0); stroke-opacity: 0; fill: rgb(0, 0, 0); fill-opacity: 0;"/><text class="annotation-text" text-anchor="middle" x="14.140625" y="14" style="font-family: 'Open Sans', verdana, arial, sans-serif; font-size: 12px; fill: rgb(42, 63, 95); fill-opacity: 1; white-space: pre;">10</text></g></g></g><g class="annotation" data-index="24" style="opacity: 1;"><g class="annotation-text-g" transform="rotate(0,1720.32,109.5)"><g class="cursor-pointer" transform="translate(1672,100)"><rect class="bg" x="0.5" y="0.5" width="96" height="18" style="stroke-width: 1px; stroke: rgb(0, 0, 0); stroke-opacity: 0; fill: rgb(0, 0, 0); fill-opacity: 0;"/><text class="annotation-text" text-anchor="middle" x="48.25" y="14" style="font-family: 'Open Sans', verdana, arial, sans-serif; font-size: 12px; fill: rgb(42, 63, 95); fill-opacity: 1; white-space: pre;"> + 13</text></g></g></g><g class="annotation" data-index="25" style="opacity: 1;"><g class="annotation-text-g" transform="rotate(0,2541.99,109.5)"><g class="cursor-pointer" transform="translate(2484,100)"><rect class="bg" x="0.5" y="0.5" width="114" height="18" style="stroke-width: 1px; stroke: rgb(0, 0, 0); stroke-opacity: 0; fill: rgb(0, 0, 0); fill-opacity: 0;"/><text class="annotation-text" text-anchor="middle" x="57.5" y="14" style="font-family: 'Open Sans', verdana, arial, sans-serif; font-size: 12px; fill: rgb(42, 63, 95); fill-opacity: 1; white-space: pre;">  + 18</text></g></g></g><g class="annotation" data-index="26" style="opacity: 1;"><g class="annotation-text-g" transform="rotate(0,2536.18,109.5)"><g class="cursor-pointer" transform="translate(2490,100)"><rect class="bg" x="0.5" y="0.5" width="92" height="18" style="stroke-width: 1px; stroke: rgb(0, 0, 0); stroke-opacity: 0; fill: rgb(0, 0, 0); fill-opacity: 0;"/><text class="annotation-text" text-anchor="middle" x="46.390625" y="14" style="font-family: 'Open Sans', verdana, arial, sans-serif; font-size: 12px; fill: rgb(42, 63, 95); fill-opacity: 1; white-space: pre;"> 2 </text></g></g></g><g class="annotation" data-index="27" style="opacity: 1;"><g class="annotation-text-g" transform="rotate(0,2558.2,109.5)"><g class="cursor-pointer" transform="translate(2518,100)"><rect class="bg" x="0.5" y="0.5" width="80" height="18" style="stroke-width: 1px; stroke: rgb(0, 0, 0); stroke-opacity: 0; fill: rgb(0, 0, 0); fill-opacity: 0;"/><text class="annotation-text" text-anchor="middle" x="40.703125" y="14" style="font-family: 'Open Sans', verdana, arial, sans-serif; font-size: 12px; fill: rgb(42, 63, 95); fill-opacity: 1; white-space: pre;"></text></g></g></g></g></svg>