<svg class="main-svg" xmlns="http://www.w3.org/2000/svg" xmlns:xlink="http://www.w3.org/1999/xlink" width="2440" height="1440" style="" viewBox="0 0 2440 1440"><rect x="0" y="0" width="2440" height="1440" style="fill: rgb(255, 255, 255); fill-opacity: 1;"/><defs id="defs-0435b9"><g class="clips"><clipPath id="clip0435b9xyplot" class="plotclip"><rect width="2280" height="1260"/></clipPath><clipPath class="axesclip" id="clip0435b9x"><rect x="80" y="0" width="2280" height="1440"/></clipPath><clipPath class="axesclip" id="clip0435b9y"><rect x="0" y="100" width="2440" height="1260"/></clipPath><clipPath class="axesclip" id="clip0435b9xy"><rect x="80" y="100" width="2280" height="1260"/></clipPath></g><g class="gradients"/><g class="patterns"/></defs><g class="bglayer"><rect class="bg" x="80" y="100" width="2280" height="1260" style="fill: rgb(229, 236, 246); fill-opacity: 1; stroke-width: 0;"/></g><g class="layer-below"><g class="imagelayer"/><g class="shapelayer"/></g><g class="cartesianlayer"><g class="subplot xy"><g class="layer-subplot"><g class="shapelayer"/><g class="imagelayer"/></g><g class="minor-gridlayer"><g class="x"/><g class="y"/></g><g class="gridlayer"><g class="x"><path class="xgrid crisp" transform="translate(395.23,0)" d="M0,100v1260" style="stroke: rgb(255, 255, 255); stroke-opacity: 1; stroke-width: 1px;"/><path class="xgrid crisp" transform="translate(714.23,0)" d="M0,100v1260" style="stroke: rgb(255, 255, 255); stroke-opacity: 1; stroke-width: 1px;"/><path class="xgrid crisp" transform="translate(1033.24,0)" d="M0,100v1260" style="stroke: rgb(255, 255, 255); stroke-opacity: 1; stroke-width: 1px;"/><path class="xgrid crisp" transform="translate(1352.25,0)" d="M0,100v1260" style="stroke: rgb(255, 255, 255); stroke-opacity: 1; stroke-width: 1px;"/><path class="xgrid crisp" transform="translate(1671.25,0)" d="M0,100v1260" style="stroke: rgb(255, 255, 255); stroke-opacity: 1; stroke-width: 1px;"/><path class="xgrid crisp" transform="translate(1990.26,0)" d="M0,100v1260" style="stroke: rgb(255, 255, 255); stroke-opacity: 1; stroke-width: 1px;"/><path class="xgrid crisp" transform="translate(2309.27,0)" d="M0,100v1260" style="stroke: rgb(255, 255, 255); stroke-opacity: 1; stroke-width: 1px;"/></g><g class="y"><path class="ygrid crisp" transform="translate(0,1226.07)" d="M80,0h2280" style="stroke: rgb(255, 255, 255); stroke-opacity: 1; stroke-width: 1px;"/><path class="ygrid crisp" transform="translate(0,1092.1399999999999)" d="M80,0h2280" style="stroke: rgb(255, 255, 255); stroke-opacity: 1; stroke-width: 1px;"/><path class="ygrid crisp" transform="translate(0,958.21)" d="M80,0h2280" style="stroke: rgb(255, 255, 255); stroke-opacity: 1; stroke-width: 1px;"/><path class="ygrid crisp" transform="translate(0,824.29)" d="M80,0h2280" style="stroke: rgb(255, 255, 255); stroke-opacity: 1; stroke-width: 1px;"/><path class="ygrid crisp" transform="translate(0,690.36)" d="M80,0h2280" style="stroke: rgb(255, 255, 255); stroke-opacity: 1; stroke-width: 1px;"/><path class="ygrid crisp" transform="translate(0,556.4300000000001)" d="M80,0h2280" style="stroke: rgb(255, 255, 255); stroke-opacity: 1; stroke-width: 1px;"/><path class="ygrid crisp" transform="translate(0,422.5)" d="M80,0h2280" style="stroke: rgb(255, 255, 255); stroke-opacity: 1; stroke-width: 1px;"/><path class="ygrid crisp" transform="translate(0,288.57)" d="M80,0h2280" style="stroke: rgb(255, 255, 255); stroke-opacity: 1; stroke-width: 1px;"/><path class="ygrid crisp" transform="translate(0,154.64)" d="M80,0h2280" style="stroke: rgb(255, 255, 255); stroke-opacity: 1; stroke-width: 1px;"/></g></g><g class="zerolinelayer"><path class="yzl zl crisp" transform="translate(0,1360)" d="M80,0h2280" style="stroke: rgb(255, 255, 255); stroke-opacity: 1; stroke-width: 2px;"/></g><path class="xlines-below"/><path class="ylines-below"/><g class="overlines-below"/><g class="xaxislayer-below"/><g class="yaxislayer-below"/><g class="overaxes-below"/><g class="plot" transform="translate(80,100)" clip-path="url(#clip0435b9xyplot)"><g class="scatterlayer mlayer"><g class="trace scatter trace3bc4be" style="stroke-miterlimit: 2;"><g class="fills"><g><path class="js-fill" d="M2280,1260L0.5,1260L0.5,765.32Q3.18,772.53 4.58,772.66C5.7,772.76 6.96,770.08 8.01,768.54C9.17,766.85 10.22,764.78 11.14,762.86C12.03,761 12.78,759.27 13.47,757.21C14.26,754.85 14.71,751.72 15.51,749.46C16.16,747.62 17.11,746.38 17.7,744.59C18.37,742.57 18.52,739.99 19.16,737.89C19.75,735.93 20.62,734.11 21.33,732.35C21.99,730.73 22.39,729.12 23.28,727.71C24.18,726.28 25.46,725.11 26.71,723.86C28.04,722.53 29.63,720.55 31.08,720C32.15,719.59 33.02,720.05 34.28,720C36.11,719.93 38.95,719.09 40.98,719.49C42.85,719.86 44.74,722.4 46.08,722.06C47.32,721.75 48.05,719.61 48.9,718.07C49.9,716.25 50.54,713.41 51.5,711.75C52.21,710.52 53.1,710 53.8,708.8C54.71,707.24 55.33,704.77 56.23,702.99C57.05,701.36 57.61,699.66 58.92,698.49C60.37,697.19 63.24,696.91 64.77,695.79C66.02,694.87 67.02,693.85 67.68,692.57C68.38,691.21 68.44,689.51 68.76,687.8C69.13,685.82 68.87,682.45 69.73,681.38C70.23,680.76 71.1,681.09 71.76,680.6C72.72,679.88 73.74,678.46 74.55,676.98C75.59,675.1 76.35,672.4 77.1,670.04C77.86,667.65 78.24,664.74 79.09,662.71C79.75,661.13 80.6,660.16 81.41,658.71C82.35,657.02 82.64,654.61 84.36,653.17C86.73,651.2 92.05,649.58 95.67,649.58C99.01,649.58 102.59,653.72 105.29,652.66C108.65,651.34 109.99,643.27 113,639C116.03,634.69 120.1,630.17 123.42,626.92C126.01,624.38 128.28,623.03 130.91,620.73C134.01,618.02 137.42,613.93 140.76,611.6C143.6,609.62 146.83,608.69 149.42,607.21C151.64,605.94 153.52,605.42 155.41,603.35C158.37,600.11 161.58,592.67 163.52,587.89C165.08,584.04 165.13,579.44 166.7,577.07C167.73,575.51 169.44,575.71 170.44,573.99C172.34,570.71 171.49,561.45 173.41,556.61C175,552.61 178.31,546.21 180.11,546.56C182.73,547.08 182.32,570.46 185.17,571.69C186.5,572.26 188.55,570.64 189.93,568.71C192.96,564.47 193.94,550.8 196.09,542.46C198.07,534.78 200.07,527.4 202.25,520.45C204.25,514.07 206.98,508.03 208.56,502.29C209.94,497.28 210.6,493.23 211.52,487.98C212.64,481.61 213.56,473.78 214.6,466.74C215.63,459.79 216.65,452.84 217.73,446.01C218.78,439.33 220.02,433.07 220.99,426.19C222.04,418.78 223.05,409.84 223.74,403.02C224.29,397.65 224.47,393.44 224.96,388.61C225.46,383.7 225.98,378.34 226.71,373.79C227.34,369.85 228.31,366.84 228.92,362.84C229.64,358.06 229.97,352.19 230.53,347.01C231.07,342.02 231.58,337.24 232.23,332.33C232.88,327.37 233.95,322.19 234.44,317.41C234.89,313.03 233.85,305.22 235.15,304.77C236.13,304.43 238.56,307.28 239.88,310.18C242.87,316.73 242.92,334.12 244.96,346.63C247.15,360 250.65,373.42 252.72,387.96C255,403.98 255.55,423.16 257.66,438.8C259.49,452.32 261.42,465.11 264.19,476.41C266.53,485.97 269.98,493.98 272.49,502.42C274.85,510.34 276.94,517.82 278.9,525.59C280.85,533.36 282,541.05 284.22,549.03C286.6,557.59 289.86,567.92 292.91,575.28C295.24,580.9 297.31,584.96 300.15,589.71C303.17,594.76 306.92,601.24 310.66,604.63C313.42,607.13 316.71,607.24 319.32,609.54C322.32,612.18 323.97,618.32 327.23,620.09C330.06,621.62 334.08,619.56 337.14,620.73C340.44,621.98 343.52,624.46 346.2,627.8C349.82,632.29 351.51,642.76 355.22,646.61C357.75,649.23 360.5,650.45 363.78,651.11C367.63,651.89 373.98,647.55 377.09,649.96C381.8,653.61 378.57,671.91 382.15,680.09C385.11,686.85 390.46,691.44 394.9,696.56C399.13,701.45 403.97,706.04 408.11,710.2C411.69,713.8 415.08,718.88 418.25,720.13C420.28,720.93 422.36,718.73 424.09,720C428.01,722.86 430.71,739.94 432.56,748.71C434.08,755.9 434.4,768.28 435.14,768.67C435.23,768.72 435.24,768.6 435.4,768.54C436.53,768.1 445.44,762.74 449.65,764.41C455.42,766.7 459,780.98 463.89,788.49C468.42,795.46 473.8,803.11 477.85,808.07C480.55,811.38 483.42,815.75 485.14,815.92C485.96,816 486.45,815.39 487.11,814.5C488.79,812.22 490.38,804.2 492.11,799.42C493.71,795 495.33,786.89 497.08,786.8C498.61,786.72 500.24,795.8 501.88,796.07C502.97,796.25 503.89,793.01 505.19,792.86C506.71,792.68 508.96,794.13 510.55,796.07C513.4,799.55 514.35,809.33 517.23,814.88C519.83,819.88 523.91,825.21 526.61,828.13C528.21,829.86 529.84,832.11 530.96,831.75C532.53,831.24 532.9,824.59 533.7,820.93C534.51,817.21 535.11,813.31 535.79,809.6C536.44,806.02 537.12,802.89 537.7,799.04C538.4,794.45 538.79,788.38 539.57,783.86C540.21,780.15 541.2,777.42 541.82,773.81C542.53,769.68 542.86,764.61 543.46,760.42C544,756.69 544.69,753.94 545.2,749.87C545.9,744.36 546.36,736.37 546.93,730.29C547.43,724.98 547.94,720.43 548.4,715.37C548.87,710.14 549.17,704.4 549.72,699.4C550.21,694.94 550.8,686.82 551.47,686.79C551.96,686.77 552.48,693.45 553.07,693.48C553.55,693.51 554.06,690.77 554.63,689.22C555.32,687.35 556.19,685.19 556.9,683.04C557.66,680.74 558.3,678.38 559.02,675.83C559.83,672.97 559.85,668.32 561.48,666.7C562.67,665.52 564.94,666.58 566.33,665.41C568.42,663.65 569.53,658.37 571.04,655.1C572.41,652.13 573.52,649.42 575.01,646.61C576.57,643.67 578.43,640.31 580.25,637.85C581.75,635.82 583.65,634.87 584.9,632.71C586.44,630.04 587.35,625.81 588.13,622.66C588.8,619.94 588.92,617.18 589.49,614.95C589.94,613.19 590.37,611.52 591.05,610.31C591.57,609.38 592.29,609.07 592.91,608.12C593.81,606.73 595,604.7 595.6,602.57C596.32,599.99 595.37,595.6 596.46,593.57C597.23,592.14 599.05,592.27 599.99,590.73C601.61,588.07 601.76,582.15 602.71,577.47C603.78,572.22 604.81,565.8 606.08,560.73C607.16,556.42 608.55,553.18 609.63,548.89C610.88,543.9 612.03,538.39 612.97,532.53C614.05,525.82 614.61,517.54 615.51,510.78C616.3,504.86 616.86,498.94 617.99,494.17C618.88,490.44 620.34,488.1 621.21,484.39C622.31,479.7 622.88,473.63 623.57,468.16C624.27,462.6 624.76,456.59 625.37,451.29C625.91,446.56 626.45,442.34 627.03,437.89C627.61,433.46 628.12,429.25 628.87,424.63C629.7,419.55 630.76,413.3 631.85,408.67C632.7,405.03 633.81,402.47 634.58,399.03C635.45,395.16 636.06,390.89 636.65,386.54C637.29,381.82 637.79,376.43 638.23,371.73C638.63,367.46 638.82,362.87 639.21,359.49C639.49,357.08 639.86,355.79 640.15,353.33C640.57,349.7 640.82,343.88 641.24,339.8C641.58,336.42 642.03,333.74 642.38,330.54C642.76,327.11 643.01,323.34 643.42,319.85C643.81,316.48 644.35,313.37 644.78,309.94C645.24,306.26 645.55,302.26 646.06,298.47C646.56,294.71 647,290.31 647.8,287.28C648.37,285.12 649.13,281.85 649.86,281.87C650.86,281.9 652.01,287.99 653.13,292.18C654.82,298.49 657.03,308.72 658.38,316.23C659.55,322.76 659.28,329.92 661,334.66C662.22,338.03 664.71,342.81 665.96,342.64C667.18,342.48 667.65,337.23 668.48,334.13C669.47,330.44 670.52,326.2 671.4,321.91C672.37,317.19 673.16,311.94 673.96,306.96C674.76,301.99 675.65,296.99 676.2,292.04C676.74,287.17 676.77,281.9 677.24,277.47C677.63,273.74 677.7,270.29 678.68,267.19C679.57,264.38 681.43,259.41 682.58,259.58C684.55,259.87 685.76,275.82 687.18,284.3C688.67,293.23 689.88,302.85 691.28,311.87C692.63,320.57 694.3,329.64 695.43,337.47C696.39,344.07 696.49,350.1 697.77,355.77C698.93,360.89 701.13,364.5 702.46,370.07C704.23,377.52 704.06,395.8 706.5,396.7C707.54,397.09 709.01,394.77 710.23,393.48C711.68,391.95 713.11,389.66 714.5,387.96C715.74,386.43 717.04,383.53 718.14,383.71C719.64,383.96 720.47,393.2 722.02,393.38C723.38,393.54 725.34,389.3 726.7,386.79C728.26,383.91 729.35,380.05 730.56,376.88C731.67,373.98 732.44,370.97 733.72,368.52C734.85,366.37 736.45,365.05 737.64,362.84C739.09,360.17 740.08,355.64 741.48,353.44C742.38,352.03 743.56,351.82 744.32,350.36C745.52,348.05 744.93,342.35 746.5,340.18C747.64,338.59 749.92,338.95 751.28,337.37C753.28,335.05 754.33,330.34 755.8,326.28C757.53,321.5 759.06,315.28 760.83,310.45C762.37,306.25 764.03,302.55 765.66,298.85C767.18,295.4 769.07,293 770.29,288.94C772.03,283.17 772.34,272.59 773.57,267.05C774.34,263.58 775.48,261.71 776.05,258.7C776.69,255.3 776.63,250.62 776.98,247.61C777.22,245.52 777.44,244.21 777.77,242.33C778.15,240.14 778.66,237.8 779.16,235.26C779.75,232.29 780.45,229 781.1,225.59C781.83,221.79 781.74,215.87 783.32,213.51C784.28,212.07 786.03,212.56 787.12,211.04C789.3,208 790.07,198.62 791.61,193.55C792.82,189.56 793.89,186.41 795.33,183C796.75,179.63 799.03,176.47 800.17,173.2C801.21,170.2 801.24,166.93 802.09,164.2C802.84,161.8 804.19,160.32 804.83,157.63C805.75,153.77 805.58,147.73 805.93,142.96C806.27,138.43 806.57,134.06 806.91,129.7C807.24,125.47 807.63,121.49 807.92,117.19C808.23,112.62 808.31,107 808.67,103.04C808.93,100.15 809.38,98.58 809.63,95.57C810.01,90.99 809.9,82.13 810.28,78.19C810.48,76.14 810.8,75.42 811,73.55C811.3,70.75 811.35,63.01 811.65,63C811.9,62.99 812.11,67.54 812.57,70.21C813.16,73.6 814.35,76.95 815.08,81.67C816.24,89.12 816.87,102.29 817.77,110.76C818.47,117.34 818.5,123.66 819.87,128.28C820.84,131.56 822.95,132.95 823.79,136.26C824.99,140.98 822.86,151.96 824.53,154.39C825.21,155.38 826.45,154.67 827.26,155.57C828.93,157.42 830.03,163.15 831.07,167.54C832.29,172.7 832.78,178.86 833.75,184.66C834.76,190.66 835.97,196.77 837.02,202.96C838.1,209.31 838.28,217.18 840.13,222.27C841.48,225.99 844.02,227.77 845.5,231.27C847.31,235.54 848.11,241.21 849.56,246.32C851.07,251.67 852.56,256.87 854.41,262.69C856.56,269.45 859.6,276.29 861.79,284.44C864.48,294.49 866.29,307.99 868.62,318.7C870.69,328.22 873.05,336.22 874.96,345.59C877.03,355.71 877.74,371.07 880.47,377.38C881.81,380.47 883.23,381.72 885.13,383.57C887.18,385.58 890.54,386.21 892.5,388.85C895.11,392.38 895.35,399.3 897.66,404.17C900,409.1 903.7,413.84 906.49,418.21C908.96,422.06 910.42,426.85 913.54,429.03C916.38,431.02 921.03,429.24 923.98,431.46C927.82,434.35 930.65,442.42 932.81,447.29C934.53,451.16 935.48,453.49 936.49,458.12C938.18,465.86 937.46,482.53 939.75,489.91C941.09,494.24 943.26,497.17 945.02,499.58C946.24,501.26 947.04,502.95 948.7,503.44C950.85,504.07 954.7,500.32 957.32,501.38C961.05,502.89 963.39,512.99 966.96,516.56C969.67,519.27 973.15,519.67 975.7,522.11C978.47,524.76 980.63,529.81 982.71,532.15C984.02,533.62 985.23,535.61 986.32,535.37C987.9,535.02 989.83,528.46 990.37,526.1C990.68,524.74 989.78,523.43 990.49,522.75C991.64,521.65 996.98,521.5 999.22,522.88C1001.72,524.43 1002.07,529.33 1004.24,532.53C1006.75,536.24 1010.49,539.79 1013.75,543.62C1017.24,547.72 1021,551.83 1024.52,556.37C1028.29,561.23 1032.22,566.87 1035.58,571.93C1038.65,576.55 1041.11,581.26 1043.97,585.46C1046.6,589.33 1049.88,591.89 1052.03,596.28C1054.68,601.7 1054.17,612.38 1057.5,616.1C1059.79,618.66 1063.9,617.31 1066.5,619.69C1070.13,623.01 1072.18,630.61 1075.04,636.56C1078.19,643.12 1081.58,650.46 1084.54,657.43C1087.45,664.28 1089.58,671.57 1092.66,678.03C1095.57,684.14 1099.15,694.41 1102.38,695.28C1104.21,695.77 1105.96,693.32 1107.87,692.06C1110.12,690.59 1113.05,686.19 1114.95,686.89C1118.1,688.04 1119.16,710.22 1120.64,710.2C1121.67,710.19 1122.38,703.01 1123.13,698.76C1124.07,693.48 1124.91,686.63 1125.59,680.87C1126.23,675.5 1126.64,670.57 1127.14,665.28C1127.65,659.8 1128.14,654.05 1128.61,648.54C1129.07,643.15 1129.47,637.83 1129.93,632.57C1130.38,627.44 1130.9,622.52 1131.32,617.38C1131.75,612.1 1132.09,606.44 1132.47,601.29C1132.82,596.52 1133.05,592 1133.51,587.52C1133.95,583.22 1134.65,579.36 1135.12,574.9C1135.65,569.9 1136.02,563.93 1136.44,558.94C1136.81,554.52 1137.17,550.96 1137.52,546.46C1137.93,541.17 1138.33,534.8 1138.71,529.18C1139.07,523.82 1139.38,518.93 1139.74,513.48C1140.14,507.56 1140.46,500.78 1141,494.95C1141.49,489.73 1142.24,485.14 1142.76,480.13C1143.29,475 1143.64,469.62 1144.14,464.54C1144.62,459.68 1145.14,455.21 1145.68,450.27C1146.26,444.94 1146.98,439.17 1147.5,433.66C1148.02,428.22 1148.12,422.18 1148.8,417.43C1149.34,413.66 1150.45,410.92 1150.88,407.38C1151.36,403.5 1150.12,397.04 1151.37,395.04C1151.99,394.05 1153.33,394.65 1154.01,393.62C1155.58,391.25 1154.82,382.41 1155.49,377.65C1156.04,373.76 1156.32,369.68 1157.48,367.1C1158.28,365.33 1159.8,365.02 1160.57,363.11C1161.92,359.75 1161.66,352.76 1162.23,347.65C1162.79,342.63 1162.96,337.33 1163.93,332.73C1164.8,328.61 1166.07,322.13 1167.52,321.27C1168.09,320.93 1168.86,322.02 1169.35,321.64C1170.92,320.42 1169.95,308.11 1170.27,302.33C1170.53,297.61 1170.8,293.57 1171.1,289.47C1171.37,285.71 1171.53,282.42 1171.97,278.65C1172.45,274.5 1172.94,268.36 1173.95,265.63C1174.47,264.23 1175.2,264.06 1175.78,262.69C1176.86,260.12 1177.71,253.49 1178.65,250.85C1179.15,249.44 1179.68,247.67 1180.13,247.74C1181.2,247.91 1181.8,260.16 1182.6,267.19C1183.54,275.48 1183.99,284.76 1185.32,294.35C1186.83,305.28 1189.69,317.23 1191.51,329.25C1193.43,341.99 1194.36,361.55 1196.45,368.76C1197.29,371.66 1198.09,372.48 1199.19,374.57C1200.55,377.16 1202.86,379.9 1204.14,383.06C1205.55,386.56 1206.08,390.93 1207.01,394.77C1207.9,398.48 1208.43,402.26 1209.61,405.72C1210.74,409.03 1212.46,412.27 1213.85,415.13C1215.05,417.6 1216.29,419.6 1217.39,421.93C1218.52,424.31 1219.11,427.71 1220.52,429.29C1221.54,430.43 1223.07,431.75 1224.17,431.33C1226.24,430.54 1227.34,421.49 1229.08,417.19C1230.59,413.44 1232.26,409.55 1233.84,406.88C1234.95,405.01 1236.14,404.07 1237.14,402.38C1238.26,400.48 1239.01,398.14 1240.12,395.95C1241.32,393.59 1243.22,390.69 1244.12,388.71C1244.71,387.41 1244.64,386.65 1245.34,385.37C1246.49,383.28 1249.61,380.95 1251.13,377.79C1253.1,373.7 1253.59,367.37 1255.01,362.33C1256.39,357.42 1258.29,352.94 1259.49,347.92C1260.76,342.62 1261.59,336.69 1262.34,331.31C1263.04,326.28 1263.32,321.37 1263.91,316.63C1264.46,312.16 1264.75,307.91 1265.74,303.62C1266.75,299.24 1268.78,295.09 1269.98,290.63C1271.22,286.04 1272.27,281.57 1273.03,276.46C1273.9,270.58 1273.82,262.73 1274.6,257.28C1275.19,253.18 1275.98,250.01 1276.8,246.59C1277.57,243.38 1278.17,238.86 1279.33,237.32C1279.89,236.58 1280.71,235.91 1281.23,236.17C1282.63,236.87 1282.38,246.94 1282.84,252.38C1283.3,257.88 1283.49,263.55 1283.98,268.98C1284.45,274.23 1285.17,278.81 1285.71,284.44C1286.36,291.21 1286.37,300.38 1287.53,306.83C1288.44,311.89 1290.01,320.11 1291.29,320.12C1292.54,320.13 1293.75,311.68 1295.13,307.47C1296.52,303.22 1297.95,298.37 1299.59,294.75C1300.9,291.86 1302.71,289.99 1303.8,287.28C1304.96,284.4 1305.45,281.41 1306.23,277.88C1307.22,273.41 1308.38,267.26 1309.05,262.55C1309.62,258.58 1309.23,253.97 1310.17,251.49C1310.72,250.04 1311.65,249.46 1312.41,248.38C1313.22,247.23 1314.27,246.36 1314.91,244.79C1315.84,242.5 1315.87,238.87 1316.44,235.53C1317.11,231.59 1317.37,223.68 1318.72,222.64C1319.2,222.27 1319.93,223.19 1320.4,222.78C1322.29,221.12 1321.29,202.87 1321.58,195.35C1321.78,190.1 1321.17,185.04 1322.04,181.96C1322.55,180.15 1323.65,179.78 1324.31,177.96C1325.48,174.69 1326.01,163.42 1326.86,163.42C1327.73,163.42 1328.82,172.67 1329.47,178.74C1330.4,187.47 1329.89,201.5 1330.87,210.91C1331.65,218.35 1332.19,224.47 1334.17,230.76C1336.12,236.95 1340.17,241.82 1342.6,248.38C1345.45,256.07 1346.67,268.13 1349.61,274.26C1351.46,278.13 1353.66,279.88 1355.89,282.88C1358.36,286.21 1361.79,288.68 1363.8,293.33C1366.77,300.21 1367.28,312.05 1368.56,321.64C1369.87,331.44 1370.59,342 1371.52,351.51C1372.37,360.21 1372.96,368.65 1373.95,376.5C1374.84,383.54 1375.97,390.17 1377.04,396.46C1378.01,402.12 1379.01,407.48 1380.05,412.55C1380.99,417.12 1382.11,420.95 1382.96,425.54C1383.9,430.63 1384.35,436.64 1385.35,441.78C1386.27,446.51 1387.68,450.31 1388.61,455.28C1389.73,461.29 1390.22,469.44 1391.3,475.37C1392.17,480.16 1393.48,483.89 1394.29,488.25C1395.12,492.69 1395.49,497.01 1396.21,501.78C1397.02,507.15 1397.49,513.19 1398.93,518.89C1400.43,524.86 1403.4,530.48 1405.19,536.79C1407.13,543.63 1407.77,552.83 1409.99,558.54C1411.58,562.63 1414.15,564.63 1415.7,568.45C1417.56,573.03 1417.79,579.38 1419.76,584.41C1421.7,589.37 1425.46,593.39 1427.36,598.45C1429.36,603.78 1430.43,610.66 1431.27,615.7C1431.92,619.56 1431.06,622.94 1432.4,626.01C1433.79,629.18 1437.47,631.43 1439.66,634.37C1441.83,637.28 1443.55,641.57 1445.5,643.53C1446.75,644.79 1448.03,644.97 1449.26,645.96C1450.67,647.1 1451.86,648.76 1453.42,650.09C1455.15,651.56 1457.53,652.17 1459.27,654.32C1461.85,657.51 1462.42,664.87 1465.63,668.76C1468.81,672.62 1474.6,674.27 1478.39,677.63C1482.08,680.9 1484.53,686.17 1488.15,688.58C1491.24,690.64 1494.85,690.25 1498.22,692.06C1502.28,694.24 1506.02,699.47 1510.47,701.46C1514.7,703.35 1519.77,702.82 1524.14,704.04C1528.34,705.21 1532.22,708.83 1536.22,708.54C1540.42,708.24 1544.84,700.78 1548.71,701.71C1553.76,702.93 1558.17,714.81 1562.35,721.79C1566.6,728.88 1570.48,737.4 1573.96,743.95C1576.75,749.2 1577.98,755.35 1581.56,758.09C1584.65,760.45 1589.59,761.15 1593.15,760.79C1596.38,760.46 1599.51,758.93 1602.08,756.7C1605.12,754.05 1606.81,748.17 1609.49,745.1C1611.68,742.6 1614.19,742.1 1616.48,739.18C1620.21,734.43 1623.59,717.73 1627.36,717.43C1630.46,717.18 1633.77,730.56 1636.95,730.79C1639.59,730.98 1642.2,725.5 1644.84,722.57C1647.69,719.4 1650.1,714.55 1653.41,712.39C1656.29,710.51 1659.95,710.48 1663.08,709.55C1666.03,708.68 1669.16,708.41 1671.68,706.98C1674.17,705.57 1675.76,702.09 1678.12,701.06C1680.19,700.16 1683.28,699.68 1684.83,700.55C1686.23,701.34 1686.33,705.42 1687.33,705.46C1688.57,705.51 1690.72,701.17 1691.82,698.12C1693.32,693.96 1693.23,688.25 1694.1,682.26C1695.23,674.44 1695.93,663.63 1698.03,655.23C1699.95,647.55 1702.02,637.26 1705.77,633.72C1708.06,631.56 1711.68,633.17 1713.93,631.29C1716.81,628.88 1717.99,622.68 1720.23,618.8C1722.31,615.21 1724.72,612.25 1726.83,608.76C1729.03,605.14 1731.06,601.6 1733.14,597.43C1735.57,592.56 1738.29,586.4 1740.31,581.2C1742.11,576.56 1743.42,572.22 1744.83,567.8C1746.19,563.51 1747.7,559.92 1748.64,555.05C1749.84,548.81 1749.71,540.38 1750.61,533.3C1751.47,526.49 1752.86,519.29 1753.86,513.35C1754.66,508.56 1755.31,504.89 1756.1,500.36C1756.96,495.4 1757.65,489.56 1758.84,484.77C1759.89,480.55 1761.28,477.09 1762.65,473.06C1764.13,468.71 1766.16,464.14 1767.46,459.54C1768.76,454.92 1769.53,449.72 1770.44,445.37C1771.22,441.67 1771.63,439 1772.6,435.08C1773.92,429.73 1776.01,422.06 1777.96,416.28C1779.68,411.18 1781.76,405.9 1783.48,402.11C1784.68,399.46 1785.84,398.19 1786.92,395.54C1788.43,391.85 1790.01,386.87 1791.06,381.78C1792.31,375.71 1792.51,367.44 1793.39,361.42C1794.09,356.59 1794.45,352.71 1795.69,348.43C1796.97,344 1799.21,338.82 1801.05,335.3C1802.39,332.74 1804.02,331.76 1805.15,328.98C1806.9,324.65 1806.91,316.46 1808.65,311.09C1810.18,306.38 1812.89,302.28 1814.57,298.34C1815.98,295.03 1817.11,293.03 1818.17,289.07C1819.92,282.57 1821.3,270.79 1822.31,262.55C1823.19,255.4 1823.66,249.51 1824.11,242.46C1824.61,234.65 1824.2,222.25 1825.08,217.74C1825.42,215.97 1826.02,214.1 1826.37,214.15C1827.14,214.26 1826.29,227.58 1827.5,232.69C1828.42,236.56 1830.57,242.54 1831.69,242.46C1832.73,242.39 1833.51,236.87 1834.09,233.6C1834.78,229.68 1834.87,225.12 1835.22,220.45C1835.62,215.15 1835.95,209.05 1836.31,203.46C1836.66,198.02 1836.99,192.98 1837.37,187.37C1837.78,181.22 1837.63,172.37 1838.69,168.05C1839.26,165.72 1840.42,165.14 1840.94,162.91C1841.79,159.24 1840.43,148.06 1841.61,147.7C1842.28,147.49 1843.78,149.73 1844.52,151.58C1845.84,154.87 1845.7,162.39 1846.33,166.77C1846.81,170.13 1846.8,175.4 1847.81,175.66C1848.57,175.86 1850.24,171.41 1850.98,171.64C1852.23,172.02 1851.65,180.82 1852.03,186.21C1852.51,192.93 1852.3,201.49 1853.6,208.88C1854.89,216.21 1857.93,222.33 1859.77,230.36C1862.05,240.31 1864.39,253.01 1865.6,264.21C1866.78,275.11 1864.52,294.82 1867.07,296.68C1867.84,297.25 1869.17,296.79 1869.96,295.9C1871.91,293.7 1871.54,283.52 1872.58,277.74C1873.54,272.4 1874.78,267.45 1875.9,262.42C1876.98,257.54 1878.28,252.69 1879.18,248.01C1880.02,243.61 1880.73,239.51 1881.19,235.13C1881.67,230.63 1881.58,225.21 1881.97,221.36C1882.25,218.56 1882.68,214.15 1883.01,214.15C1883.38,214.15 1883.19,220.25 1884.08,223.29C1885.06,226.64 1887.6,229.64 1888.93,233.33C1890.43,237.49 1890.74,242.91 1892.36,247.1C1893.85,250.95 1896.38,252.89 1898.06,257.65C1901.05,266.11 1902.91,282.83 1904.98,294.86C1906.92,306.14 1907.57,319.24 1910.18,327.7C1911.94,333.42 1914.88,336.06 1916.67,341.46C1918.99,348.47 1920.66,359.71 1921.76,366.59C1922.52,371.34 1922.44,374.43 1923.17,378.7C1924,383.58 1925.52,389.17 1926.67,394.26C1927.78,399.16 1928.08,405.42 1929.94,408.67C1931.17,410.81 1933.14,411.58 1934.64,413.06C1936.09,414.5 1937.63,415.48 1938.78,417.43C1940.36,420.11 1941.12,424.97 1942.25,428.25C1943.21,431.02 1943.42,434.45 1945.07,435.86C1946.47,437.05 1949.16,435.74 1950.78,437.01C1953.14,438.86 1953.77,446.51 1956.04,448.21C1957.48,449.29 1959.8,449.78 1960.98,448.98C1962.63,447.87 1962.58,443.1 1963.21,439.45C1964.04,434.62 1964.36,428.15 1965.07,422.46C1965.79,416.69 1966.46,410.52 1967.53,405.08C1968.5,400.16 1969.98,394.94 1971.07,391.18C1971.82,388.57 1972.57,387.3 1973.2,384.62C1974.16,380.56 1974.85,374.25 1975.54,369.03C1976.23,363.78 1976.76,358.65 1977.32,353.2C1977.91,347.39 1978.42,341.14 1978.98,335.17C1979.53,329.29 1979.85,322.06 1980.67,317.65C1981.18,314.91 1982.02,313.81 1982.51,311.09C1983.29,306.8 1983.33,299.59 1983.95,294.21C1984.52,289.24 1985.3,284.51 1986.02,279.94C1986.69,275.7 1987.49,271.92 1988.1,267.7C1988.75,263.22 1989.32,258.43 1989.79,253.79C1990.26,249.16 1990.49,244.05 1990.9,239.89C1991.24,236.49 1991.61,233.61 1992,230.63C1992.37,227.83 1992.88,225.4 1993.17,222.51C1993.5,219.23 1993.39,213.95 1993.75,211.96C1993.9,211.15 1994.1,211.02 1994.27,210.29C1994.58,208.99 1994.88,206.9 1995.22,204.75C1995.69,201.77 1996.3,197.93 1996.74,194.06C1997.26,189.5 1997.4,183.4 1998.04,179.12C1998.53,175.83 1999.28,173.62 1999.87,170.49C2000.56,166.8 2001.28,162.54 2001.84,158.38C2002.43,153.98 2002.92,149.29 2003.27,144.75C2003.61,140.24 2003.5,134.7 2003.92,131.22C2004.19,129 2004.32,125.92 2004.98,125.81C2005.69,125.69 2007.26,131.29 2008.16,131.22C2009.02,131.15 2009.81,128.29 2010.29,125.81C2011.24,120.93 2009.42,107.62 2010.49,103.29C2010.96,101.39 2011.9,99.33 2012.49,99.43C2013.82,99.67 2013.85,116.29 2015.3,121.31C2016.11,124.13 2017.33,125.21 2018.23,127.63C2019.36,130.69 2020.23,135.08 2021.24,138.32C2022.1,141.08 2023.12,143.49 2023.85,145.9C2024.5,148.05 2024.66,151.54 2025.46,152.09C2025.8,152.33 2026.28,151.7 2026.64,151.96C2027.83,152.83 2028.39,159.91 2029.12,164.57C2030.01,170.28 2030.39,176.73 2031.36,183.75C2032.54,192.34 2034.56,202.63 2035.89,212.33C2037.26,222.33 2037.35,233.35 2039.44,242.87C2041.35,251.57 2045.29,259.33 2047.43,267.32C2049.43,274.8 2050.42,283.58 2052.04,289.34C2053.12,293.17 2054.27,296.19 2055.39,298.74C2056.2,300.59 2057.07,301.2 2057.84,303.38C2059.39,307.76 2060.7,316.35 2061.94,324.21C2063.54,334.33 2064.41,348.81 2066.13,359.12C2067.52,367.44 2069.27,373.87 2070.94,381.51C2072.7,389.55 2075.01,397.57 2076.44,406.23C2078,415.64 2078.56,425.74 2079.68,435.96C2080.88,446.85 2081.58,458.58 2083.42,469.71C2085.26,480.81 2088.68,493.78 2090.71,502.66C2092.09,508.7 2092.29,513.66 2094.31,517.85C2096.02,521.39 2099.21,522.59 2101.21,526.61C2104.41,533.05 2106.13,545 2108.46,554.41C2110.84,564.05 2113.59,574.16 2115.32,583.77C2116.95,592.86 2116.33,603.7 2118.71,610.55C2120.37,615.34 2122.8,617.86 2125.54,621.88C2128.92,626.84 2133.34,634.03 2137.82,637.85C2141.46,640.95 2147.31,642.14 2149.52,644.17C2150.71,645.26 2150.44,646.98 2151.63,647.38C2153.59,648.04 2158.17,643.04 2161.47,643.9C2166.26,645.15 2170.81,657.63 2176,660.38C2179.9,662.45 2184.69,659.39 2188.3,661.93C2193.84,665.83 2197.61,679.68 2201.49,687.94C2204.92,695.25 2206.42,703.44 2210.57,708.91C2214.17,713.66 2219.86,714.9 2223.92,719.73C2229.12,725.92 2233.17,736.27 2237.6,744.32C2241.85,752.05 2245.77,759.57 2250,767.12C2254.23,774.68 2258.51,782.63 2262.96,789.64C2267.07,796.11 2272.58,802.88 2275.61,807.8Q2277.57,810.98 2280,815.92" style="fill: rgb(99, 110, 250); fill-opacity: 0.5; stroke-width: 0;"/></g></g><g class="errorbars"/><g class="lines"><path class="js-line" d="M0.5,765.32Q3.18,772.53 4.58,772.66C5.7,772.76 6.96,770.08 8.01,768.54C9.17,766.85 10.22,764.78 11.14,762.86C12.03,761 12.78,759.27 13.47,757.21C14.26,754.85 14.71,751.72 15.51,749.46C16.16,747.62 17.11,746.38 17.7,744.59C18.37,742.57 18.52,739.99 19.16,737.89C19.75,735.93 20.62,734.11 21.33,732.35C21.99,730.73 22.39,729.12 23.28,727.71C24.18,726.28 25.46,725.11 26.71,723.86C28.04,722.53 29.63,720.55 31.08,720C32.15,719.59 33.02,720.05 34.28,720C36.11,719.93 38.95,719.09 40.98,719.49C42.85,719.86 44.74,722.4 46.08,722.06C47.32,721.75 48.05,719.61 48.9,718.07C49.9,716.25 50.54,713.41 51.5,711.75C52.21,710.52 53.1,710 53.8,708.8C54.71,707.24 55.33,704.77 56.23,702.99C57.05,701.36 57.61,699.66 58.92,698.49C60.37,697.19 63.24,696.91 64.77,695.79C66.02,694.87 67.02,693.85 67.68,692.57C68.38,691.21 68.44,689.51 68.76,687.8C69.13,685.82 68.87,682.45 69.73,681.38C70.23,680.76 71.1,681.09 71.76,680.6C72.72,679.88 73.74,678.46 74.55,676.98C75.59,675.1 76.35,672.4 77.1,670.04C77.86,667.65 78.24,664.74 79.09,662.71C79.75,661.13 80.6,660.16 81.41,658.71C82.35,657.02 82.64,654.61 84.36,653.17C86.73,651.2 92.05,649.58 95.67,649.58C99.01,649.58 102.59,653.72 105.29,652.66C108.65,651.34 109.99,643.27 113,639C116.03,634.69 120.1,630.17 123.42,626.92C126.01,624.38 128.28,623.03 130.91,620.73C134.01,618.02 137.42,613.93 140.76,611.6C143.6,609.62 146.83,608.69 149.42,607.21C151.64,605.94 153.52,605.42 155.41,603.35C158.37,600.11 161.58,592.67 163.52,587.89C165.08,584.04 165.13,579.44 166.7,577.07C167.73,575.51 169.44,575.71 170.44,573.99C172.34,570.71 171.49,561.45 173.41,556.61C175,552.61 178.31,546.21 180.11,546.56C182.73,547.08 182.32,570.46 185.17,571.69C186.5,572.26 188.55,570.64 189.93,568.71C192.96,564.47 193.94,550.8 196.09,542.46C198.07,534.78 200.07,527.4 202.25,520.45C204.25,514.07 206.98,508.03 208.56,502.29C209.94,497.28 210.6,493.23 211.52,487.98C212.64,481.61 213.56,473.78 214.6,466.74C215.63,459.79 216.65,452.84 217.73,446.01C218.78,439.33 220.02,433.07 220.99,426.19C222.04,418.78 223.05,409.84 223.74,403.02C224.29,397.65 224.47,393.44 224.96,388.61C225.46,383.7 225.98,378.34 226.71,373.79C227.34,369.85 228.31,366.84 228.92,362.84C229.64,358.06 229.97,352.19 230.53,347.01C231.07,342.02 231.58,337.24 232.23,332.33C232.88,327.37 233.95,322.19 234.44,317.41C234.89,313.03 233.85,305.22 235.15,304.77C236.13,304.43 238.56,307.28 239.88,310.18C242.87,316.73 242.92,334.12 244.96,346.63C247.15,360 250.65,373.42 252.72,387.96C255,403.98 255.55,423.16 257.66,438.8C259.49,452.32 261.42,465.11 264.19,476.41C266.53,485.97 269.98,493.98 272.49,502.42C274.85,510.34 276.94,517.82 278.9,525.59C280.85,533.36 282,541.05 284.22,549.03C286.6,557.59 289.86,567.92 292.91,575.28C295.24,580.9 297.31,584.96 300.15,589.71C303.17,594.76 306.92,601.24 310.66,604.63C313.42,607.13 316.71,607.24 319.32,609.54C322.32,612.18 323.97,618.32 327.23,620.09C330.06,621.62 334.08,619.56 337.14,620.73C340.44,621.98 343.52,624.46 346.2,627.8C349.82,632.29 351.51,642.76 355.22,646.61C357.75,649.23 360.5,650.45 363.78,651.11C367.63,651.89 373.98,647.55 377.09,649.96C381.8,653.61 378.57,671.91 382.15,680.09C385.11,686.85 390.46,691.44 394.9,696.56C399.13,701.45 403.97,706.04 408.11,710.2C411.69,713.8 415.08,718.88 418.25,720.13C420.28,720.93 422.36,718.73 424.09,720C428.01,722.86 430.71,739.94 432.56,748.71C434.08,755.9 434.4,768.28 435.14,768.67C435.23,768.72 435.24,768.6 435.4,768.54C436.53,768.1 445.44,762.74 449.65,764.41C455.42,766.7 459,780.98 463.89,788.49C468.42,795.46 473.8,803.11 477.85,808.07C480.55,811.38 483.42,815.75 485.14,815.92C485.96,816 486.45,815.39 487.11,814.5C488.79,812.22 490.38,804.2 492.11,799.42C493.71,795 495.33,786.89 497.08,786.8C498.61,786.72 500.24,795.8 501.88,796.07C502.97,796.25 503.89,793.01 505.19,792.86C506.71,792.68 508.96,794.13 510.55,796.07C513.4,799.55 514.35,809.33 517.23,814.88C519.83,819.88 523.91,825.21 526.61,828.13C528.21,829.86 529.84,832.11 530.96,831.75C532.53,831.24 532.9,824.59 533.7,820.93C534.51,817.21 535.11,813.31 535.79,809.6C536.44,806.02 537.12,802.89 537.7,799.04C538.4,794.45 538.79,788.38 539.57,783.86C540.21,780.15 541.2,777.42 541.82,773.81C542.53,769.68 542.86,764.61 543.46,760.42C544,756.69 544.69,753.94 545.2,749.87C545.9,744.36 546.36,736.37 546.93,730.29C547.43,724.98 547.94,720.43 548.4,715.37C548.87,710.14 549.17,704.4 549.72,699.4C550.21,694.94 550.8,686.82 551.47,686.79C551.96,686.77 552.48,693.45 553.07,693.48C553.55,693.51 554.06,690.77 554.63,689.22C555.32,687.35 556.19,685.19 556.9,683.04C557.66,680.74 558.3,678.38 559.02,675.83C559.83,672.97 559.85,668.32 561.48,666.7C562.67,665.52 564.94,666.58 566.33,665.41C568.42,663.65 569.53,658.37 571.04,655.1C572.41,652.13 573.52,649.42 575.01,646.61C576.57,643.67 578.43,640.31 580.25,637.85C581.75,635.82 583.65,634.87 584.9,632.71C586.44,630.04 587.35,625.81 588.13,622.66C588.8,619.94 588.92,617.18 589.49,614.95C589.94,613.19 590.37,611.52 591.05,610.31C591.57,609.38 592.29,609.07 592.91,608.12C593.81,606.73 595,604.7 595.6,602.57C596.32,599.99 595.37,595.6 596.46,593.57C597.23,592.14 599.05,592.27 599.99,590.73C601.61,588.07 601.76,582.15 602.71,577.47C603.78,572.22 604.81,565.8 606.08,560.73C607.16,556.42 608.55,553.18 609.63,548.89C610.88,543.9 612.03,538.39 612.97,532.53C614.05,525.82 614.61,517.54 615.51,510.78C616.3,504.86 616.86,498.94 617.99,494.17C618.88,490.44 620.34,488.1 621.21,484.39C622.31,479.7 622.88,473.63 623.57,468.16C624.27,462.6 624.76,456.59 625.37,451.29C625.91,446.56 626.45,442.34 627.03,437.89C627.61,433.46 628.12,429.25 628.87,424.63C629.7,419.55 630.76,413.3 631.85,408.67C632.7,405.03 633.81,402.47 634.58,399.03C635.45,395.16 636.06,390.89 636.65,386.54C637.29,381.82 637.79,376.43 638.23,371.73C638.63,367.46 638.82,362.87 639.21,359.49C639.49,357.08 639.86,355.79 640.15,353.33C640.57,349.7 640.82,343.88 641.24,339.8C641.58,336.42 642.03,333.74 642.38,330.54C642.76,327.11 643.01,323.34 643.42,319.85C643.81,316.48 644.35,313.37 644.78,309.94C645.24,306.26 645.55,302.26 646.06,298.47C646.56,294.71 647,290.31 647.8,287.28C648.37,285.12 649.13,281.85 649.86,281.87C650.86,281.9 652.01,287.99 653.13,292.18C654.82,298.49 657.03,308.72 658.38,316.23C659.55,322.76 659.28,329.92 661,334.66C662.22,338.03 664.71,342.81 665.96,342.64C667.18,342.48 667.65,337.23 668.48,334.13C669.47,330.44 670.52,326.2 671.4,321.91C672.37,317.19 673.16,311.94 673.96,306.96C674.76,301.99 675.65,296.99 676.2,292.04C676.74,287.17 676.77,281.9 677.24,277.47C677.63,273.74 677.7,270.29 678.68,267.19C679.57,264.38 681.43,259.41 682.58,259.58C684.55,259.87 685.76,275.82 687.18,284.3C688.67,293.23 689.88,302.85 691.28,311.87C692.63,320.57 694.3,329.64 695.43,337.47C696.39,344.07 696.49,350.1 697.77,355.77C698.93,360.89 701.13,364.5 702.46,370.07C704.23,377.52 704.06,395.8 706.5,396.7C707.54,397.09 709.01,394.77 710.23,393.48C711.68,391.95 713.11,389.66 714.5,387.96C715.74,386.43 717.04,383.53 718.14,383.71C719.64,383.96 720.47,393.2 722.02,393.38C723.38,393.54 725.34,389.3 726.7,386.79C728.26,383.91 729.35,380.05 730.56,376.88C731.67,373.98 732.44,370.97 733.72,368.52C734.85,366.37 736.45,365.05 737.64,362.84C739.09,360.17 740.08,355.64 741.48,353.44C742.38,352.03 743.56,351.82 744.32,350.36C745.52,348.05 744.93,342.35 746.5,340.18C747.64,338.59 749.92,338.95 751.28,337.37C753.28,335.05 754.33,330.34 755.8,326.28C757.53,321.5 759.06,315.28 760.83,310.45C762.37,306.25 764.03,302.55 765.66,298.85C767.18,295.4 769.07,293 770.29,288.94C772.03,283.17 772.34,272.59 773.57,267.05C774.34,263.58 775.48,261.71 776.05,258.7C776.69,255.3 776.63,250.62 776.98,247.61C777.22,245.52 777.44,244.21 777.77,242.33C778.15,240.14 778.66,237.8 779.16,235.26C779.75,232.29 780.45,229 781.1,225.59C781.83,221.79 781.74,215.87 783.32,213.51C784.28,212.07 786.03,212.56 787.12,211.04C789.3,208 790.07,198.62 791.61,193.55C792.82,189.56 793.89,186.41 795.33,183C796.75,179.63 799.03,176.47 800.17,173.2C801.21,170.2 801.24,166.93 802.09,164.2C802.84,161.8 804.19,160.32 804.83,157.63C805.75,153.77 805.58,147.73 805.93,142.96C806.27,138.43 806.57,134.06 806.91,129.7C807.24,125.47 807.63,121.49 807.92,117.19C808.23,112.62 808.31,107 808.67,103.04C808.93,100.15 809.38,98.58 809.63,95.57C810.01,90.99 809.9,82.13 810.28,78.19C810.48,76.14 810.8,75.42 811,73.55C811.3,70.75 811.35,63.01 811.65,63C811.9,62.99 812.11,67.54 812.57,70.21C813.16,73.6 814.35,76.95 815.08,81.67C816.24,89.12 816.87,102.29 817.77,110.76C818.47,117.34 818.5,123.66 819.87,128.28C820.84,131.56 822.95,132.95 823.79,136.26C824.99,140.98 822.86,151.96 824.53,154.39C825.21,155.38 826.45,154.67 827.26,155.57C828.93,157.42 830.03,163.15 831.07,167.54C832.29,172.7 832.78,178.86 833.75,184.66C834.76,190.66 835.97,196.77 837.02,202.96C838.1,209.31 838.28,217.18 840.13,222.27C841.48,225.99 844.02,227.77 845.5,231.27C847.31,235.54 848.11,241.21 849.56,246.32C851.07,251.67 852.56,256.87 854.41,262.69C856.56,269.45 859.6,276.29 861.79,284.44C864.48,294.49 866.29,307.99 868.62,318.7C870.69,328.22 873.05,336.22 874.96,345.59C877.03,355.71 877.74,371.07 880.47,377.38C881.81,380.47 883.23,381.72 885.13,383.57C887.18,385.58 890.54,386.21 892.5,388.85C895.11,392.38 895.35,399.3 897.66,404.17C900,409.1 903.7,413.84 906.49,418.21C908.96,422.06 910.42,426.85 913.54,429.03C916.38,431.02 921.03,429.24 923.98,431.46C927.82,434.35 930.65,442.42 932.81,447.29C934.53,451.16 935.48,453.49 936.49,458.12C938.18,465.86 937.46,482.53 939.75,489.91C941.09,494.24 943.26,497.17 945.02,499.58C946.24,501.26 947.04,502.95 948.7,503.44C950.85,504.07 954.7,500.32 957.32,501.38C961.05,502.89 963.39,512.99 966.96,516.56C969.67,519.27 973.15,519.67 975.7,522.11C978.47,524.76 980.63,529.81 982.71,532.15C984.02,533.62 985.23,535.61 986.32,535.37C987.9,535.02 989.83,528.46 990.37,526.1C990.68,524.74 989.78,523.43 990.49,522.75C991.64,521.65 996.98,521.5 999.22,522.88C1001.72,524.43 1002.07,529.33 1004.24,532.53C1006.75,536.24 1010.49,539.79 1013.75,543.62C1017.24,547.72 1021,551.83 1024.52,556.37C1028.29,561.23 1032.22,566.87 1035.58,571.93C1038.65,576.55 1041.11,581.26 1043.97,585.46C1046.6,589.33 1049.88,591.89 1052.03,596.28C1054.68,601.7 1054.17,612.38 1057.5,616.1C1059.79,618.66 1063.9,617.31 1066.5,619.69C1070.13,623.01 1072.18,630.61 1075.04,636.56C1078.19,643.12 1081.58,650.46 1084.54,657.43C1087.45,664.28 1089.58,671.57 1092.66,678.03C1095.57,684.14 1099.15,694.41 1102.38,695.28C1104.21,695.77 1105.96,693.32 1107.87,692.06C1110.12,690.59 1113.05,686.19 1114.95,686.89C1118.1,688.04 1119.16,710.22 1120.64,710.2C1121.67,710.19 1122.38,703.01 1123.13,698.76C1124.07,693.48 1124.91,686.63 1125.59,680.87C1126.23,675.5 1126.64,670.57 1127.14,665.28C1127.65,659.8 1128.14,654.05 1128.61,648.54C1129.07,643.15 1129.47,637.83 1129.93,632.57C1130.38,627.44 1130.9,622.52 1131.32,617.38C1131.75,612.1 1132.09,606.44 1132.47,601.29C1132.82,596.52 1133.05,592 1133.51,587.52C1133.95,583.22 1134.65,579.36 1135.12,574.9C1135.65,569.9 1136.02,563.93 1136.44,558.94C1136.81,554.52 1137.17,550.96 1137.52,546.46C1137.93,541.17 1138.33,534.8 1138.71,529.18C1139.07,523.82 1139.38,518.93 1139.74,513.48C1140.14,507.56 1140.46,500.78 1141,494.95C1141.49,489.73 1142.24,485.14 1142.76,480.13C1143.29,475 1143.64,469.62 1144.14,464.54C1144.62,459.68 1145.14,455.21 1145.68,450.27C1146.26,444.94 1146.98,439.17 1147.5,433.66C1148.02,428.22 1148.12,422.18 1148.8,417.43C1149.34,413.66 1150.45,410.92 1150.88,407.38C1151.36,403.5 1150.12,397.04 1151.37,395.04C1151.99,394.05 1153.33,394.65 1154.01,393.62C1155.58,391.25 1154.82,382.41 1155.49,377.65C1156.04,373.76 1156.32,369.68 1157.48,367.1C1158.28,365.33 1159.8,365.02 1160.57,363.11C1161.92,359.75 1161.66,352.76 1162.23,347.65C1162.79,342.63 1162.96,337.33 1163.93,332.73C1164.8,328.61 1166.07,322.13 1167.52,321.27C1168.09,320.93 1168.86,322.02 1169.35,321.64C1170.92,320.42 1169.95,308.11 1170.27,302.33C1170.53,297.61 1170.8,293.57 1171.1,289.47C1171.37,285.71 1171.53,282.42 1171.97,278.65C1172.45,274.5 1172.94,268.36 1173.95,265.63C1174.47,264.23 1175.2,264.06 1175.78,262.69C1176.86,260.12 1177.71,253.49 1178.65,250.85C1179.15,249.44 1179.68,247.67 1180.13,247.74C1181.2,247.91 1181.8,260.16 1182.6,267.19C1183.54,275.48 1183.99,284.76 1185.32,294.35C1186.83,305.28 1189.69,317.23 1191.51,329.25C1193.43,341.99 1194.36,361.55 1196.45,368.76C1197.29,371.66 1198.09,372.48 1199.19,374.57C1200.55,377.16 1202.86,379.9 1204.14,383.06C1205.55,386.56 1206.08,390.93 1207.01,394.77C1207.9,398.48 1208.43,402.26 1209.61,405.72C1210.74,409.03 1212.46,412.27 1213.85,415.13C1215.05,417.6 1216.29,419.6 1217.39,421.93C1218.52,424.31 1219.11,427.71 1220.52,429.29C1221.54,430.43 1223.07,431.75 1224.17,431.33C1226.24,430.54 1227.34,421.49 1229.08,417.19C1230.59,413.44 1232.26,409.55 1233.84,406.88C1234.95,405.01 1236.14,404.07 1237.14,402.38C1238.26,400.48 1239.01,398.14 1240.12,395.95C1241.32,393.59 1243.22,390.69 1244.12,388.71C1244.71,387.41 1244.64,386.65 1245.34,385.37C1246.49,383.28 1249.61,380.95 1251.13,377.79C1253.1,373.7 1253.59,367.37 1255.01,362.33C1256.39,357.42 1258.29,352.94 1259.49,347.92C1260.76,342.62 1261.59,336.69 1262.34,331.31C1263.04,326.28 1263.32,321.37 1263.91,316.63C1264.46,312.16 1264.75,307.91 1265.74,303.62C1266.75,299.24 1268.78,295.09 1269.98,290.63C1271.22,286.04 1272.27,281.57 1273.03,276.46C1273.9,270.58 1273.82,262.73 1274.6,257.28C1275.19,253.18 1275.98,250.01 1276.8,246.59C1277.57,243.38 1278.17,238.86 1279.33,237.32C1279.89,236.58 1280.71,235.91 1281.23,236.17C1282.63,236.87 1282.38,246.94 1282.84,252.38C1283.3,257.88 1283.49,263.55 1283.98,268.98C1284.45,274.23 1285.17,278.81 1285.71,284.44C1286.36,291.21 1286.37,300.38 1287.53,306.83C1288.44,311.89 1290.01,320.11 1291.29,320.12C1292.54,320.13 1293.75,311.68 1295.13,307.47C1296.52,303.22 1297.95,298.37 1299.59,294.75C1300.9,291.86 1302.71,289.99 1303.8,287.28C1304.96,284.4 1305.45,281.41 1306.23,277.88C1307.22,273.41 1308.38,267.26 1309.05,262.55C1309.62,258.58 1309.23,253.97 1310.17,251.49C1310.72,250.04 1311.65,249.46 1312.41,248.38C1313.22,247.23 1314.27,246.36 1314.91,244.79C1315.84,242.5 1315.87,238.87 1316.44,235.53C1317.11,231.59 1317.37,223.68 1318.72,222.64C1319.2,222.27 1319.93,223.19 1320.4,222.78C1322.29,221.12 1321.29,202.87 1321.58,195.35C1321.78,190.1 1321.17,185.04 1322.04,181.96C1322.55,180.15 1323.65,179.78 1324.31,177.96C1325.48,174.69 1326.01,163.42 1326.86,163.42C1327.73,163.42 1328.82,172.67 1329.47,178.74C1330.4,187.47 1329.89,201.5 1330.87,210.91C1331.65,218.35 1332.19,224.47 1334.17,230.76C1336.12,236.95 1340.17,241.82 1342.6,248.38C1345.45,256.07 1346.67,268.13 1349.61,274.26C1351.46,278.13 1353.66,279.88 1355.89,282.88C1358.36,286.21 1361.79,288.68 1363.8,293.33C1366.77,300.21 1367.28,312.05 1368.56,321.64C1369.87,331.44 1370.59,342 1371.52,351.51C1372.37,360.21 1372.96,368.65 1373.95,376.5C1374.84,383.54 1375.97,390.17 1377.04,396.46C1378.01,402.12 1379.01,407.48 1380.05,412.55C1380.99,417.12 1382.11,420.95 1382.96,425.54C1383.9,430.63 1384.35,436.64 1385.35,441.78C1386.27,446.51 1387.68,450.31 1388.61,455.28C1389.73,461.29 1390.22,469.44 1391.3,475.37C1392.17,480.16 1393.48,483.89 1394.29,488.25C1395.12,492.69 1395.49,497.01 1396.21,501.78C1397.02,507.15 1397.49,513.19 1398.93,518.89C1400.43,524.86 1403.4,530.48 1405.19,536.79C1407.13,543.63 1407.77,552.83 1409.99,558.54C1411.58,562.63 1414.15,564.63 1415.7,568.45C1417.56,573.03 1417.79,579.38 1419.76,584.41C1421.7,589.37 1425.46,593.39 1427.36,598.45C1429.36,603.78 1430.43,610.66 1431.27,615.7C1431.92,619.56 1431.06,622.94 1432.4,626.01C1433.79,629.18 1437.47,631.43 1439.66,634.37C1441.83,637.28 1443.55,641.57 1445.5,643.53C1446.75,644.79 1448.03,644.97 1449.26,645.96C1450.67,647.1 1451.86,648.76 1453.42,650.09C1455.15,651.56 1457.53,652.17 1459.27,654.32C1461.85,657.51 1462.42,664.87 1465.63,668.76C1468.81,672.62 1474.6,674.27 1478.39,677.63C1482.08,680.9 1484.53,686.17 1488.15,688.58C1491.24,690.64 1494.85,690.25 1498.22,692.06C1502.28,694.24 1506.02,699.47 1510.47,701.46C1514.7,703.35 1519.77,702.82 1524.14,704.04C1528.34,705.21 1532.22,708.83 1536.22,708.54C1540.42,708.24 1544.84,700.78 1548.71,701.71C1553.76,702.93 1558.17,714.81 1562.35,721.79C1566.6,728.88 1570.48,737.4 1573.96,743.95C1576.75,749.2 1577.98,755.35 1581.56,758.09C1584.65,760.45 1589.59,761.15 1593.15,760.79C1596.38,760.46 1599.51,758.93 1602.08,756.7C1605.12,754.05 1606.81,748.17 1609.49,745.1C1611.68,742.6 1614.19,742.1 1616.48,739.18C1620.21,734.43 1623.59,717.73 1627.36,717.43C1630.46,717.18 1633.77,730.56 1636.95,730.79C1639.59,730.98 1642.2,725.5 1644.84,722.57C1647.69,719.4 1650.1,714.55 1653.41,712.39C1656.29,710.51 1659.95,710.48 1663.08,709.55C1666.03,708.68 1669.16,708.41 1671.68,706.98C1674.17,705.57 1675.76,702.09 1678.12,701.06C1680.19,700.16 1683.28,699.68 1684.83,700.55C1686.23,701.34 1686.33,705.42 1687.33,705.46C1688.57,705.51 1690.72,701.17 1691.82,698.12C1693.32,693.96 1693.23,688.25 1694.1,682.26C1695.23,674.44 1695.93,663.63 1698.03,655.23C1699.95,647.55 1702.02,637.26 1705.77,633.72C1708.06,631.56 1711.68,633.17 1713.93,631.29C1716.81,628.88 1717.99,622.68 1720.23,618.8C1722.31,615.21 1724.72,612.25 1726.83,608.76C1729.03,605.14 1731.06,601.6 1733.14,597.43C1735.57,592.56 1738.29,586.4 1740.31,581.2C1742.11,576.56 1743.42,572.22 1744.83,567.8C1746.19,563.51 1747.7,559.92 1748.64,555.05C1749.84,548.81 1749.71,540.38 1750.61,533.3C1751.47,526.49 1752.86,519.29 1753.86,513.35C1754.66,508.56 1755.31,504.89 1756.1,500.36C1756.96,495.4 1757.65,489.56 1758.84,484.77C1759.89,480.55 1761.28,477.09 1762.65,473.06C1764.13,468.71 1766.16,464.14 1767.46,459.54C1768.76,454.92 1769.53,449.72 1770.44,445.37C1771.22,441.67 1771.63,439 1772.6,435.08C1773.92,429.73 1776.01,422.06 1777.96,416.28C1779.68,411.18 1781.76,405.9 1783.48,402.11C1784.68,399.46 1785.84,398.19 1786.92,395.54C1788.43,391.85 1790.01,386.87 1791.06,381.78C1792.31,375.71 1792.51,367.44 1793.39,361.42C1794.09,356.59 1794.45,352.71 1795.69,348.43C1796.97,344 1799.21,338.82 1801.05,335.3C1802.39,332.74 1804.02,331.76 1805.15,328.98C1806.9,324.65 1806.91,316.46 1808.65,311.09C1810.18,306.38 1812.89,302.28 1814.57,298.34C1815.98,295.03 1817.11,293.03 1818.17,289.07C1819.92,282.57 1821.3,270.79 1822.31,262.55C1823.19,255.4 1823.66,249.51 1824.11,242.46C1824.61,234.65 1824.2,222.25 1825.08,217.74C1825.42,215.97 1826.02,214.1 1826.37,214.15C1827.14,214.26 1826.29,227.58 1827.5,232.69C1828.42,236.56 1830.57,242.54 1831.69,242.46C1832.73,242.39 1833.51,236.87 1834.09,233.6C1834.78,229.68 1834.87,225.12 1835.22,220.45C1835.62,215.15 1835.95,209.05 1836.31,203.46C1836.66,198.02 1836.99,192.98 1837.37,187.37C1837.78,181.22 1837.63,172.37 1838.69,168.05C1839.26,165.72 1840.42,165.14 1840.94,162.91C1841.79,159.24 1840.43,148.06 1841.61,147.7C1842.28,147.49 1843.78,149.73 1844.52,151.58C1845.84,154.87 1845.7,162.39 1846.33,166.77C1846.81,170.13 1846.8,175.4 1847.81,175.66C1848.57,175.86 1850.24,171.41 1850.98,171.64C1852.23,172.02 1851.65,180.82 1852.03,186.21C1852.51,192.93 1852.3,201.49 1853.6,208.88C1854.89,216.21 1857.93,222.33 1859.77,230.36C1862.05,240.31 1864.39,253.01 1865.6,264.21C1866.78,275.11 1864.52,294.82 1867.07,296.68C1867.84,297.25 1869.17,296.79 1869.96,295.9C1871.91,293.7 1871.54,283.52 1872.58,277.74C1873.54,272.4 1874.78,267.45 1875.9,262.42C1876.98,257.54 1878.28,252.69 1879.18,248.01C1880.02,243.61 1880.73,239.51 1881.19,235.13C1881.67,230.63 1881.58,225.21 1881.97,221.36C1882.25,218.56 1882.68,214.15 1883.01,214.15C1883.38,214.15 1883.19,220.25 1884.08,223.29C1885.06,226.64 1887.6,229.64 1888.93,233.33C1890.43,237.49 1890.74,242.91 1892.36,247.1C1893.85,250.95 1896.38,252.89 1898.06,257.65C1901.05,266.11 1902.91,282.83 1904.98,294.86C1906.92,306.14 1907.57,319.24 1910.18,327.7C1911.94,333.42 1914.88,336.06 1916.67,341.46C1918.99,348.47 1920.66,359.71 1921.76,366.59C1922.52,371.34 1922.44,374.43 1923.17,378.7C1924,383.58 1925.52,389.17 1926.67,394.26C1927.78,399.16 1928.08,405.42 1929.94,408.67C1931.17,410.81 1933.14,411.58 1934.64,413.06C1936.09,414.5 1937.63,415.48 1938.78,417.43C1940.36,420.11 1941.12,424.97 1942.25,428.25C1943.21,431.02 1943.42,434.45 1945.07,435.86C1946.47,437.05 1949.16,435.74 1950.78,437.01C1953.14,438.86 1953.77,446.51 1956.04,448.21C1957.48,449.29 1959.8,449.78 1960.98,448.98C1962.63,447.87 1962.58,443.1 1963.21,439.45C1964.04,434.62 1964.36,428.15 1965.07,422.46C1965.79,416.69 1966.46,410.52 1967.53,405.08C1968.5,400.16 1969.98,394.94 1971.07,391.18C1971.82,388.57 1972.57,387.3 1973.2,384.62C1974.16,380.56 1974.85,374.25 1975.54,369.03C1976.23,363.78 1976.76,358.65 1977.32,353.2C1977.91,347.39 1978.42,341.14 1978.98,335.17C1979.53,329.29 1979.85,322.06 1980.67,317.65C1981.18,314.91 1982.02,313.81 1982.51,311.09C1983.29,306.8 1983.33,299.59 1983.95,294.21C1984.52,289.24 1985.3,284.51 1986.02,279.94C1986.69,275.7 1987.49,271.92 1988.1,267.7C1988.75,263.22 1989.32,258.43 1989.79,253.79C1990.26,249.16 1990.49,244.05 1990.9,239.89C1991.24,236.49 1991.61,233.61 1992,230.63C1992.37,227.83 1992.88,225.4 1993.17,222.51C1993.5,219.23 1993.39,213.95 1993.75,211.96C1993.9,211.15 1994.1,211.02 1994.27,210.29C1994.58,208.99 1994.88,206.9 1995.22,204.75C1995.69,201.77 1996.3,197.93 1996.74,194.06C1997.26,189.5 1997.4,183.4 1998.04,179.12C1998.53,175.83 1999.28,173.62 1999.87,170.49C2000.56,166.8 2001.28,162.54 2001.84,158.38C2002.43,153.98 2002.92,149.29 2003.27,144.75C2003.61,140.24 2003.5,134.7 2003.92,131.22C2004.19,129 2004.32,125.92 2004.98,125.81C2005.69,125.69 2007.26,131.29 2008.16,131.22C2009.02,131.15 2009.81,128.29 2010.29,125.81C2011.24,120.93 2009.42,107.62 2010.49,103.29C2010.96,101.39 2011.9,99.33 2012.49,99.43C2013.82,99.67 2013.85,116.29 2015.3,121.31C2016.11,124.13 2017.33,125.21 2018.23,127.63C2019.36,130.69 2020.23,135.08 2021.24,138.32C2022.1,141.08 2023.12,143.49 2023.85,145.9C2024.5,148.05 2024.66,151.54 2025.46,152.09C2025.8,152.33 2026.28,151.7 2026.64,151.96C2027.83,152.83 2028.39,159.91 2029.12,164.57C2030.01,170.28 2030.39,176.73 2031.36,183.75C2032.54,192.34 2034.56,202.63 2035.89,212.33C2037.26,222.33 2037.35,233.35 2039.44,242.87C2041.35,251.57 2045.29,259.33 2047.43,267.32C2049.43,274.8 2050.42,283.58 2052.04,289.34C2053.12,293.17 2054.27,296.19 2055.39,298.74C2056.2,300.59 2057.07,301.2 2057.84,303.38C2059.39,307.76 2060.7,316.35 2061.94,324.21C2063.54,334.33 2064.41,348.81 2066.13,359.12C2067.52,367.44 2069.27,373.87 2070.94,381.51C2072.7,389.55 2075.01,397.57 2076.44,406.23C2078,415.64 2078.56,425.74 2079.68,435.96C2080.88,446.85 2081.58,458.58 2083.42,469.71C2085.26,480.81 2088.68,493.78 2090.71,502.66C2092.09,508.7 2092.29,513.66 2094.31,517.85C2096.02,521.39 2099.21,522.59 2101.21,526.61C2104.41,533.05 2106.13,545 2108.46,554.41C2110.84,564.05 2113.59,574.16 2115.32,583.77C2116.95,592.86 2116.33,603.7 2118.71,610.55C2120.37,615.34 2122.8,617.86 2125.54,621.88C2128.92,626.84 2133.34,634.03 2137.82,637.85C2141.46,640.95 2147.31,642.14 2149.52,644.17C2150.71,645.26 2150.44,646.98 2151.63,647.38C2153.59,648.04 2158.17,643.04 2161.47,643.9C2166.26,645.15 2170.81,657.63 2176,660.38C2179.9,662.45 2184.69,659.39 2188.3,661.93C2193.84,665.83 2197.61,679.68 2201.49,687.94C2204.92,695.25 2206.42,703.44 2210.57,708.91C2214.17,713.66 2219.86,714.9 2223.92,719.73C2229.12,725.92 2233.17,736.27 2237.6,744.32C2241.85,752.05 2245.77,759.57 2250,767.12C2254.23,774.68 2258.51,782.63 2262.96,789.64C2267.07,796.11 2272.58,802.88 2275.61,807.8Q2277.57,810.98 2280,815.92" style="vector-effect: non-scaling-stroke; fill: none; stroke: rgb(99, 110, 250); stroke-opacity: 1; stroke-width: 2px; opacity: 1;"/></g><g class="points"/><g class="text"/></g></g></g><g class="overplot"/><path class="xlines-above crisp" d="M0,0" style="fill: none;"/><path class="ylines-above crisp" d="M0,0" style="fill: none;"/><g class="overlines-above"/><g class="xaxislayer-above"><g class="xtick"><text text-anchor="middle" x="0" y="1373" transform="translate(395.23,0)" style="font-family: 'Open Sans', verdana, arial, sans-serif; font-size: 12px; fill: rgb(42, 63, 95); fill-opacity: 1; white-space: pre; opacity: 1;">20k</text></g><g class="xtick"><text text-anchor="middle" x="0" y="1373" style="font-family: 'Open Sans', verdana, arial, sans-serif; font-size: 12px; fill: rgb(42, 63, 95); fill-opacity: 1; white-space: pre; opacity: 1;" transform="translate(714.23,0)">40k</text></g><g class="xtick"><text text-anchor="middle" x="0" y="1373" style="font-family: 'Open Sans', verdana, arial, sans-serif; font-size: 12px; fill: rgb(42, 63, 95); fill-opacity: 1; white-space: pre; opacity: 1;" transform="translate(1033.24,0)">60k</text></g><g class="xtick"><text text-anchor="middle" x="0" y="1373" style="font-family: 'Open Sans', verdana, arial, sans-serif; font-size: 12px; fill: rgb(42, 63, 95); fill-opacity: 1; white-space: pre; opacity: 1;" transform="translate(1352.25,0)">80k</text></g><g class="xtick"><text text-anchor="middle" x="0" y="1373" style="font-family: 'Open Sans', verdana, arial, sans-serif; font-size: 12px; fill: rgb(42, 63, 95); fill-opacity: 1; white-space: pre; opacity: 1;" transform="translate(1671.25,0)">100k</text></g><g class="xtick"><text text-anchor="middle" x="0" y="1373" style="font-family: 'Open Sans', verdana, arial, sans-serif; font-size: 12px; fill: rgb(42, 63, 95); fill-opacity: 1; white-space: pre; opacity: 1;" transform="translate(1990.26,0)">120k</text></g><g class="xtick"><text text-anchor="middle" x="0" y="1373" style="font-family: 'Open Sans', verdana, arial, sans-serif; font-size: 12px; fill: rgb(42, 63, 95); fill-opacity: 1; white-space: pre; opacity: 1;" transform="translate(2309.27,0)">140k</text></g></g><g class="yaxislayer-above"><g class="ytick"><text text-anchor="end" x="79" y="4.199999999999999" transform="translate(0,1360)" style="font-family: 'Open Sans', verdana, arial, sans-serif; font-size: 12px; fill: rgb(42, 63, 95); fill-opacity: 1; white-space: pre; opacity: 1;">0</text></g><g class="ytick"><text text-anchor="end" x="79" y="4.199999999999999" style="font-family: 'Open Sans', verdana, arial, sans-serif; font-size: 12px; fill: rgb(42, 63, 95); fill-opacity: 1; white-space: pre; opacity: 1;" transform="translate(0,1226.07)">500</text></g><g class="ytick"><text text-anchor="end" x="79" y="4.199999999999999" style="font-family: 'Open Sans', verdana, arial, sans-serif; font-size: 12px; fill: rgb(42, 63, 95); fill-opacity: 1; white-space: pre; opacity: 1;" transform="translate(0,1092.1399999999999)">1000</text></g><g class="ytick"><text text-anchor="end" x="79" y="4.199999999999999" style="font-family: 'Open Sans', verdana, arial, sans-serif; font-size: 12px; fill: rgb(42, 63, 95); fill-opacity: 1; white-space: pre; opacity: 1;" transform="translate(0,958.21)">1500</text></g><g class="ytick"><text text-anchor="end" x="79" y="4.199999999999999" style="font-family: 'Open Sans', verdana, arial, sans-serif; font-size: 12px; fill: rgb(42, 63, 95); fill-opacity: 1; white-space: pre; opacity: 1;" transform="translate(0,824.29)">2000</text></g><g class="ytick"><text text-anchor="end" x="79" y="4.199999999999999" style="font-family: 'Open Sans', verdana, arial, sans-serif; font-size: 12px; fill: rgb(42, 63, 95); fill-opacity: 1; white-space: pre; opacity: 1;" transform="translate(0,690.36)">2500</text></g><g class="ytick"><text text-anchor="end" x="79" y="4.199999999999999" style="font-family: 'Open Sans', verdana, arial, sans-serif; font-size: 12px; fill: rgb(42, 63, 95); fill-opacity: 1; white-space: pre; opacity: 1;" transform="translate(0,556.4300000000001)">3000</text></g><g class="ytick"><text text-anchor="end" x="79" y="4.199999999999999" style="font-family: 'Open Sans', verdana, arial, sans-serif; font-size: 12px; fill: rgb(42, 63, 95); fill-opacity: 1; white-space: pre; opacity: 1;" transform="translate(0,422.5)">3500</text></g><g class="ytick"><text text-anchor="end" x="79" y="4.199999999999999" style="font-family: 'Open Sans', verdana, arial, sans-serif; font-size: 12px; fill: rgb(42, 63, 95); fill-opacity: 1; white-space: pre; opacity: 1;" transform="translate(0,288.57)">4000</text></g><g class="ytick"><text text-anchor="end" x="79" y="4.199999999999999" style="font-family: 'Open Sans', verdana, arial, sans-serif; font-size: 12px; fill: rgb(42, 63, 95); fill-opacity: 1; white-space: pre; opacity: 1;" transform="translate(0,154.64)">4500</text></g></g><g class="overaxes-above"/></g></g><g class="polarlayer"/><g class="smithlayer"/><g class="ternarylayer"/><g class="geolayer"/><g class="funnelarealayer"/><g class="pielayer"/><g class="iciclelayer"/><g class="treemaplayer"/><g class="sunburstlayer"/><g class="glimages"/><defs id="topdefs-0435b9"><g class="clips"/></defs><g class="layer-above"><g class="imagelayer"/><g class="shapelayer"><path data-index="0" fill-rule="evenodd" d="M1894.57,1360L1894.57,1234" clip-path="url(#clip0435b9x)" style="opacity: 1; stroke: rgb(128, 128, 128); stroke-opacity: 1; fill: rgb(0, 0, 0); fill-opacity: 0; stroke-width: 1px;"/><path data-index="1" fill-rule="evenodd" d="M1906.37,1360L1906.37,1234" clip-path="url(#clip0435b9x)" style="opacity: 1; stroke: rgb(128, 128, 128); stroke-opacity: 1; fill: rgb(0, 0, 0); fill-opacity: 0; stroke-width: 1px;"/><path data-index="2" fill-rule="evenodd" d="M1921.61,1360L1921.61,1234" clip-path="url(#clip0435b9x)" style="opacity: 1; stroke: rgb(128, 128, 128); stroke-opacity: 1; fill: rgb(0, 0, 0); fill-opacity: 0; stroke-width: 1px;"/><path data-index="3" fill-rule="evenodd" d="M1963.01,1360L1963.01,1234" clip-path="url(#clip0435b9x)" style="opacity: 1; stroke: rgb(128, 128, 128); stroke-opacity: 1; fill: rgb(0, 0, 0); fill-opacity: 0; stroke-width: 1px;"/><path data-index="4" fill-rule="evenodd" d="M2040.98,1360L2040.98,1234" clip-path="url(#clip0435b9x)" style="opacity: 1; stroke: rgb(128, 128, 128); stroke-opacity: 1; fill: rgb(0, 0, 0); fill-opacity: 0; stroke-width: 1px;"/><path data-index="5" fill-rule="evenodd" d="M2241.47,1360L2241.47,1234" clip-path="url(#clip0435b9x)" style="opacity: 1; stroke: rgb(128, 128, 128); stroke-opacity: 1; fill: rgb(0, 0, 0); fill-opacity: 0; stroke-width: 1px;"/><path data-index="6" fill-rule="evenodd" d="M260.11,1360L260.11,1234" clip-path="url(#clip0435b9x)" style="opacity: 1; stroke: rgb(128, 128, 128); stroke-opacity: 1; fill: rgb(0, 0, 0); fill-opacity: 0; stroke-width: 1px;"/><path data-index="7" fill-rule="evenodd" d="M306.71000000000004,1360L306.71000000000004,1234" clip-path="url(#clip0435b9x)" style="opacity: 1; stroke: rgb(128, 128, 128); stroke-opacity: 1; fill: rgb(0, 0, 0); fill-opacity: 0; stroke-width: 1px;"/><path data-index="8" fill-rule="evenodd" d="M315.15,1360L315.15,1234" clip-path="url(#clip0435b9x)" style="opacity: 1; stroke: rgb(128, 128, 128); stroke-opacity: 1; fill: rgb(0, 0, 0); fill-opacity: 0; stroke-width: 1px;"/><path data-index="9" fill-rule="evenodd" d="M80.5,1360L80.5,1234" clip-path="url(#clip0435b9x)" style="opacity: 1; stroke: rgb(128, 128, 128); stroke-opacity: 1; fill: rgb(0, 0, 0); fill-opacity: 0; stroke-width: 1px;"/><path data-index="10" fill-rule="evenodd" d="M679.99,1360L679.99,1234" clip-path="url(#clip0435b9x)" style="opacity: 1; stroke: rgb(128, 128, 128); stroke-opacity: 1; fill: rgb(0, 0, 0); fill-opacity: 0; stroke-width: 1px;"/><path data-index="11" fill-rule="evenodd" d="M729.86,1360L729.86,1234" clip-path="url(#clip0435b9x)" style="opacity: 1; stroke: rgb(128, 128, 128); stroke-opacity: 1; fill: rgb(0, 0, 0); fill-opacity: 0; stroke-width: 1px;"/><path data-index="12" fill-rule="evenodd" d="M831.28,1360L831.28,1234" clip-path="url(#clip0435b9x)" style="opacity: 1; stroke: rgb(128, 128, 128); stroke-opacity: 1; fill: rgb(0, 0, 0); fill-opacity: 0; stroke-width: 1px;"/><path data-index="13" fill-rule="evenodd" d="M884.83,1360L884.83,1234" clip-path="url(#clip0435b9x)" style="opacity: 1; stroke: rgb(128, 128, 128); stroke-opacity: 1; fill: rgb(0, 0, 0); fill-opacity: 0; stroke-width: 1px;"/><path data-index="14" fill-rule="evenodd" d="M903.79,1360L903.79,1234" clip-path="url(#clip0435b9x)" style="opacity: 1; stroke: rgb(128, 128, 128); stroke-opacity: 1; fill: rgb(0, 0, 0); fill-opacity: 0; stroke-width: 1px;"/><path data-index="15" fill-rule="evenodd" d="M1079.22,1360L1079.22,1234" clip-path="url(#clip0435b9x)" style="opacity: 1; stroke: rgb(128, 128, 128); stroke-opacity: 1; fill: rgb(0, 0, 0); fill-opacity: 0; stroke-width: 1px;"/><path data-index="16" fill-rule="evenodd" d="M1234.01,1360L1234.01,1234" clip-path="url(#clip0435b9x)" style="opacity: 1; stroke: rgb(128, 128, 128); stroke-opacity: 1; fill: rgb(0, 0, 0); fill-opacity: 0; stroke-width: 1px;"/><path data-index="17" fill-rule="evenodd" d="M1253.95,1360L1253.95,1234" clip-path="url(#clip0435b9x)" style="opacity: 1; stroke: rgb(128, 128, 128); stroke-opacity: 1; fill: rgb(0, 0, 0); fill-opacity: 0; stroke-width: 1px;"/><path data-index="18" fill-rule="evenodd" d="M1331.13,1360L1331.13,1234" clip-path="url(#clip0435b9x)" style="opacity: 1; stroke: rgb(128, 128, 128); stroke-opacity: 1; fill: rgb(0, 0, 0); fill-opacity: 0; stroke-width: 1px;"/><path data-index="19" fill-rule="evenodd" d="M1361.23,1360L1361.23,1234" clip-path="url(#clip0435b9x)" style="opacity: 1; stroke: rgb(128, 128, 128); stroke-opacity: 1; fill: rgb(0, 0, 0); fill-opacity: 0; stroke-width: 1px;"/><path data-index="20" fill-rule="evenodd" d="M1519.66,1360L1519.66,1234" clip-path="url(#clip0435b9x)" style="opacity: 1; stroke: rgb(128, 128, 128); stroke-opacity: 1; fill: rgb(0, 0, 0); fill-opacity: 0; stroke-width: 1px;"/><path data-index="21" fill-rule="evenodd" d="M1771.82,1360L1771.82,1234" clip-path="url(#clip0435b9x)" style="opacity: 1; stroke: rgb(128, 128, 128); stroke-opacity: 1; fill: rgb(0, 0, 0); fill-opacity: 0; stroke-width: 1px;"/><path data-index="22" fill-rule="evenodd" d="M899.87,1360L899.87,1234" clip-path="url(#clip0435b9x)" style="opacity: 1; stroke: rgb(128, 128, 128); stroke-opacity: 1; fill: rgb(0, 0, 0); fill-opacity: 0; stroke-width: 1px;"/><path data-index="23" fill-rule="evenodd" d="M1194.95,1360L1194.95,1234" clip-path="url(#clip0435b9x)" style="opacity: 1; stroke: rgb(128, 128, 128); stroke-opacity: 1; fill: rgb(0, 0, 0); fill-opacity: 0; stroke-width: 1px;"/><path data-index="24" fill-rule="evenodd" d="M1409.47,1360L1409.47,1234" clip-path="url(#clip0435b9x)" style="opacity: 1; stroke: rgb(128, 128, 128); stroke-opacity: 1; fill: rgb(0, 0, 0); fill-opacity: 0; stroke-width: 1px;"/><path data-index="25" fill-rule="evenodd" d="M2088.16,1360L2088.16,1234" clip-path="url(#clip0435b9x)" style="opacity: 1; stroke: rgb(128, 128, 128); stroke-opacity: 1; fill: rgb(0, 0, 0); fill-opacity: 0; stroke-width: 1px;"/><path data-index="26" fill-rule="evenodd" d="M2092.49,1360L2092.49,1234" clip-path="url(#clip0435b9x)" style="opacity: 1; stroke: rgb(128, 128, 128); stroke-opacity: 1; fill: rgb(0, 0, 0); fill-opacity: 0; stroke-width: 1px;"/><path data-index="27" fill-rule="evenodd" d="M2115.8900000000003,1360L2115.8900000000003,1234" clip-path="url(#clip0435b9x)" style="opacity: 1; stroke: rgb(128, 128, 128); stroke-opacity: 1; fill: rgb(0, 0, 0); fill-opacity: 0; stroke-width: 1px;"/></g></g><g class="infolayer"><g class="g-gtitle"/><g class="g-xtitle"/><g class="g-ytitle"/><g class="annotation" data-index="0" style="opacity: 1;"><g class="annotation-text-g" transform="rotate(0,1908.57,109.5)"><g class="cursor-pointer" transform="translate(1895,100)"><rect class="bg" x="0.5" y="0.5" width="27" height="18" style="stroke-width: 1px; stroke: rgb(0, 0, 0); stroke-opacity: 0; fill: rgb(0, 0, 0); fill-opacity: 0;"/><text class="annotation-text" text-anchor="middle" x="14.140625" y="14" style="font-family: 'Open Sans', verdana, arial, sans-serif; font-size: 12px; fill: rgb(42, 63, 95); fill-opacity: 1; white-space: pre;">16</text></g></g></g><g class="annotation" data-index="1" style="opacity: 1;"><g class="annotation-text-g" transform="rotate(0,1939.87,109.5)"><g class="cursor-pointer" transform="translate(1906,100)"><rect class="bg" x="0.5" y="0.5" width="66" height="18" style="stroke-width: 1px; stroke: rgb(0, 0, 0); stroke-opacity: 0; fill: rgb(0, 0, 0); fill-opacity: 0;"/><text class="annotation-text" text-anchor="middle" x="33.296875" y="14" style="font-family: 'Open Sans', verdana, arial, sans-serif; font-size: 12px; fill: rgb(42, 63, 95); fill-opacity: 1; white-space: pre;"></text></g></g></g><g class="annotation" data-index="2" style="opacity: 1;"><g class="annotation-text-g" transform="rotate(0,2001.11,109.5)"><g class="cursor-pointer" transform="translate(1922,100)"><rect class="bg" x="0.5" y="0.5" width="158" height="18" style="stroke-width: 1px; stroke: rgb(0, 0, 0); stroke-opacity: 0; fill: rgb(0, 0, 0); fill-opacity: 0;"/><text class="annotation-text" text-anchor="middle" x="79.09375" y="14" style="font-family: 'Open Sans', verdana, arial, sans-serif; font-size: 12px; fill: rgb(42, 63, 95); fill-opacity: 1; white-space: pre;"> + </text></g></g></g><g class="annotation" data-index="3" style="opacity: 1;"><g class="annotation-text-g" transform="rotate(0,1986.01,109.5)"><g class="cursor-pointer" transform="translate(1963,100)"><rect class="bg" x="0.5" y="0.5" width="45" height="18" style="stroke-width: 1px; stroke: rgb(0, 0, 0); stroke-opacity: 0; fill: rgb(0, 0, 0); fill-opacity: 0;"/><text class="annotation-text" text-anchor="middle" x="22.796875" y="14" style="font-family: 'Open Sans', verdana, arial, sans-serif; font-size: 12px; fill: rgb(42, 63, 95); fill-opacity: 1; white-space: pre;"></text></g></g></g><g class="annotation" data-index="4" style="opacity: 1;"><g class="annotation-text-g" transform="rotate(0,2054.98,109.5)"><g class="cursor-pointer" transform="translate(2041,100)"><rect class="bg" x="0.5" y="0.5" width="27" height="18" style="stroke-width: 1px; stroke: rgb(0, 0, 0); stroke-opacity: 0; fill: rgb(0, 0, 0); fill-opacity: 0;"/><text class="annotation-text" text-anchor="middle" x="14.140625" y="14" style="font-family: 'Open Sans', verdana, arial, sans-serif; font-size: 12px; fill: rgb(42, 63, 95); fill-opacity: 1; white-space: pre;">17</text></g></g></g><g class="annotation" data-index="5" style="opacity: 1;"><g class="annotation-text-g" transform="rotate(0,2255.47,109.5)"><g class="cursor-pointer" transform="translate(2241,100)"><rect class="bg" x="0.5" y="0.5" width="27" height="18" style="stroke-width: 1px; stroke: rgb(0, 0, 0); stroke-opacity: 0; fill: rgb(0, 0, 0); fill-opacity: 0;"/><text class="annotation-text" text-anchor="middle" x="14.140625" y="14" style="font-family: 'Open Sans', verdana, arial, sans-serif; font-size: 12px; fill: rgb(42, 63, 95); fill-opacity: 1; white-space: pre;">19</text></g></g></g><g class="annotation" data-index="6" style="opacity: 1;"><g class="annotation-text-g" transform="rotate(0,270.61,109.5)"><g class="cursor-pointer" transform="translate(260,100)"><rect class="bg" x="0.5" y="0.5" width="20" height="18" style="stroke-width: 1px; stroke: rgb(0, 0, 0); stroke-opacity: 0; fill: rgb(0, 0, 0); fill-opacity: 0;"/><text class="annotation-text" text-anchor="middle" x="10.328125" y="14" style="font-family: 'Open Sans', verdana, arial, sans-serif; font-size: 12px; fill: rgb(42, 63, 95); fill-opacity: 1; white-space: pre;">2</text></g></g></g><g class="annotation" data-index="7" style="opacity: 1;"><g class="annotation-text-g" transform="rotate(0,341.71000000000004,109.5)"><g class="cursor-pointer" transform="translate(307,100)"><rect class="bg" x="0.5" y="0.5" width="69" height="18" style="stroke-width: 1px; stroke: rgb(0, 0, 0); stroke-opacity: 0; fill: rgb(0, 0, 0); fill-opacity: 0;"/><text class="annotation-text" text-anchor="middle" x="34.453125" y="14" style="font-family: 'Open Sans', verdana, arial, sans-serif; font-size: 12px; fill: rgb(42, 63, 95); fill-opacity: 1; white-space: pre;"> </text></g></g></g><g class="annotation" data-index="8" style="opacity: 1;"><g class="annotation-text-g" transform="rotate(0,353.15,109.5)"><g class="cursor-pointer" transform="translate(315,100)"><rect class="bg" x="0.5" y="0.5" width="75" height="18" style="stroke-width: 1px; stroke: rgb(0, 0, 0); stroke-opacity: 0; fill: rgb(0, 0, 0); fill-opacity: 0;"/><text class="annotation-text" text-anchor="middle" x="37.890625" y="14" style="font-family: 'Open Sans', verdana, arial, sans-serif; font-size: 12px; fill: rgb(42, 63, 95); fill-opacity: 1; white-space: pre;">-</text></g></g></g><g class="annotation" data-index="9" style="opacity: 1;"><g class="annotation-text-g" transform="rotate(0,104,109.5)"><g class="cursor-pointer" transform="translate(81,100)"><rect class="bg" x="0.5" y="0.5" width="46" height="18" style="stroke-width: 1px; stroke: rgb(0, 0, 0); stroke-opacity: 0; fill: rgb(0, 0, 0); fill-opacity: 0;"/><text class="annotation-text" text-anchor="middle" x="23.5625" y="14" style="font-family: 'Open Sans', verdana, arial, sans-serif; font-size: 12px; fill: rgb(42, 63, 95); fill-opacity: 1; white-space: pre;">1+3</text></g></g></g><g class="annotation" data-index="10" style="opacity: 1;"><g class="annotation-text-g" transform="rotate(0,690.49,109.5)"><g class="cursor-pointer" transform="translate(680,100)"><rect class="bg" x="0.5" y="0.5" width="20" height="18" style="stroke-width: 1px; stroke: rgb(0, 0, 0); stroke-opacity: 0; fill: rgb(0, 0, 0); fill-opacity: 0;"/><text class="annotation-text" text-anchor="middle" x="10.328125" y="14" style="font-family: 'Open Sans', verdana, arial, sans-serif; font-size: 12px; fill: rgb(42, 63, 95); fill-opacity: 1; white-space: pre;">4</text></g></g></g><g class="annotation" data-index="11" style="opacity: 1;"><g class="annotation-text-g" transform="rotate(0,785.86,109.5)"><g class="cursor-pointer" transform="translate(730,100)"><rect class="bg" x="0.5" y="0.5" width="111" height="18" style="stroke-width: 1px; stroke: rgb(0, 0, 0); stroke-opacity: 0; fill: rgb(0, 0, 0); fill-opacity: 0;"/><text class="annotation-text" text-anchor="middle" x="56.0625" y="14" style="font-family: 'Open Sans', verdana, arial, sans-serif; font-size: 12px; fill: rgb(42, 63, 95); fill-opacity: 1; white-space: pre;">. + 5</text></g></g></g><g class="annotation" data-index="12" style="opacity: 1;"><g class="annotation-text-g" transform="rotate(0,841.78,109.5)"><g class="cursor-pointer" transform="translate(831,100)"><rect class="bg" x="0.5" y="0.5" width="20" height="18" style="stroke-width: 1px; stroke: rgb(0, 0, 0); stroke-opacity: 0; fill: rgb(0, 0, 0); fill-opacity: 0;"/><text class="annotation-text" text-anchor="middle" x="10.328125" y="14" style="font-family: 'Open Sans', verdana, arial, sans-serif; font-size: 12px; fill: rgb(42, 63, 95); fill-opacity: 1; white-space: pre;">6</text></g></g></g><g class="annotation" data-index="13" style="opacity: 1;"><g class="annotation-text-g" transform="rotate(0,932.83,109.5)"><g class="cursor-pointer" transform="translate(885,100)"><rect class="bg" x="0.5" y="0.5" width="95" height="18" style="stroke-width: 1px; stroke: rgb(0, 0, 0); stroke-opacity: 0; fill: rgb(0, 0, 0); fill-opacity: 0;"/><text class="annotation-text" text-anchor="middle" x="47.828125" y="14" style="font-family: 'Open Sans', verdana, arial, sans-serif; font-size: 12px; fill: rgb(42, 63, 95); fill-opacity: 1; white-space: pre;"> + 7</text></g></g></g><g class="annotation" data-index="14" style="opacity: 1;"><g class="annotation-text-g" transform="rotate(0,914.29,109.5)"><g class="cursor-pointer" transform="translate(904,100)"><rect class="bg" x="0.5" y="0.5" width="20" height="18" style="stroke-width: 1px; stroke: rgb(0, 0, 0); stroke-opacity: 0; fill: rgb(0, 0, 0); fill-opacity: 0;"/><text class="annotation-text" text-anchor="middle" x="10.328125" y="14" style="font-family: 'Open Sans', verdana, arial, sans-serif; font-size: 12px; fill: rgb(42, 63, 95); fill-opacity: 1; white-space: pre;">8</text></g></g></g><g class="annotation" data-index="15" style="opacity: 1;"><g class="annotation-text-g" transform="rotate(0,1089.72,109.5)"><g class="cursor-pointer" transform="translate(1079,100)"><rect class="bg" x="0.5" y="0.5" width="20" height="18" style="stroke-width: 1px; stroke: rgb(0, 0, 0); stroke-opacity: 0; fill: rgb(0, 0, 0); fill-opacity: 0;"/><text class="annotation-text" text-anchor="middle" x="10.328125" y="14" style="font-family: 'Open Sans', verdana, arial, sans-serif; font-size: 12px; fill: rgb(42, 63, 95); fill-opacity: 1; white-space: pre;">9</text></g></g></g><g class="annotation" data-index="16" style="opacity: 1;"><g class="annotation-text-g" transform="rotate(0,1248.01,109.5)"><g class="cursor-pointer" transform="translate(1234,100)"><rect class="bg" x="0.5" y="0.5" width="27" height="18" style="stroke-width: 1px; stroke: rgb(0, 0, 0); stroke-opacity: 0; fill: rgb(0, 0, 0); fill-opacity: 0;"/><text class="annotation-text" text-anchor="middle" x="14.140625" y="14" style="font-family: 'Open Sans', verdana, arial, sans-serif; font-size: 12px; fill: rgb(42, 63, 95); fill-opacity: 1; white-space: pre;">11</text></g></g></g><g class="annotation" data-index="17" style="opacity: 1;"><g class="annotation-text-g" transform="rotate(0,1294.95,109.5)"><g class="cursor-pointer" transform="translate(1254,100)"><rect class="bg" x="0.5" y="0.5" width="81" height="18" style="stroke-width: 1px; stroke: rgb(0, 0, 0); stroke-opacity: 0; fill: rgb(0, 0, 0); fill-opacity: 0;"/><text class="annotation-text" text-anchor="middle" x="41.203125" y="14" style="font-family: 'Open Sans', verdana, arial, sans-serif; font-size: 12px; fill: rgb(42, 63, 95); fill-opacity: 1; white-space: pre;"></text></g></g></g><g class="annotation" data-index="18" style="opacity: 1;"><g class="annotation-text-g" transform="rotate(0,1345.13,109.5)"><g class="cursor-pointer" transform="translate(1331,100)"><rect class="bg" x="0.5" y="0.5" width="27" height="18" style="stroke-width: 1px; stroke: rgb(0, 0, 0); stroke-opacity: 0; fill: rgb(0, 0, 0); fill-opacity: 0;"/><text class="annotation-text" text-anchor="middle" x="14.140625" y="14" style="font-family: 'Open Sans', verdana, arial, sans-serif; font-size: 12px; fill: rgb(42, 63, 95); fill-opacity: 1; white-space: pre;">12</text></g></g></g><g class="annotation" data-index="19" style="opacity: 1;"><g class="annotation-text-g" transform="rotate(0,1394.23,109.5)"><g class="cursor-pointer" transform="translate(1361,100)"><rect class="bg" x="0.5" y="0.5" width="65" height="18" style="stroke-width: 1px; stroke: rgb(0, 0, 0); stroke-opacity: 0; fill: rgb(0, 0, 0); fill-opacity: 0;"/><text class="annotation-text" text-anchor="middle" x="32.515625" y="14" style="font-family: 'Open Sans', verdana, arial, sans-serif; font-size: 12px; fill: rgb(42, 63, 95); fill-opacity: 1; white-space: pre;"></text></g></g></g><g class="annotation" data-index="20" style="opacity: 1;"><g class="annotation-text-g" transform="rotate(0,1534.16,109.5)"><g class="cursor-pointer" transform="translate(1520,100)"><rect class="bg" x="0.5" y="0.5" width="28" height="18" style="stroke-width: 1px; stroke: rgb(0, 0, 0); stroke-opacity: 0; fill: rgb(0, 0, 0); fill-opacity: 0;"/><text class="annotation-text" text-anchor="middle" x="14.140625" y="14" style="font-family: 'Open Sans', verdana, arial, sans-serif; font-size: 12px; fill: rgb(42, 63, 95); fill-opacity: 1; white-space: pre;">14</text></g></g></g><g class="annotation" data-index="21" style="opacity: 1;"><g class="annotation-text-g" transform="rotate(0,1785.82,109.5)"><g class="cursor-pointer" transform="translate(1772,100)"><rect class="bg" x="0.5" y="0.5" width="27" height="18" style="stroke-width: 1px; stroke: rgb(0, 0, 0); stroke-opacity: 0; fill: rgb(0, 0, 0); fill-opacity: 0;"/><text class="annotation-text" text-anchor="middle" x="14.140625" y="14" style="font-family: 'Open Sans', verdana, arial, sans-serif; font-size: 12px; fill: rgb(42, 63, 95); fill-opacity: 1; white-space: pre;">15</text></g></g></g><g class="annotation" data-index="22" style="opacity: 1;"><g class="annotation-text-g" transform="rotate(0,918.87,109.5)"><g class="cursor-pointer" transform="translate(900,100)"><rect class="bg" x="0.5" y="0.5" width="37" height="18" style="stroke-width: 1px; stroke: rgb(0, 0, 0); stroke-opacity: 0; fill: rgb(0, 0, 0); fill-opacity: 0;"/><text class="annotation-text" text-anchor="middle" x="18.5625" y="14" style="font-family: 'Open Sans', verdana, arial, sans-serif; font-size: 12px; fill: rgb(42, 63, 95); fill-opacity: 1; white-space: pre;"></text></g></g></g><g class="annotation" data-index="23" style="opacity: 1;"><g class="annotation-text-g" transform="rotate(0,1208.95,109.5)"><g class="cursor-pointer" transform="translate(1195,100)"><rect class="bg" x="0.5" y="0.5" width="27" height="18" style="stroke-width: 1px; stroke: rgb(0, 0, 0); stroke-opacity: 0; fill: rgb(0, 0, 0); fill-opacity: 0;"/><text class="annotation-text" text-anchor="middle" x="14.140625" y="14" style="font-family: 'Open Sans', verdana, arial, sans-serif; font-size: 12px; fill: rgb(42, 63, 95); fill-opacity: 1; white-space: pre;">10</text></g></g></g><g class="annotation" data-index="24" style="opacity: 1;"><g class="annotation-text-g" transform="rotate(0,1457.97,109.5)"><g class="cursor-pointer" transform="translate(1409,100)"><rect class="bg" x="0.5" y="0.5" width="96" height="18" style="stroke-width: 1px; stroke: rgb(0, 0, 0); stroke-opacity: 0; fill: rgb(0, 0, 0); fill-opacity: 0;"/><text class="annotation-text" text-anchor="middle" x="48.25" y="14" style="font-family: 'Open Sans', verdana, arial, sans-serif; font-size: 12px; fill: rgb(42, 63, 95); fill-opacity: 1; white-space: pre;"> + 13</text></g></g></g><g class="annotation" data-index="25" style="opacity: 1;"><g class="annotation-text-g" transform="rotate(0,2145.66,109.5)"><g class="cursor-pointer" transform="translate(2088,100)"><rect class="bg" x="0.5" y="0.5" width="114" height="18" style="stroke-width: 1px; stroke: rgb(0, 0, 0); stroke-opacity: 0; fill: rgb(0, 0, 0); fill-opacity: 0;"/><text class="annotation-text" text-anchor="middle" x="57.5" y="14" style="font-family: 'Open Sans', verdana, arial, sans-serif; font-size: 12px; fill: rgb(42, 63, 95); fill-opacity: 1; white-space: pre;">  + 18</text></g></g></g><g class="annotation" data-index="26" style="opacity: 1;"><g class="annotation-text-g" transform="rotate(0,2138.99,109.5)"><g class="cursor-pointer" transform="translate(2092,100)"><rect class="bg" x="0.5" y="0.5" width="92" height="18" style="stroke-width: 1px; stroke: rgb(0, 0, 0); stroke-opacity: 0; fill: rgb(0, 0, 0); fill-opacity: 0;"/><text class="annotation-text" text-anchor="middle" x="46.390625" y="14" style="font-family: 'Open Sans', verdana, arial, sans-serif; font-size: 12px; fill: rgb(42, 63, 95); fill-opacity: 1; white-space: pre;"> 2 </text></g></g></g><g class="annotation" data-index="27" style="opacity: 1;"><g class="annotation-text-g" transform="rotate(0,2156.3900000000003,109.5)"><g class="cursor-pointer" transform="translate(2116,100)"><rect class="bg" x="0.5" y="0.5" width="80" height="18" style="stroke-width: 1px; stroke: rgb(0, 0, 0); stroke-opacity: 0; fill: rgb(0, 0, 0); fill-opacity: 0;"/><text class="annotation-text" text-anchor="middle" x="40.703125" y="14" style="font-family: 'Open Sans', verdana, arial, sans-serif; font-size: 12px; fill: rgb(42, 63, 95); fill-opacity: 1; white-space: pre;"></text></g></g></g></g></svg>